<?xml version="1.0" encoding="utf-8"?>
<!-- Generator: Adobe Illustrator 25.0.0, SVG Export Plug-In . SVG Version: 6.00 Build 0)  -->
<svg version="1.1" id="a3d654c0-c6ba-4758-aae6-2f6a3e78a106"
	 xmlns="http://www.w3.org/2000/svg" xmlns:xlink="http://www.w3.org/1999/xlink" x="0px" y="0px" viewBox="0 0 135 70"
	 style="enable-background:new 0 0 135 70;" xml:space="preserve">
<style type="text/css">
	.st0{fill:#71788A;}
</style>
<g>
	<g>
		<path class="st0" d="M64.6,37C64.6,37,64.6,37,64.6,37c0.4,0,0.7,0.2,0.9,0.5l0.4,0.7l1.7-7.8c0.1-0.4,0.5-0.7,0.9-0.7
			c0.4,0,0.8,0.2,0.9,0.7l2.6,7.9l2.8,0c0.4,0,1.6-0.2,1.6-1.8c0-0.7-0.7-1.1-2.1-1.7c-1.5-0.6-3.3-1.4-3.4-3.5c0-1.5,0.7-2.5,1.3-3
			c0.5-0.4,1.1-0.7,1.8-0.8c-1.1-0.5-2.2-0.7-3.5-0.7c-4.8,0-8.6,4-8.6,8.8c0,0.5,0.1,1,0.2,1.5L64.6,37z"/>
		<path class="st0" d="M74.4,29.2c-0.3,0-0.8,0.1-1.2,0.4c-0.4,0.3-0.6,0.8-0.6,1.5c0,0.8,0.7,1.2,2.2,1.8c1.5,0.6,3.3,1.4,3.3,3.5
			c0,1.4-0.6,2.6-1.7,3.2c-0.8,0.5-1.6,0.5-1.7,0.5c0,0,0,0,0,0l-3.5,0c0,0,0,0,0,0c-0.4,0-0.8-0.3-0.9-0.7l-1.7-5.3l-1.6,7
			C67,41.7,66.6,42,66.2,42c0,0-0.1,0-0.1,0c-0.4,0-0.7-0.2-0.8-0.5L64,38.9l-1.5,0c1.4,3.1,4.4,5.2,8,5.2c4.8,0,8.6-4,8.6-8.8
			c0-2.4-1-4.5-2.6-6.1C75.4,29.2,74.5,29.2,74.4,29.2z"/>
	</g>
	<g>
		<path class="st0" d="M10.1,39.4c0-0.5,0-1.1,0.1-1.5h0c-0.4,0.9-1.3,1.7-2.6,1.7c-1.3,0-2.1-0.7-2.1-1.9c0-1.7,1.7-2.8,4.6-2.8
			v-0.6c0-1.1-0.4-1.6-1.7-1.6c-0.7,0-1.7,0.2-2.3,0.6l-0.1-1.2c0.7-0.3,1.7-0.6,2.7-0.6c2.2,0,2.8,1,2.8,2.6v3.1c0,0.7,0,1.5,0,2.2
			H10.1z M10.1,35.9c-2.7,0-3.3,0.8-3.3,1.5c0,0.6,0.5,1.1,1.2,1.1c1.3,0,2.1-1.2,2.1-2.4V35.9z"/>
		<path class="st0" d="M16.8,39.5c-1.8,0-3.4-0.9-3.4-3.7c0-2.5,1.3-4.2,3.8-4.2c0.6,0,1.2,0.1,1.7,0.2l-0.2,1.2
			c-0.5-0.2-1.1-0.3-1.7-0.3c-1.5,0-2.3,1.1-2.3,2.9c0,1.5,0.5,2.7,2.2,2.7c0.6,0,1.3-0.2,1.8-0.4l0.1,1.2
			C18.5,39.3,17.7,39.5,16.8,39.5z"/>
		<path class="st0" d="M23.4,39.6c-2.1,0-3.5-1.2-3.5-3.9c0-2.3,1.4-4.1,3.7-4.1c2,0,3.5,1.1,3.5,3.9C27.1,37.8,25.6,39.6,23.4,39.6
			z M23.5,32.7c-1.1,0-2.2,0.9-2.2,2.8c0,1.9,0.8,2.9,2.2,2.9c1.1,0,2.1-0.9,2.1-2.9C25.7,33.8,24.9,32.7,23.5,32.7z"/>
		<path class="st0" d="M34,39.4c0-0.4,0-1.2,0.1-1.6l0,0c-0.4,1.1-1.4,1.8-2.7,1.8c-1.8,0-2.3-1.1-2.3-2.5v-5.4h1.4v5
			c0,1.1,0.3,1.7,1.3,1.7c1.3,0,2.2-1.3,2.2-3v-3.7h1.4v7.7H34z"/>
		<path class="st0" d="M39.2,39.6c-0.6,0-1.1,0-1.6-0.1l0-1.2c0.5,0.2,1.1,0.3,1.7,0.3c1,0,1.7-0.5,1.7-1.2c0-1.7-3.6-0.7-3.6-3.4
			c0-1.3,1.1-2.3,3.1-2.3c0.5,0,1,0.1,1.5,0.2l0,1.2c-0.5-0.2-1-0.2-1.5-0.2c-1,0-1.5,0.4-1.5,1.1c0,1.7,3.6,0.8,3.6,3.4
			C42.4,38.5,41.2,39.6,39.2,39.6z"/>
		<path class="st0" d="M46.9,39.5c-1.6,0-2.1-0.7-2.1-2.3v-4.4h-1.6v-1.1h1.6v-2.5l1.4-0.4v2.9h2.2v1.1h-2.2v3.9
			c0,1.3,0.2,1.6,1.1,1.6c0.4,0,0.7-0.1,1.1-0.1v1.2C47.9,39.5,47.4,39.5,46.9,39.5z"/>
		<path class="st0" d="M51,30.5c-0.5,0-0.9-0.4-0.9-0.9c0-0.5,0.4-0.9,0.9-0.9c0.5,0,0.9,0.4,0.9,0.9C51.9,30,51.5,30.5,51,30.5z
			 M50.3,39.4v-7.7h1.4v7.7H50.3z"/>
		<path class="st0" d="M57,39.5c-1.8,0-3.4-0.9-3.4-3.7c0-2.5,1.3-4.2,3.8-4.2c0.6,0,1.2,0.1,1.7,0.2L59,33.1
			c-0.5-0.2-1.1-0.3-1.7-0.3c-1.5,0-2.3,1.1-2.3,2.9c0,1.5,0.5,2.7,2.2,2.7c0.7,0,1.3-0.2,1.8-0.4l0.1,1.2
			C58.7,39.3,57.9,39.5,57,39.5z"/>
	</g>
	<g>
		<path class="st0" d="M83.5,39.6c-0.5,0-1-0.1-1.5-0.2l0.1-2.1c0.4,0.2,1,0.3,1.6,0.3c0.6,0,0.9-0.3,0.9-0.7c0-1-2.9-0.4-2.9-3
			c0-1.6,1.2-2.8,3.6-2.8c0.4,0,0.9,0,1.4,0.1l-0.1,2c-0.4-0.1-0.9-0.2-1.4-0.2c-0.6,0-0.9,0.2-0.9,0.6c0,0.9,2.9,0.5,2.9,3
			C87.2,38.4,85.9,39.6,83.5,39.6z"/>
		<path class="st0" d="M88.9,39.4v-8h5.2v1.9h-2.8v1.2H94v1.8h-2.7v1.3h2.8v1.9H88.9z"/>
		<path class="st0" d="M100.1,39.4l-1.6-2.9h-0.1v2.9h-2.4v-8c0.7,0,2.2-0.1,3.2-0.1c2,0,3.3,0.8,3.3,2.4c0,1.1-0.6,1.9-1.7,2.3
			c0.1,0.2,0.3,0.5,0.6,0.9l1.5,2.5H100.1z M98.9,33.1c-0.1,0-0.3,0-0.5,0v1.8c0.2,0,0.4,0,0.6,0c0.6,0,1-0.4,1-1
			C100.1,33.4,99.6,33.1,98.9,33.1z"/>
		<path class="st0" d="M108.9,39.4H106l-2.9-8h2.6l1.2,3.2c0.2,0.6,0.4,1.4,0.6,2.2h0c0.2-0.8,0.4-1.6,0.7-2.2l1.1-3.2h2.5
			L108.9,39.4z"/>
		<path class="st0" d="M112.7,39.4v-8h2.4v8H112.7z"/>
		<path class="st0" d="M120.7,39.5c-2.8,0-4.1-1.6-4.1-4c0-2.2,1.4-4.4,4.5-4.4c0.4,0,1.1,0.1,1.5,0.2l-0.2,2.1
			c-0.4-0.1-0.9-0.2-1.4-0.2c-1.1,0-1.9,0.8-1.9,2.1c0,1.4,0.8,2,2,2c0.5,0,1-0.1,1.4-0.3l0.2,2.1C122.1,39.4,121.4,39.5,120.7,39.5
			z"/>
		<path class="st0" d="M124.3,39.4v-8h5.2v1.9h-2.8v1.2h2.7v1.8h-2.7v1.3h2.8v1.9H124.3z"/>
	</g>
</g>
</svg>
