<svg id="e07ffbfc-3f86-41a0-b2a7-88ccb057d686" data-name="Layer 1" xmlns="http://www.w3.org/2000/svg" viewBox="0 0 135 70"><path d="M84.52,24.1a3,3,0,1,0,3,3A3,3,0,0,0,84.52,24.1Z" fill="#71788a"/><path d="M60.27,24.1a3,3,0,1,0,3,3A3,3,0,0,0,60.27,24.1Z" fill="#71788a"/><path d="M47.58,9.51l0,15a3.34,3.34,0,0,1,3-1.63,4.25,4.25,0,1,1,0,8.49c-2.6,0-4.36-1.86-4.36-4.62V9.51H41.47V61.58H93.53V9.51ZM60.27,31.39a4.25,4.25,0,1,1,4.3-4.25A4.18,4.18,0,0,1,60.27,31.39Zm8.11-5.06.72.28a3.4,3.4,0,0,1,1.53.85,2.19,2.19,0,0,1,.52,1.44,2.65,2.65,0,0,1-2.9,2.49,4.35,4.35,0,0,1-2-.52,4.54,4.54,0,0,1-.75-.51l.75-1a3,3,0,0,0,2,.83c1,0,1.6-.5,1.6-1.29,0-.55-.31-.89-1.13-1.17l-.81-.28-.75-.27a2.9,2.9,0,0,1-.74-.44,1.84,1.84,0,0,1-.55-1.43,2.48,2.48,0,0,1,2.73-2.43,4.15,4.15,0,0,1,2.71.93l-.67,1a3.19,3.19,0,0,0-.63-.39A2.94,2.94,0,0,0,68.64,24c-.92,0-1.52.49-1.52,1.19C67.12,25.75,67.33,25.92,68.38,26.33ZM78.8,30.8a4.53,4.53,0,0,1-2.27.59,4.27,4.27,0,1,1,0-8.53,5.43,5.43,0,0,1,1.57.25,4.85,4.85,0,0,1,1.24.69l-1,.9a2.65,2.65,0,0,0-1.82-.63,3.06,3.06,0,0,0,0,6.11,3.17,3.17,0,0,0,1.13-.2,2.44,2.44,0,0,0,.84-.59l.93.95A5.08,5.08,0,0,1,78.8,30.8Zm5.72.59a4.25,4.25,0,1,1,4.3-4.25A4.18,4.18,0,0,1,84.52,31.39Z" fill="#71788a"/><path d="M53.52,27.16a3,3,0,1,0-5.94,0,3,3,0,1,0,5.94,0Z" fill="#71788a"/></svg>