<svg id="aba4aac2-d875-4d33-9de9-077fd1044d5a" data-name="Layer 1" xmlns="http://www.w3.org/2000/svg" viewBox="0 0 135 70"><path d="M85.09,10.29,81.8,17.16H68.07a18.9,18.9,0,0,0-13,6A18.42,18.42,0,0,0,50.44,35a18.66,18.66,0,0,0,4.64,12,16.64,16.64,0,0,0,11.24,5.93l3.16,6.79A25.09,25.09,0,0,1,58.72,57.8a25.88,25.88,0,0,1-8.08-5.25,22.61,22.61,0,0,1-5.31-8.14A25.38,25.38,0,0,1,43.51,35a24.72,24.72,0,0,1,1.82-9.42,23.41,23.41,0,0,1,5.45-8.08,25.21,25.21,0,0,1,7.94-5.31,23.09,23.09,0,0,1,9.42-1.89Z" fill="#71788a"/><path d="M71.5,59.61,55.69,25.37a12.92,12.92,0,0,1,2.43-2.63,10.94,10.94,0,0,1,3-1.95L75.41,51.4Zm4.92-10.29-3.91-8.08,11.31-24h7.67Z" fill="#71788a"/></svg>