<svg id="a12e825d-f0f6-4684-8165-72236641a664" data-name="Layer 1" xmlns="http://www.w3.org/2000/svg" viewBox="0 0 175 70"><path d="M29.71,43.26h.92v.93a.25.25,0,0,0,.25.25h6.38a.21.21,0,0,0,.18-.09.22.22,0,0,0,.06-.19,9.07,9.07,0,0,0-7.76-7.76.29.29,0,0,0-.2.05.27.27,0,0,0-.08.19V43A.25.25,0,0,0,29.71,43.26ZM30,36.93a8.59,8.59,0,0,1,7,7H31.13V43a.25.25,0,0,0-.25-.25H30Z" fill="#71788a"/><path d="M41.21,43.59a.24.24,0,0,0-.18-.05l-1.8.21a10.71,10.71,0,0,0-.62-2.3l1.67-.72a.22.22,0,0,0,.13-.15h0a.28.28,0,0,0,0-.2l-1.58-2.74,0,0a.23.23,0,0,0-.16-.13.24.24,0,0,0-.2.05L37,38.62a10.8,10.8,0,0,0-1.69-1.69l1.08-1.46a.25.25,0,0,0,.05-.19h0a.21.21,0,0,0-.12-.17l-2.74-1.58,0,0a.26.26,0,0,0-.21,0,.22.22,0,0,0-.14.14l-.72,1.67a11,11,0,0,0-2.32-.62l.21-1.81a.22.22,0,0,0-.06-.19.23.23,0,0,0-.18-.09h-3.2a.25.25,0,0,0-.19.09v0a.23.23,0,0,0-.05.18l.21,1.8a10.8,10.8,0,0,0-2.31.62l-.72-1.67a.23.23,0,0,0-.15-.14.24.24,0,0,0-.2,0l-2.74,1.58,0,0a.24.24,0,0,0-.12.17h0a.25.25,0,0,0,0,.19l1.08,1.46A10.39,10.39,0,0,0,20,38.62l-1.46-1.09a.24.24,0,0,0-.2-.05.25.25,0,0,0-.16.12l-1.58,2.74,0,0a.24.24,0,0,0,0,.2h0a.23.23,0,0,0,.14.15l1.66.72a11.3,11.3,0,0,0-.61,2.3L16,43.54a.23.23,0,0,0-.18.05h0a.23.23,0,0,0-.1.19V47a.23.23,0,0,0,.09.18.22.22,0,0,0,.19.06L17.79,47a10.93,10.93,0,0,0,.61,2.31L16.74,50a.29.29,0,0,0-.14.15v0a.21.21,0,0,0,0,.19l1.58,2.75,0,0a.2.2,0,0,0,.16.12.24.24,0,0,0,.2,0L20,52.16a10.51,10.51,0,0,0,1.7,1.7l-1.09,1.46a.26.26,0,0,0,0,.19.3.3,0,0,0,.12.17l2.77,1.6a.27.27,0,0,0,.2,0h0a.24.24,0,0,0,.15-.13l.72-1.67a10.71,10.71,0,0,0,2.3.62l-.21,1.8a.24.24,0,0,0,.05.18h0a.22.22,0,0,0,.19.09h3.2a.25.25,0,0,0,.18-.08.22.22,0,0,0,.06-.19l-.21-1.81a11,11,0,0,0,2.31-.62l.71,1.67a.27.27,0,0,0,.15.13h0a.25.25,0,0,0,.19,0l2.74-1.58,0,0a.27.27,0,0,0,.12-.16.23.23,0,0,0,0-.2l-1.09-1.46A11.25,11.25,0,0,0,37,52.17l1.45,1.08a.27.27,0,0,0,.19,0h0a.28.28,0,0,0,.19-.12l1.58-2.75,0,0a.27.27,0,0,0,0-.2h0a.27.27,0,0,0-.13-.15l-1.67-.71A11,11,0,0,0,39.23,47l1.81.21a.22.22,0,0,0,.19-.06.23.23,0,0,0,.08-.18v-3.2a.23.23,0,0,0-.09-.19ZM39.05,46.5a.24.24,0,0,0-.27.22,10.41,10.41,0,0,1-.71,2.64.25.25,0,0,0,.13.33l1.64.7-.1.16-1.27-.67a.17.17,0,0,0-.24.07.18.18,0,0,0,.08.24l1.26.67L38.51,52.7l-1.44-1.07a.24.24,0,0,0-.34,0,10.48,10.48,0,0,1-1.94,1.94.24.24,0,0,0,0,.34l1.07,1.43-.2.12-.68-1.09a.18.18,0,0,0-.25-.06.18.18,0,0,0,0,.24l.67,1.08-1.79,1-.71-1.64a.24.24,0,0,0-.32-.13,10.2,10.2,0,0,1-2.64.7.26.26,0,0,0-.22.28l.21,1.77h-2l.05-1.36a.18.18,0,0,0-.17-.19.19.19,0,0,0-.18.17l-.05,1.38h-.34l.21-1.77a.26.26,0,0,0-.22-.28,10.1,10.1,0,0,1-2.64-.7.25.25,0,0,0-.32.13l-.7,1.64-1.75-1,.68-1.1a.17.17,0,1,0-.29-.19l-.7,1.11-.24-.14L22.28,54a.25.25,0,0,0-.05-.34,10.59,10.59,0,0,1-1.95-1.95.24.24,0,0,0-.34-.05l-1.43,1.07-1.05-1.81,1.3-.68a.19.19,0,0,0,.08-.24.17.17,0,0,0-.24-.07l-1.31.69-.11-.19,1.64-.7a.26.26,0,0,0,.13-.33,10.38,10.38,0,0,1-.71-2.65A.25.25,0,0,0,18,46.5l-1.77.21V44.59l1.39,0h0a.18.18,0,0,0,.18-.17.18.18,0,0,0-.17-.18l-1.41,0v-.18l1.77.21a.24.24,0,0,0,.27-.22A10.53,10.53,0,0,1,19,41.41a.25.25,0,0,0-.13-.32l-1.64-.7,1-1.75,1.19.74.09,0a.18.18,0,0,0,.15-.08.18.18,0,0,0-.06-.25l-1.19-.75.14-.24,1.43,1.06a.24.24,0,0,0,.34,0,10.18,10.18,0,0,1,1.94-1.94.25.25,0,0,0,.05-.35L21.2,35.39l1.75-1,.64,1.21a.16.16,0,0,0,.15.09l.09,0a.18.18,0,0,0,.07-.24l-.64-1.22.24-.14.7,1.64a.24.24,0,0,0,.32.13,10.6,10.6,0,0,1,2.65-.71.25.25,0,0,0,.22-.27l-.21-1.77h.29l.05,1.41a.17.17,0,0,0,.18.17h0a.17.17,0,0,0,.17-.18l-.05-1.4h2l-.21,1.77a.25.25,0,0,0,.22.27,10.21,10.21,0,0,1,2.65.72.25.25,0,0,0,.32-.13l.71-1.65.19.12-.61,1.15a.18.18,0,0,0,.08.24l.08,0a.2.2,0,0,0,.16-.1l.6-1.14,1.8,1-1.07,1.43a.25.25,0,0,0,0,.35,10.18,10.18,0,0,1,1.94,1.94.24.24,0,0,0,.34,0l1.43-1.06.1.17-1.25.79a.17.17,0,0,0-.06.24.18.18,0,0,0,.15.08l.09,0,1.25-.78,1.05,1.83-1.64.7a.25.25,0,0,0-.13.32,10.64,10.64,0,0,1,.71,2.64.24.24,0,0,0,.27.22l1.77-.21v.26l-1.34,0a.18.18,0,0,0-.18.17.19.19,0,0,0,.17.19l1.35,0v2Z" fill="#71788a"/><path d="M29.87,46.51V44.27a.25.25,0,0,0-.24-.25H27.39a.25.25,0,0,0-.25.25v2.24a.25.25,0,0,0,.25.24h2.24A.24.24,0,0,0,29.87,46.51Zm-.49-.25H27.64V44.52h1.74Z" fill="#71788a"/><path d="M19.76,44.44h6.38a.25.25,0,0,0,.24-.25v-.93h.93a.25.25,0,0,0,.25-.24V36.64a.25.25,0,0,0-.09-.19.25.25,0,0,0-.19-.05,9.06,9.06,0,0,0-7.76,7.76.25.25,0,0,0,.05.19A.25.25,0,0,0,19.76,44.44Zm7.31-7.51v5.84h-.93a.25.25,0,0,0-.25.25V44H20.05A8.57,8.57,0,0,1,27.07,36.93Z" fill="#71788a"/><path d="M27.31,47.51h-.93v-.92a.25.25,0,0,0-.24-.25H19.76a.27.27,0,0,0-.19.08.29.29,0,0,0-.05.2,9.07,9.07,0,0,0,7.76,7.76h0a.23.23,0,0,0,.16-.06.21.21,0,0,0,.09-.18V47.76A.25.25,0,0,0,27.31,47.51Zm-.24,6.34a8.59,8.59,0,0,1-7-7h5.84v.93a.25.25,0,0,0,.25.25h.93Z" fill="#71788a"/><path d="M37.26,46.34H30.88a.25.25,0,0,0-.25.25v.92h-.92a.25.25,0,0,0-.25.25v6.38a.23.23,0,0,0,.08.18.27.27,0,0,0,.17.06h0a9.08,9.08,0,0,0,7.76-7.76.25.25,0,0,0-.06-.2A.23.23,0,0,0,37.26,46.34ZM30,53.85V48h.93a.25.25,0,0,0,.25-.25v-.93H37A8.61,8.61,0,0,1,30,53.85Z" fill="#71788a"/><path d="M19.94,45.66a.18.18,0,0,0-.18.17.18.18,0,0,0,.18.18h6.6a.18.18,0,0,0,.18-.18.18.18,0,0,0-.18-.17Z" fill="#71788a"/><path d="M28.37,43.43a.18.18,0,0,0,.18-.18v-7a.18.18,0,0,0-.18-.17.18.18,0,0,0-.17.17v7A.18.18,0,0,0,28.37,43.43Z" fill="#71788a"/><path d="M28.37,47.2a.17.17,0,0,0-.17.17v7a.18.18,0,0,0,.17.18.18.18,0,0,0,.18-.18v-7A.17.17,0,0,0,28.37,47.2Z" fill="#71788a"/><path d="M37.39,45.66h-6.6a.18.18,0,0,0-.18.17.18.18,0,0,0,.18.18h6.6a.17.17,0,0,0,.17-.18A.17.17,0,0,0,37.39,45.66Z" fill="#71788a"/><path d="M51.32,26.29a5.09,5.09,0,0,0,.22-2.11,8.86,8.86,0,0,0-1.72-3.87,14.56,14.56,0,0,0-3.94-3.54,21.76,21.76,0,0,0-5.43-2.45,27.49,27.49,0,0,0-5.83-1.09,26.89,26.89,0,0,0-2.85,0,2.71,2.71,0,0,1-1.08-.47,1.74,1.74,0,0,1-.57-1,1.2,1.2,0,0,1,.09-.8,1.44,1.44,0,0,1,.8-.69,1.1,1.1,0,0,1,.82.13,1.22,1.22,0,0,1,.5.64.79.79,0,0,1,0,.52,2.86,2.86,0,0,1-.76.82.32.32,0,0,0-.11.33.3.3,0,0,0,.25.23,3.21,3.21,0,0,0,.94.07,2.15,2.15,0,0,0,1.15-.48,2.17,2.17,0,0,0,.63-1.24,3.09,3.09,0,0,0-.19-1.66,2.67,2.67,0,0,0-.82-1.06A3.44,3.44,0,0,0,32,8a3.5,3.5,0,0,0-2.75.73,3.53,3.53,0,0,0-.77,1,3.74,3.74,0,0,0-.78-1A3.41,3.41,0,0,0,26.43,8a3.48,3.48,0,0,0-.9-.12A3.41,3.41,0,0,0,25,8a3.5,3.5,0,0,0-1.42.66,2.74,2.74,0,0,0-.81,1.06,3.1,3.1,0,0,0-.2,1.66,2.18,2.18,0,0,0,.64,1.24,2.15,2.15,0,0,0,1.14.48,3.25,3.25,0,0,0,1-.07.31.31,0,0,0,.25-.23.33.33,0,0,0-.12-.33,2.86,2.86,0,0,1-.76-.82.79.79,0,0,1,0-.52,1.22,1.22,0,0,1,.5-.64,1.11,1.11,0,0,1,.82-.13,1.41,1.41,0,0,1,.8.69,1.13,1.13,0,0,1,.09.8,1.69,1.69,0,0,1-.57,1,2.61,2.61,0,0,1-1.07.47,26.91,26.91,0,0,0-2.85,0,27.37,27.37,0,0,0-5.83,1.09,21.6,21.6,0,0,0-5.43,2.45A14.56,14.56,0,0,0,7.2,20.31a9,9,0,0,0-1.73,3.87,4.92,4.92,0,0,0,.23,2.11h0a7,7,0,0,0,.68,1.44c.14.26.27.49.39.74s.13.27.19.4a8.41,8.41,0,0,1,.46,1l.07.22A7.08,7.08,0,0,1,8,32.3,3.53,3.53,0,0,1,7.65,34a3.51,3.51,0,0,1-.67.74.38.38,0,0,0-.11.23.33.33,0,0,0,.09.23l1.62,1.67a.33.33,0,0,0,.23.09h0a.32.32,0,0,0,.24-.11,16.88,16.88,0,0,0,1.21-1.67,10.26,10.26,0,0,0,.84-1.93,11.15,11.15,0,0,1,.81,2.29A12.4,12.4,0,0,1,12.35,38a11.45,11.45,0,0,1-.12,3.24,10.13,10.13,0,0,1-1.15,2.68,7.11,7.11,0,0,1-.54.76l-.3.38a6.39,6.39,0,0,1-1,.77,11.82,11.82,0,0,1-2,.58.3.3,0,0,0-.25.26.3.3,0,0,0,.16.32,23.07,23.07,0,0,1,2.07,1.34,20.52,20.52,0,0,1,2.29,2.28c.33.38.65.79,1,1.19s.45.59.69.88l.53.66a17.28,17.28,0,0,0,1.6,1.84,22.88,22.88,0,0,0,3.45,2.65A36.52,36.52,0,0,0,23,60.09l.17.07a37.52,37.52,0,0,0,3.71,1.52c.5.17,1.5.39,1.54.4h.14s1-.23,1.53-.4a36.76,36.76,0,0,0,3.72-1.52l.16-.07a35.77,35.77,0,0,0,4.35-2.24,21.91,21.91,0,0,0,3.45-2.65,17.38,17.38,0,0,0,1.61-1.84l.53-.66c.24-.29.46-.58.68-.87s.62-.82,1-1.2a18.93,18.93,0,0,1,2.29-2.28A21.68,21.68,0,0,1,49.93,47a.32.32,0,0,0-.1-.58,12.35,12.35,0,0,1-2-.58,6.86,6.86,0,0,1-1-.77l-.29-.38a6,6,0,0,1-.55-.76,10.13,10.13,0,0,1-1.15-2.68A11.37,11.37,0,0,1,44.66,38a12.88,12.88,0,0,1,.43-2.49,11.77,11.77,0,0,1,.81-2.29,11.74,11.74,0,0,0,.84,1.93A16.48,16.48,0,0,0,48,36.84a.3.3,0,0,0,.23.11h0a.32.32,0,0,0,.23-.09l1.62-1.67a.29.29,0,0,0,.09-.23.3.3,0,0,0-.11-.23,4.16,4.16,0,0,1-.67-.74A3.65,3.65,0,0,1,49,32.3a7.08,7.08,0,0,1,.52-2.18c0-.07,0-.15.08-.22a8.33,8.33,0,0,1,.45-1c.07-.13.13-.26.19-.4s.26-.48.4-.74a7,7,0,0,0,.67-1.44h0ZM34.56,13.86a26.27,26.27,0,0,1,5.7,1.07,20.84,20.84,0,0,1,5.27,2.37,14,14,0,0,1,3.78,3.39,8.38,8.38,0,0,1,1.61,3.59,4.35,4.35,0,0,1-.2,1.79,4.93,4.93,0,0,1-.58.82,2.49,2.49,0,0,1-.93.56,1.91,1.91,0,0,1-.92,0,2.22,2.22,0,0,1-1-.48,2.3,2.3,0,0,1-.54-.81A6.89,6.89,0,0,1,46.46,25a.36.36,0,0,0,0-.09,4.84,4.84,0,0,1,.36-1.21c.09-.19.2-.4.34-.46a.75.75,0,0,1,.35-.08,1.24,1.24,0,0,1,.45.09,1.86,1.86,0,0,1,.47.42,3,3,0,0,1,.26.4,1.87,1.87,0,0,1,.14.5,1.42,1.42,0,0,1,0,.62.59.59,0,0,1-.23.32.42.42,0,0,1-.35,0,.36.36,0,0,1-.17-.16A.74.74,0,0,1,47.9,25l.05-.06a.31.31,0,0,0-.05-.44.3.3,0,0,0-.44,0,.68.68,0,0,0-.18.36,1.19,1.19,0,0,0,.2.79,1,1,0,0,0,.51.43,1.11,1.11,0,0,0,.85-.08,1.28,1.28,0,0,0,.52-.66,2,2,0,0,0,.06-.9,2.51,2.51,0,0,0-.19-.7,2.54,2.54,0,0,0-.3-.47,6.14,6.14,0,0,0-.31-1,8.39,8.39,0,0,0-1.27-2.14A12.93,12.93,0,0,0,44.54,18a28.56,28.56,0,0,0-4.33-2.08c-1.29-.53-2.6-.93-4.06-1.37-.69-.21-1.68-.47-2.59-.71C33.94,13.83,34.29,13.84,34.56,13.86ZM6.1,24.28a8.26,8.26,0,0,1,1.61-3.59,13.94,13.94,0,0,1,3.77-3.39,20.92,20.92,0,0,1,5.28-2.37,26.18,26.18,0,0,1,5.69-1.07c.28,0,.63,0,1,0-.9.24-1.9.5-2.58.71-1.46.44-2.77.84-4.07,1.37A28.93,28.93,0,0,0,12.48,18,12.47,12.47,0,0,0,9.67,20.2a8.43,8.43,0,0,0-1.28,2.14,9.39,9.39,0,0,0-.31,1,3.22,3.22,0,0,0-.29.47,2.21,2.21,0,0,0-.19.7,2,2,0,0,0,.06.9,1.23,1.23,0,0,0,.52.66,1.11,1.11,0,0,0,.52.13A1.26,1.26,0,0,0,9,26.11a1,1,0,0,0,.51-.43,1.25,1.25,0,0,0,.2-.79.76.76,0,0,0-.18-.36.32.32,0,0,0-.49.4l0,.06a.57.57,0,0,1-.11.35c-.05.08-.11.15-.17.16a.43.43,0,0,1-.35,0,.65.65,0,0,1-.23-.32,1.6,1.6,0,0,1,0-.62,1.57,1.57,0,0,1,.14-.5,4.1,4.1,0,0,1,.25-.4,2.06,2.06,0,0,1,.48-.42,1.05,1.05,0,0,1,.8,0c.14.06.25.27.34.46a4.83,4.83,0,0,1,.35,1.21l0,.09a7,7,0,0,1-.33,1.24A2.28,2.28,0,0,1,9.7,27a2.2,2.2,0,0,1-1,.48,1.87,1.87,0,0,1-.91,0,2.49,2.49,0,0,1-.93-.56,4.08,4.08,0,0,1-.58-.82A4.19,4.19,0,0,1,6.1,24.28ZM9.72,34.86a12.87,12.87,0,0,1-.93,1.3L7.64,35a3.18,3.18,0,0,0,.58-.7,4,4,0,0,0,.32-.94H9l.24,0,.18,0a.19.19,0,0,0,.12-.22.18.18,0,0,0-.22-.12l-.14,0A1.33,1.33,0,0,1,9,33H8.6c0-.12,0-.25,0-.38H9l.26,0a2.65,2.65,0,0,0,.3-.06,1,1,0,0,0,.22-.09.17.17,0,0,0,.09-.23.17.17,0,0,0-.23-.09l-.17.07-.25,0-.23,0H8.64a2.59,2.59,0,0,0,0-.48l.13,0,.27,0h.05l.27,0a1.59,1.59,0,0,0,.3-.06l.22-.08a.17.17,0,0,0-.14-.32l-.18.06a.92.92,0,0,1-.25.05l-.22,0a1.29,1.29,0,0,1-.28,0l-.23,0c0-.15-.07-.29-.11-.44l.17,0,.33,0H9a1.65,1.65,0,0,0,.32,0,1.72,1.72,0,0,0,.36-.09,1.32,1.32,0,0,0,.26-.12.18.18,0,0,0-.17-.31l-.21.1a1.41,1.41,0,0,1-.31.08,2.06,2.06,0,0,1-.26,0,1.94,1.94,0,0,1-.34,0l-.29-.07h0a2.76,2.76,0,0,0-.08-.27l.08,0a2.61,2.61,0,0,0,.48.05h.09a2.31,2.31,0,0,0,.47-.08,3,3,0,0,0,.51-.16,2.73,2.73,0,0,0,.38-.25.17.17,0,0,0,0-.24.18.18,0,0,0-.25,0l-.32.21a2.83,2.83,0,0,1-.44.14,2.79,2.79,0,0,1-.4.07,2.7,2.7,0,0,1-.49,0l-.3-.1c0-.06,0-.12-.07-.19a.88.88,0,0,0,0-.15l.16.05a2.76,2.76,0,0,0,.57.06h.1a2.43,2.43,0,0,0,.55-.1,3.07,3.07,0,0,0,.6-.21,2.75,2.75,0,0,0,.44-.31.17.17,0,0,0-.22-.27c-.07,0-.27.21-.38.27a3.31,3.31,0,0,1-.53.18,1.85,1.85,0,0,1-.47.08,2.39,2.39,0,0,1-.59-.05,3.43,3.43,0,0,1-.42-.14,3.54,3.54,0,0,0-.16-.34l.11,0a3,3,0,0,0,.72.09h.14a3.12,3.12,0,0,0,.69-.13,3.21,3.21,0,0,0,.76-.29,3.71,3.71,0,0,0,.56-.43.16.16,0,0,0,0-.24.18.18,0,0,0-.25,0,3.62,3.62,0,0,1-.5.38,3.41,3.41,0,0,1-.69.27,3,3,0,0,1-.61.11,2.83,2.83,0,0,1-.76-.07l-.41-.15,0-.09-.17-.34a2.88,2.88,0,0,0,.45.19,2.5,2.5,0,0,0,.72.1,2.15,2.15,0,0,0,.51-.05,2.86,2.86,0,0,0,1.27-.62,3,3,0,0,0,.69-1v0A20,20,0,0,1,11,29.7a12.69,12.69,0,0,1-.35,2.74A10.74,10.74,0,0,1,9.72,34.86Zm39.2,12a14.8,14.8,0,0,0-1.46,1,21,21,0,0,0-2.36,2.36c-.35.4-.68.82-1,1.23s-.44.58-.67.86L42.9,53a16.28,16.28,0,0,1-1.54,1.77A22.34,22.34,0,0,1,38,57.32a35.79,35.79,0,0,1-4.27,2.19l-.16.08a37.56,37.56,0,0,1-3.66,1.49c-.4.13-1.17.31-1.4.37s-1-.24-1.41-.37a38.38,38.38,0,0,1-3.65-1.49l-.16-.08A36.7,36.7,0,0,1,19,57.32a21.74,21.74,0,0,1-3.35-2.58A16.37,16.37,0,0,1,14.11,53c-.17-.22-.35-.45-.54-.67s-.45-.57-.67-.86-.63-.83-1-1.23a21,21,0,0,0-2.36-2.36c-.38-.3-1-.69-1.46-1a7.18,7.18,0,0,0,1.4-.46,5,5,0,0,0,.92-.65h.12l0,0a2.67,2.67,0,0,0,.11.55,10.84,10.84,0,0,0,1.59,2.79l.24.33a34,34,0,0,0,4.71,5.67A23.71,23.71,0,0,0,21.43,58a33.78,33.78,0,0,0,3.8,1.81l.18.08c.43.18.88.34,1.3.5l.94.35.74.3a.25.25,0,0,0,.24,0l.74-.3.93-.35c.43-.16.87-.32,1.3-.5l.2-.09A33.42,33.42,0,0,0,35.58,58a23.78,23.78,0,0,0,4.23-2.94,35,35,0,0,0,4.71-5.67l.23-.33a10.88,10.88,0,0,0,1.6-2.79,3.07,3.07,0,0,0,.11-.6l0,0a7.52,7.52,0,0,0,1,.73A7.52,7.52,0,0,0,48.92,46.87ZM44.48,35.36A13.58,13.58,0,0,0,44,38a12,12,0,0,0,.14,3.42,10.51,10.51,0,0,0,1.21,2.85,4.52,4.52,0,0,0,.5.71v0a5.84,5.84,0,0,1-.13,1.12,10.74,10.74,0,0,1-1.51,2.62l-.24.34a33.8,33.8,0,0,1-4.62,5.56,23.14,23.14,0,0,1-4.11,2.86,32.44,32.44,0,0,1-3.72,1.77l-.19.08c-.42.18-.86.34-1.28.49l-.94.36-.63.26-.63-.26-.95-.36c-.42-.15-.85-.31-1.27-.49l-.18-.07a35.35,35.35,0,0,1-3.73-1.78,23.58,23.58,0,0,1-4.12-2.86A33.72,33.72,0,0,1,13,49.06l-.24-.34a10.13,10.13,0,0,1-1.51-2.62A4.7,4.7,0,0,1,11.14,45v0a5.29,5.29,0,0,0,.5-.71,10.83,10.83,0,0,0,1.21-2.85A12,12,0,0,0,13,38a13.76,13.76,0,0,0-.46-2.62,10.54,10.54,0,0,0-1-2.64,3.28,3.28,0,0,0-.2-.31,13.32,13.32,0,0,0,.32-2.69,21,21,0,0,0-.26-3.65c0-.15-.05-.3-.07-.45a7.56,7.56,0,0,0-.53-2.23,1.47,1.47,0,0,0-.63-.76A1.64,1.64,0,0,0,9,22.58a7.54,7.54,0,0,1,1.17-2,11.66,11.66,0,0,1,2.67-2.09,29.2,29.2,0,0,1,4.22-2c1.27-.51,2.57-.91,4-1.34s4.69-1.24,4.72-1.25a.32.32,0,0,0,.23-.22,2.58,2.58,0,0,0,.72-.41,2.34,2.34,0,0,0,.79-1.33,1.77,1.77,0,0,0-.15-1.23,2.06,2.06,0,0,0-1.18-1,1.74,1.74,0,0,0-2.09,1.16,1.39,1.39,0,0,0,0,1,2.3,2.3,0,0,0,.42.61h0a1.58,1.58,0,0,1-.82-.31,1.59,1.59,0,0,1-.43-.89,2.4,2.4,0,0,1,.15-1.31A2.2,2.2,0,0,1,24,9.11a2.63,2.63,0,0,1,1.15-.52,2,2,0,0,1,.42-.05,2.69,2.69,0,0,1,.74.1,2.61,2.61,0,0,1,1.05.53,3.11,3.11,0,0,1,.74,1,2,2,0,0,1,.14.44.3.3,0,0,0,.31.26h0a.32.32,0,0,0,.31-.26A1.56,1.56,0,0,1,29,10.2a3.11,3.11,0,0,1,.74-1,2.78,2.78,0,0,1,1.06-.53,2.55,2.55,0,0,1,1.16-.05,2.68,2.68,0,0,1,1.15.52,2.07,2.07,0,0,1,.62.81,2.4,2.4,0,0,1,.16,1.31,1.67,1.67,0,0,1-.44.89,1.63,1.63,0,0,1-.82.31h0a1.91,1.91,0,0,0,.42-.61,1.45,1.45,0,0,0,0-1,1.87,1.87,0,0,0-.78-1,1.79,1.79,0,0,0-1.31-.19,2.11,2.11,0,0,0-1.19,1,1.83,1.83,0,0,0-.15,1.23,2.39,2.39,0,0,0,.79,1.33,2.63,2.63,0,0,0,.73.41.3.3,0,0,0,.23.22s3.18.78,4.72,1.25,2.74.83,4,1.34a28.81,28.81,0,0,1,4.23,2,11.88,11.88,0,0,1,2.67,2.09,7.83,7.83,0,0,1,1.17,2,1.63,1.63,0,0,0-1.2.05,1.42,1.42,0,0,0-.63.76,7.28,7.28,0,0,0-.54,2.23l-.06.45a22.14,22.14,0,0,0-.27,3.65,13.28,13.28,0,0,0,.33,2.69l-.21.31A11.56,11.56,0,0,0,44.48,35.36ZM49.37,35l-1.14,1.18a11.46,11.46,0,0,1-.93-1.3,10.3,10.3,0,0,1-1-2.42A12.09,12.09,0,0,1,46,29.7a18.92,18.92,0,0,1,.22-3.26v0a2.56,2.56,0,0,0,1.95,1.65,2.24,2.24,0,0,0,.52.05,2.44,2.44,0,0,0,.71-.1,2.53,2.53,0,0,0,.45-.19l-.17.34,0,.09-.42.15a2.76,2.76,0,0,1-.75.07,3.22,3.22,0,0,1-.62-.11,3.65,3.65,0,0,1-.69-.27,4.18,4.18,0,0,1-.49-.38.17.17,0,0,0-.25,0,.16.16,0,0,0,0,.24,4.34,4.34,0,0,0,.56.43,3.46,3.46,0,0,0,.77.29,3,3,0,0,0,.69.13h.13a3,3,0,0,0,.72-.09l.11,0-.16.34a2.58,2.58,0,0,1-.42.14,2.28,2.28,0,0,1-.58.05,1.85,1.85,0,0,1-.47-.08,3,3,0,0,1-.53-.18c-.11-.06-.31-.22-.38-.27a.18.18,0,0,0-.25,0,.17.17,0,0,0,0,.24,2.75,2.75,0,0,0,.44.31,2.68,2.68,0,0,0,.6.21,2.35,2.35,0,0,0,.54.1h.11a2.76,2.76,0,0,0,.57-.06l.16-.05-.06.15a1.07,1.07,0,0,1-.07.19l-.29.1a2.81,2.81,0,0,1-.5,0,2.66,2.66,0,0,1-.39-.07,3.36,3.36,0,0,1-.45-.14L47,29.6a.17.17,0,0,0-.24,0,.17.17,0,0,0,0,.24,3.55,3.55,0,0,0,.38.25,3.45,3.45,0,0,0,.52.16,2.21,2.21,0,0,0,.46.08h.09a2.61,2.61,0,0,0,.48-.05l.09,0-.09.27h0s-.21.06-.3.07a1.83,1.83,0,0,1-.33,0,2.48,2.48,0,0,1-.27,0,1.47,1.47,0,0,1-.3-.08l-.21-.1a.17.17,0,0,0-.24.07.18.18,0,0,0,.06.24,2,2,0,0,0,.27.12,1.58,1.58,0,0,0,.36.09A1.55,1.55,0,0,0,48,31h.06l.34,0,.16,0c0,.15-.07.29-.1.44l-.23,0a1.31,1.31,0,0,1-.28,0l-.22,0a1.09,1.09,0,0,1-.26-.05l-.17-.06a.17.17,0,1,0-.14.32l.22.08a1.59,1.59,0,0,0,.3.06l.26,0h0l.28,0,.12,0c0,.16,0,.32,0,.48h-.31l-.23,0-.25,0-.18-.07a.18.18,0,0,0-.23.09.17.17,0,0,0,.09.23,1.35,1.35,0,0,0,.22.09l.3.06.27,0h.33c0,.13,0,.26,0,.38H48a1.2,1.2,0,0,1-.2,0l-.15,0a.17.17,0,0,0-.21.12.18.18,0,0,0,.12.22l.18,0,.23,0h.46a3.61,3.61,0,0,0,.33.94A3.43,3.43,0,0,0,49.37,35Z" fill="#71788a"/><path d="M72,29.46c-.15,0-.34,0-.59.08a2.42,2.42,0,0,0-.6.17.76.76,0,0,0-.38.39,1.35,1.35,0,0,0-.12.59v1c0,.73,0,1.23,0,1.48s0,.47,0,.63a13.14,13.14,0,0,1-2.42.84,9.79,9.79,0,0,1-2.37.29,6.31,6.31,0,0,1-2.39-.46,5.83,5.83,0,0,1-2-1.33A6.23,6.23,0,0,1,59.81,31a7.2,7.2,0,0,1-.51-2.77,7.47,7.47,0,0,1,.49-2.75,6.73,6.73,0,0,1,1.38-2.2,6.12,6.12,0,0,1,2.07-1.42,6.51,6.51,0,0,1,2.57-.5,6.09,6.09,0,0,1,1.91.26,7,7,0,0,1,1.43.64l.38-.62h.73l.08,4.53h-.75a13.36,13.36,0,0,0-.47-1.48,5.35,5.35,0,0,0-.74-1.3,3.14,3.14,0,0,0-2.63-1.26,3.66,3.66,0,0,0-1.74.4,3.75,3.75,0,0,0-1.34,1.18,5.69,5.69,0,0,0-.86,1.89,9.92,9.92,0,0,0-.3,2.53,8.75,8.75,0,0,0,.3,2.33,5.86,5.86,0,0,0,.86,1.89,4.14,4.14,0,0,0,1.42,1.28,4,4,0,0,0,1.93.46,4.36,4.36,0,0,0,1.47-.24,2.75,2.75,0,0,0,.93-.52,6.22,6.22,0,0,0,.08-1c0-.33,0-.6,0-.83v-.71a2.06,2.06,0,0,0-.11-.68.7.7,0,0,0-.43-.43,3.22,3.22,0,0,0-.82-.21l-.81-.08v-.67H72Z" fill="#71788a"/><path d="M85.06,30.81l-.25,3.81H74.06V34l.73-.08a2.71,2.71,0,0,0,.59-.12.92.92,0,0,0,.41-.36,1.3,1.3,0,0,0,.11-.56V23.55a1.25,1.25,0,0,0-.1-.53.76.76,0,0,0-.42-.38,3.22,3.22,0,0,0-.66-.21,5,5,0,0,0-.66-.11v-.65h10v3.12h-.69a4.22,4.22,0,0,0-.78-1.47,2,2,0,0,0-1.16-.86l-.68-.05-.89,0h-2v5.15H79.3a2.88,2.88,0,0,0,1-.13A1.36,1.36,0,0,0,80.9,27a2.08,2.08,0,0,0,.34-.7,4.16,4.16,0,0,0,.19-.84h.69V30.5h-.69a4.27,4.27,0,0,0-.19-.93,2.47,2.47,0,0,0-.34-.71,1.33,1.33,0,0,0-.64-.46,3.16,3.16,0,0,0-1-.11H77.84v3.88a3.68,3.68,0,0,0,.09.92.8.8,0,0,0,.32.51,1.34,1.34,0,0,0,.64.23,11.39,11.39,0,0,0,1.17.05h.8c.33,0,.6,0,.83,0a6.27,6.27,0,0,0,.71-.13,1.13,1.13,0,0,0,.53-.26,6.21,6.21,0,0,0,.88-1.33,9.56,9.56,0,0,0,.59-1.31Z" fill="#71788a"/><path d="M103.47,34.62H97.75V34c.2,0,.47,0,.79-.07a2.16,2.16,0,0,0,.68-.15,1.31,1.31,0,0,0,.41-.4,1.08,1.08,0,0,0,.13-.56V23.38h-.13l-4.42,11h-.46L90.54,23.15h-.12v7.73a7.34,7.34,0,0,0,.15,1.71,1.52,1.52,0,0,0,.43.84,2,2,0,0,0,.83.36,5.25,5.25,0,0,0,.82.19v.64H87.42V34a7.3,7.3,0,0,0,.86-.14,1.76,1.76,0,0,0,.7-.3,1.35,1.35,0,0,0,.44-.79A9,9,0,0,0,89.54,31V24.35a2.78,2.78,0,0,0-.14-.94,1.45,1.45,0,0,0-.39-.59,1.74,1.74,0,0,0-.7-.37,3.26,3.26,0,0,0-.81-.13v-.65h4.42l3.71,9.72,3.17-8.13a8.6,8.6,0,0,0,.29-.94,4.07,4.07,0,0,0,.14-.65h4.22v.65a3.66,3.66,0,0,0-.65.08,3.27,3.27,0,0,0-.58.14.64.64,0,0,0-.42.36,1.47,1.47,0,0,0-.11.56V32.8a1.27,1.27,0,0,0,.11.54.93.93,0,0,0,.42.38,2,2,0,0,0,.58.17,6.32,6.32,0,0,0,.67.09Z" fill="#71788a"/><path d="M117.23,30.81,117,34.62H106.23V34l.73-.08a2.71,2.71,0,0,0,.59-.12.92.92,0,0,0,.41-.36,1.3,1.3,0,0,0,.11-.56V23.55A1.25,1.25,0,0,0,108,23a.76.76,0,0,0-.42-.38,2.86,2.86,0,0,0-.66-.21,5,5,0,0,0-.66-.11v-.65h10v3.12h-.68a4.44,4.44,0,0,0-.79-1.47,2,2,0,0,0-1.16-.86l-.67-.05-.9,0h-2v5.15h1.46a2.85,2.85,0,0,0,1-.13,1.36,1.36,0,0,0,.57-.45,2.28,2.28,0,0,0,.35-.7,4.89,4.89,0,0,0,.18-.84h.69V30.5h-.69a4.27,4.27,0,0,0-.19-.93,2.47,2.47,0,0,0-.34-.71,1.28,1.28,0,0,0-.64-.46,3.13,3.13,0,0,0-1-.11H110v3.88a3.76,3.76,0,0,0,.08.92.8.8,0,0,0,.32.51,1.38,1.38,0,0,0,.65.23,11,11,0,0,0,1.16.05h.8c.33,0,.6,0,.83,0a6.87,6.87,0,0,0,.72-.13,1.14,1.14,0,0,0,.52-.26,6.21,6.21,0,0,0,.88-1.33,8.45,8.45,0,0,0,.59-1.31Z" fill="#71788a"/><path d="M125.71,34.62h-5.84V34l.72-.06a2.27,2.27,0,0,0,.65-.11,1,1,0,0,0,.44-.32,1,1,0,0,0,.14-.57V23.53a1.19,1.19,0,0,0-.1-.53.79.79,0,0,0-.48-.36,5.22,5.22,0,0,0-1.37-.32v-.65h5.84v.65a4.75,4.75,0,0,0-.68.07,4.65,4.65,0,0,0-.68.15.73.73,0,0,0-.47.35,1.26,1.26,0,0,0-.12.55v9.38a1,1,0,0,0,.14.53.81.81,0,0,0,.45.37,4.36,4.36,0,0,0,.62.16,4.92,4.92,0,0,0,.74.1Z" fill="#71788a"/><path d="M142.12,22.32a3.57,3.57,0,0,0-.78.14,2.55,2.55,0,0,0-.76.29,1.24,1.24,0,0,0-.44.87,9.3,9.3,0,0,0-.12,1.65v9.48h-.79l-7.85-10.6v6.69a7.66,7.66,0,0,0,.14,1.72,1.61,1.61,0,0,0,.43.86,2.12,2.12,0,0,0,.87.37,5.66,5.66,0,0,0,.87.19v.64h-5.32V34a7.31,7.31,0,0,0,.83-.18,2.08,2.08,0,0,0,.73-.29,1.3,1.3,0,0,0,.44-.78,9.16,9.16,0,0,0,.12-1.79V24.55a2.48,2.48,0,0,0-.15-.84,1.4,1.4,0,0,0-.39-.64,2.52,2.52,0,0,0-.89-.52,3.09,3.09,0,0,0-.91-.23v-.65h3.71l7.28,9.88V25.38a7.6,7.6,0,0,0-.15-1.73,1.39,1.39,0,0,0-.42-.81,3,3,0,0,0-.83-.34,4.31,4.31,0,0,0-.89-.18v-.65h5.27Z" fill="#71788a"/><path d="M156.7,28.22a6.14,6.14,0,0,1-.62,2.87,5.87,5.87,0,0,1-1.61,2,6.93,6.93,0,0,1-2.26,1.16,8.57,8.57,0,0,1-2.58.38h-5.37V34c.17,0,.4,0,.69,0a2.59,2.59,0,0,0,.56-.12.81.81,0,0,0,.4-.35,1.22,1.22,0,0,0,.12-.56V23.55a1.43,1.43,0,0,0-.11-.56.78.78,0,0,0-.41-.39,2.43,2.43,0,0,0-.61-.2,5.14,5.14,0,0,0-.57-.08v-.65H150a7.52,7.52,0,0,1,2.3.36,6.71,6.71,0,0,1,2,1,5.48,5.48,0,0,1,1.79,2.13A6.83,6.83,0,0,1,156.7,28.22Zm-2.23,0a7.55,7.55,0,0,0-.35-2.36,5.42,5.42,0,0,0-1-1.84,4.35,4.35,0,0,0-1.54-1.17,4.69,4.69,0,0,0-2-.43h-.85l-.7,0v10a1.3,1.3,0,0,0,.49,1.15,2.77,2.77,0,0,0,1.49.32,4.73,4.73,0,0,0,2-.41,3.71,3.71,0,0,0,1.41-1.15,5.16,5.16,0,0,0,.83-1.77A9.53,9.53,0,0,0,154.47,28.22Z" fill="#71788a"/><path d="M169.57,30.81l-.25,3.81H158.56V34l.73-.08a2.7,2.7,0,0,0,.6-.12.84.84,0,0,0,.4-.36,1.16,1.16,0,0,0,.12-.56V23.55a1.25,1.25,0,0,0-.1-.53.76.76,0,0,0-.42-.38,3.22,3.22,0,0,0-.66-.21,4.8,4.8,0,0,0-.67-.11v-.65h10v3.12h-.69a4.1,4.1,0,0,0-.79-1.47,2,2,0,0,0-1.15-.86l-.68-.05-.89,0h-2v5.15h1.46a2.92,2.92,0,0,0,1-.13,1.36,1.36,0,0,0,.57-.45,2.08,2.08,0,0,0,.34-.7,4.16,4.16,0,0,0,.19-.84h.69V30.5h-.69a4.27,4.27,0,0,0-.19-.93,2.47,2.47,0,0,0-.34-.71,1.33,1.33,0,0,0-.64-.46,3.16,3.16,0,0,0-1-.11h-1.46v3.88a3.68,3.68,0,0,0,.09.92.83.83,0,0,0,.31.51,1.42,1.42,0,0,0,.65.23,11.39,11.39,0,0,0,1.17.05h.8c.32,0,.6,0,.83,0a6.27,6.27,0,0,0,.71-.13,1.13,1.13,0,0,0,.53-.26,6.21,6.21,0,0,0,.88-1.33,9.56,9.56,0,0,0,.59-1.31Z" fill="#71788a"/><path d="M72,47l-.59.09a2.07,2.07,0,0,0-.6.16.8.8,0,0,0-.38.39,1.38,1.38,0,0,0-.12.59v1c0,.73,0,1.22,0,1.47s0,.47,0,.63a13.14,13.14,0,0,1-2.42.84,9.81,9.81,0,0,1-2.37.3A6.32,6.32,0,0,1,63.2,52a6,6,0,0,1-2-1.32,6.44,6.44,0,0,1-1.38-2.11,7.28,7.28,0,0,1-.51-2.78A7.51,7.51,0,0,1,59.79,43a6.68,6.68,0,0,1,1.38-2.19,6.14,6.14,0,0,1,2.07-1.43,6.69,6.69,0,0,1,2.57-.5,6.39,6.39,0,0,1,1.91.26,7,7,0,0,1,1.43.64l.38-.62h.73l.08,4.53h-.75a13.36,13.36,0,0,0-.47-1.48,5.35,5.35,0,0,0-.74-1.3,3.21,3.21,0,0,0-2.63-1.26,3.78,3.78,0,0,0-1.74.4,3.84,3.84,0,0,0-1.34,1.18,5.65,5.65,0,0,0-.86,1.9,9.81,9.81,0,0,0-.3,2.53,8.73,8.73,0,0,0,.3,2.32,5.86,5.86,0,0,0,.86,1.89,4.14,4.14,0,0,0,1.42,1.28,4,4,0,0,0,1.93.46,4.36,4.36,0,0,0,1.47-.24,2.75,2.75,0,0,0,.93-.52,6.22,6.22,0,0,0,.08-1c0-.32,0-.6,0-.82v-.72a2.06,2.06,0,0,0-.11-.68.73.73,0,0,0-.43-.43,2.89,2.89,0,0,0-.82-.2q-.51-.07-.81-.09v-.67H72Z" fill="#71788a"/><path d="M86.24,52.16H80.86v-.65A5.66,5.66,0,0,0,82,51.33c.31-.1.47-.21.47-.34a1.68,1.68,0,0,0,0-.2,1.08,1.08,0,0,0,0-.21l-1.08-2.91H76.82c-.17.43-.31.8-.42,1.12s-.2.61-.29.87a6.53,6.53,0,0,0-.16.64,2.53,2.53,0,0,0,0,.4c0,.25.19.44.58.57a4.93,4.93,0,0,0,1.29.24v.65H72.9v-.65a3.63,3.63,0,0,0,.59-.11,1.63,1.63,0,0,0,.58-.23,2.08,2.08,0,0,0,.57-.52,3.54,3.54,0,0,0,.39-.74q1-2.43,2.16-5.48c.78-2,1.48-3.83,2.1-5.41H80l4.32,11.17a2.09,2.09,0,0,0,.31.58,2.07,2.07,0,0,0,.48.43,2.26,2.26,0,0,0,.55.21,2.9,2.9,0,0,0,.56.1ZM81,46.86l-2-5-1.94,5Z" fill="#71788a"/><path d="M100.56,39.85a5.16,5.16,0,0,0-.75.11,2.39,2.39,0,0,0-.8.3,1.27,1.27,0,0,0-.43.87,9.08,9.08,0,0,0-.12,1.6v5.64A3.72,3.72,0,0,1,98,50.24a3.88,3.88,0,0,1-1.18,1.3,4.79,4.79,0,0,1-1.52.71,6,6,0,0,1-1.53.22,6.64,6.64,0,0,1-2.08-.31,4.48,4.48,0,0,1-1.53-.83,3.27,3.27,0,0,1-.92-1.19,3.22,3.22,0,0,1-.31-1.4V41.08a1.19,1.19,0,0,0-.11-.53,1,1,0,0,0-.42-.4,2.85,2.85,0,0,0-.59-.21,4.4,4.4,0,0,0-.58-.09V39.2h5.39v.65a4.81,4.81,0,0,0-.64.08,4.7,4.7,0,0,0-.57.14.64.64,0,0,0-.42.36,1.47,1.47,0,0,0-.1.56v7.15A6,6,0,0,0,91,49.23a2.79,2.79,0,0,0,.46,1.06,2.69,2.69,0,0,0,1,.83,3.73,3.73,0,0,0,1.68.31,4.05,4.05,0,0,0,1.69-.31,3,3,0,0,0,1.07-.84,3.16,3.16,0,0,0,.53-1,4.09,4.09,0,0,0,.15-1.09V42.85a7.66,7.66,0,0,0-.14-1.66,1.4,1.4,0,0,0-.43-.84,2.53,2.53,0,0,0-.87-.36,5.83,5.83,0,0,0-.85-.14V39.2h5.3Z" fill="#71788a"/><path d="M113.63,42.72H113a3.58,3.58,0,0,0-.3-.78,6,6,0,0,0-.48-.86,4,4,0,0,0-.6-.73A1.15,1.15,0,0,0,111,40a6.1,6.1,0,0,0-.72-.06l-.79,0H109V50.28a1.26,1.26,0,0,0,.12.55.92.92,0,0,0,.45.39,5.57,5.57,0,0,0,.69.17,6,6,0,0,0,.82.12v.65h-6.12v-.65l.78-.08a3.12,3.12,0,0,0,.73-.13.92.92,0,0,0,.44-.34,1.16,1.16,0,0,0,.14-.6V39.91h-.53l-.7,0c-.28,0-.55,0-.8.06a1.09,1.09,0,0,0-.63.36,4.87,4.87,0,0,0-.6.73,7.37,7.37,0,0,0-.48.87,4.56,4.56,0,0,0-.29.77h-.64V39.2h11.29Z" fill="#71788a"/><path d="M121.82,52.16H116v-.65l.71-.06a2.27,2.27,0,0,0,.65-.11.85.85,0,0,0,.44-.32,1,1,0,0,0,.14-.57V41.06a1.19,1.19,0,0,0-.1-.53.87.87,0,0,0-.48-.36,6.31,6.31,0,0,0-.68-.21,4.9,4.9,0,0,0-.68-.11V39.2h5.83v.65c-.19,0-.41,0-.68.07a4.65,4.65,0,0,0-.68.15.73.73,0,0,0-.47.35,1.26,1.26,0,0,0-.12.55v9.38a1,1,0,0,0,.14.53.89.89,0,0,0,.45.37,4.77,4.77,0,0,0,.62.16,4.92,4.92,0,0,0,.74.1Z" fill="#71788a"/><path d="M138.23,39.85a4.32,4.32,0,0,0-.78.14,3,3,0,0,0-.76.29,1.24,1.24,0,0,0-.44.87,9.38,9.38,0,0,0-.12,1.65v9.48h-.79l-7.85-10.6v6.69a7.61,7.61,0,0,0,.14,1.72,1.61,1.61,0,0,0,.43.86,2.24,2.24,0,0,0,.87.38,6.59,6.59,0,0,0,.87.18v.65h-5.32v-.65a4.35,4.35,0,0,0,.83-.18,2.27,2.27,0,0,0,.74-.29,1.35,1.35,0,0,0,.43-.78,9.16,9.16,0,0,0,.12-1.79V42.09a2.74,2.74,0,0,0-.14-.84,1.54,1.54,0,0,0-.4-.65,2.68,2.68,0,0,0-.89-.52,3.09,3.09,0,0,0-.91-.23V39.2H128l7.28,9.88V42.92a7.64,7.64,0,0,0-.15-1.74,1.39,1.39,0,0,0-.42-.81,3,3,0,0,0-.83-.34,4.37,4.37,0,0,0-.88-.18V39.2h5.26Z" fill="#71788a"/><path d="M152.94,47l-.59.09a2.17,2.17,0,0,0-.6.16.8.8,0,0,0-.38.39,1.38,1.38,0,0,0-.12.59v1c0,.73,0,1.22,0,1.47s0,.47,0,.63a13.14,13.14,0,0,1-2.42.84,9.81,9.81,0,0,1-2.37.3,6.36,6.36,0,0,1-2.39-.47,6,6,0,0,1-2-1.32,6.44,6.44,0,0,1-1.38-2.11,7.28,7.28,0,0,1-.51-2.78,7.72,7.72,0,0,1,.49-2.75,6.68,6.68,0,0,1,1.38-2.19,6.14,6.14,0,0,1,2.07-1.43,6.69,6.69,0,0,1,2.57-.5,6.39,6.39,0,0,1,1.91.26,7,7,0,0,1,1.43.64l.38-.62h.73l.08,4.53h-.75a13.36,13.36,0,0,0-.47-1.48,5.67,5.67,0,0,0-.73-1.3,3.33,3.33,0,0,0-1.1-.91,3.21,3.21,0,0,0-1.54-.35,3.78,3.78,0,0,0-1.74.4,3.93,3.93,0,0,0-1.34,1.18,5.85,5.85,0,0,0-.86,1.9,9.81,9.81,0,0,0-.3,2.53,8.73,8.73,0,0,0,.3,2.32,6.08,6.08,0,0,0,.86,1.89A4.14,4.14,0,0,0,145,51.19a4,4,0,0,0,1.93.46,4.32,4.32,0,0,0,1.47-.24,2.75,2.75,0,0,0,.93-.52,6.22,6.22,0,0,0,.08-1c0-.32,0-.6,0-.82v-.72a2.06,2.06,0,0,0-.11-.68.73.73,0,0,0-.43-.43,2.89,2.89,0,0,0-.82-.2q-.51-.07-.81-.09v-.67h5.68Z" fill="#71788a"/><path d="M29.32,20.05a.19.19,0,0,0-.14.05.16.16,0,0,0-.06.13v3.84a3.5,3.5,0,0,0-1.22,0V20.23a.2.2,0,0,0-.06-.13.19.19,0,0,0-.14-.05,10.38,10.38,0,0,0-8.95,6.26.2.2,0,0,0,.09.24.19.19,0,0,0,.24-.07l.05-.07a.72.72,0,0,1,.21-.16.85.85,0,0,1,.24-.09,2.57,2.57,0,0,1,1,0,1.14,1.14,0,0,1,.36.15,1,1,0,0,1,.26.25.88.88,0,0,1,.17.31,1.11,1.11,0,0,1,0,.41.88.88,0,0,1-.08.26l0,0a1.27,1.27,0,0,1-.11.13l0,0a.24.24,0,0,1,0-.07.85.85,0,0,0-.08-.17.81.81,0,0,0-.23-.22.72.72,0,0,0-.37-.09h0a.9.9,0,0,0-.43.1.75.75,0,0,0-.21.24l0,0a1.19,1.19,0,0,0-.13.29.83.83,0,0,0,0,.3,1,1,0,0,0,.15.42,2.34,2.34,0,0,0,.52.48l.29.16a1.36,1.36,0,0,1,.24.13l.23.14.15.08a.17.17,0,0,0,.1,0h0l1.1-.07a.17.17,0,0,0,.14-.07,16.24,16.24,0,0,0,1-1.72.19.19,0,0,0,0-.19.21.21,0,0,0-.17-.08l-.12,0,.05-.88a.18.18,0,0,0,0-.14.2.2,0,0,0-.13-.06l-.39,0,.47-.14a.17.17,0,0,0,.13-.16l0-.27a.19.19,0,0,0-.1-.18,2.75,2.75,0,0,1-.29-.18l-.18-.16.46-.09a.16.16,0,0,0,.13-.07.18.18,0,0,0,.14,0l.47,0a.86.86,0,0,1-.14.2,2.55,2.55,0,0,1-.24.24.17.17,0,0,0,0,.19l.08.26a.18.18,0,0,0,.16.14l.49,0-.38.11a.23.23,0,0,0-.11.09.17.17,0,0,0,0,.14l.26.85h-.09a.19.19,0,0,0-.15.11.19.19,0,0,0,0,.18,15.13,15.13,0,0,0,1.5,1.68.18.18,0,0,0,.12.05l1.63,0a.19.19,0,0,0,.15-.08c.21-.3.4-.61.51-.77l.08-.13v0l.07-.13c.06-.11.14-.28.23-.46a.19.19,0,0,0-.17-.27l.22-1.18a.17.17,0,0,0,0-.14.15.15,0,0,0-.12-.07L27.48,26a.18.18,0,0,0-.19.09,3.68,3.68,0,0,1-.35.46,1.81,1.81,0,0,1-.32.27c0-.19-.05-.55-.06-.82v-.1c0-.27,0-.63.06-.82a1.81,1.81,0,0,1,.32.27,3.91,3.91,0,0,1,.35.46.18.18,0,0,0,.19.09l.63-.11a.17.17,0,0,0,.15-.15l.07-.34a.2.2,0,0,0-.08-.19c-.16-.11-.31-.24-.35-.27a3.21,3.21,0,0,1-.27-.32h.1l.08,0a3.33,3.33,0,0,1,1.4,0l.08,0h.09a2.36,2.36,0,0,1-.27.32,2.73,2.73,0,0,1-.35.27.18.18,0,0,0-.07.19l.06.34a.17.17,0,0,0,.15.15l.64.11a.19.19,0,0,0,.19-.09,3,3,0,0,1,.35-.46,1.81,1.81,0,0,1,.32-.27,6.44,6.44,0,0,1,.05.82s0,0,0,.05a.43.43,0,0,0,0,.05,6.44,6.44,0,0,1-.05.82,1.81,1.81,0,0,1-.32-.27,2.9,2.9,0,0,1-.35-.46.19.19,0,0,0-.19-.09l-.52.09a.15.15,0,0,0-.12.07.17.17,0,0,0,0,.14l.22,1.18a.19.19,0,0,0-.15.09.17.17,0,0,0,0,.18l.22.46a.92.92,0,0,1,.07.13l0,0,.08.13c.1.16.3.47.51.77a.18.18,0,0,0,.15.08l1.62,0h0a.18.18,0,0,0,.12-.05,15.13,15.13,0,0,0,1.5-1.68.17.17,0,0,0,0-.18.16.16,0,0,0-.15-.11H33l.26-.85a.17.17,0,0,0,0-.14.17.17,0,0,0-.11-.09l-.37-.11.48,0a.19.19,0,0,0,.17-.14l.08-.26a.19.19,0,0,0,0-.19,2.55,2.55,0,0,1-.24-.24,1.29,1.29,0,0,1-.15-.2l.48,0a.16.16,0,0,0,.14-.05.13.13,0,0,0,.12.08l.47.09a2,2,0,0,1-.19.16,2,2,0,0,1-.29.18.18.18,0,0,0-.09.18V26a.18.18,0,0,0,.14.16l.46.14-.38,0a.2.2,0,0,0-.13.06.19.19,0,0,0-.05.14l.06.88-.12,0a.23.23,0,0,0-.18.08.19.19,0,0,0,0,.19,16.27,16.27,0,0,0,1,1.72.29.29,0,0,0,.14.08l1.1.06h0a.16.16,0,0,0,.09,0l.16-.08.23-.14a1.26,1.26,0,0,1,.23-.13A2.69,2.69,0,0,0,36.8,29a2.18,2.18,0,0,0,.53-.48,1,1,0,0,0,.14-.42.81.81,0,0,0,0-.3,1.26,1.26,0,0,0-.14-.29l0,0a.58.58,0,0,0-.21-.24.84.84,0,0,0-.42-.1h0a.71.71,0,0,0-.36.09.61.61,0,0,0-.23.22.37.37,0,0,0-.08.17l0,.07,0,0-.1-.13,0,0a.53.53,0,0,1-.08-.26.93.93,0,0,1,0-.41.84.84,0,0,1,.16-.31,1,1,0,0,1,.26-.25,1.2,1.2,0,0,1,.37-.15,2.37,2.37,0,0,1,.53,0,2.55,2.55,0,0,1,.44.05.69.69,0,0,1,.23.09.72.72,0,0,1,.21.16l.06.07a.19.19,0,0,0,.24.07.19.19,0,0,0,.08-.24A10.35,10.35,0,0,0,29.32,20.05Zm-6.54,6.64h.09l-.06.91a.2.2,0,0,0,.06.15.16.16,0,0,0,.14.05,12.82,12.82,0,0,1-.79,1.29l-1,.06-.11-.07A1.2,1.2,0,0,1,21,29a2,2,0,0,0-.28-.16l-.24-.13a1.79,1.79,0,0,1-.43-.39.5.5,0,0,1-.09-.25.44.44,0,0,1,0-.15.75.75,0,0,1,.1-.2l0-.05a.44.44,0,0,1,.08-.1.51.51,0,0,1,.24-.05h0a.39.39,0,0,1,.2.05s.06.06.1.11a.24.24,0,0,1,0,.07.56.56,0,0,0,.09.17v0a.32.32,0,0,0,.26.16h0a.57.57,0,0,0,.44-.3l0,0a.84.84,0,0,0,.14-.4,1.14,1.14,0,0,0,0-.38c.07.36.14.42.17.44a.22.22,0,0,0,.16.05c.21,0,.52-.42.52-.43S22.7,26.83,22.78,26.69Zm-1.13-.07h0v.07A.24.24,0,0,0,21.65,26.62Zm.32-.83a.86.86,0,0,1,.2.14,3.29,3.29,0,0,1,.31.32.15.15,0,0,0,.12.07.19.19,0,0,0-.1.1,2.79,2.79,0,0,1-.23.38,2,2,0,0,1-.16.19,5,5,0,0,1-.1-.56s0,0,0,0v0A5.55,5.55,0,0,1,22,25.79Zm5.68-.7.29.24,0,.1-.39.07a3.34,3.34,0,0,0-.32-.43s-.44-.45-.69-.45h0a.28.28,0,0,0-.17.07,2.61,2.61,0,0,0-.15,1l-.14,0a.18.18,0,0,0,0,.36l.14,0a2.61,2.61,0,0,0,.15,1,.28.28,0,0,0,.17.07c.25,0,.68-.45.69-.45s.2-.24.33-.43l.2,0-.22,1.21a.19.19,0,0,0,0,.16.18.18,0,0,0,.07.05l-.1.2-.06.13a.48.48,0,0,0-.08.12l-.45.68-1.46,0a14.5,14.5,0,0,1-1.2-1.33.2.2,0,0,0,.12-.08.19.19,0,0,0,0-.15l-.27-.88.09,0,.28.28s.39.32.6.29a.24.24,0,0,0,.15-.08s.1-.13,0-.81l.08,0a.19.19,0,0,0,.13-.2.18.18,0,0,0-.18-.16h-.07c-.1-.67-.19-.75-.22-.78a.25.25,0,0,0-.17,0c-.21,0-.52.41-.52.42a2.32,2.32,0,0,0-.2.34l-.26,0v0a1.54,1.54,0,0,0,.19-.2s.32-.39.3-.6a.24.24,0,0,0-.09-.15s-.11-.09-.7-.05l-.18-.59a.2.2,0,0,0-.2-.13.19.19,0,0,0-.17.17l0,.62c-.58.1-.63.16-.67.21a.2.2,0,0,0,0,.17c0,.21.42.51.42.51l.23.15v0l-.24.07c-.11-.13-.24-.25-.28-.29s-.39-.31-.6-.29a.21.21,0,0,0-.15.09s-.1.13,0,.8l-.07,0a.19.19,0,0,0-.09,0,1.78,1.78,0,0,0-.35-.32,1.57,1.57,0,0,0-.48-.2,2.68,2.68,0,0,0-.62-.05,3.56,3.56,0,0,0-.52.06l-.12,0a10,10,0,0,1,8.16-5.39v3.7c-.16,0-.22.05-.26.1a.24.24,0,0,0-.07.16C27.2,24.65,27.64,25.08,27.65,25.09Zm-2.89,1.42a2.41,2.41,0,0,1-.31-.32.19.19,0,0,0-.12-.07.21.21,0,0,0,.11-.1,3,3,0,0,1,.22-.38,1.31,1.31,0,0,1,.17-.18c0,.15.07.38.09.56a0,0,0,0,1,0,0v0a5.59,5.59,0,0,1,0,.57A2.07,2.07,0,0,1,24.76,26.51ZM36,28.08a.29.29,0,0,0,.25-.17l0,0a.51.51,0,0,0,.08-.17s0-.06,0-.07.06-.1.1-.11a.39.39,0,0,1,.2-.05.54.54,0,0,1,.24.05l.07.1,0,.05a.5.5,0,0,1,.09.2.28.28,0,0,1,0,.15.49.49,0,0,1-.08.25,1.79,1.79,0,0,1-.43.39l-.24.13a1.64,1.64,0,0,0-.29.16,1.6,1.6,0,0,1-.19.11l-.12.07-1-.06A15,15,0,0,1,34,27.8a.18.18,0,0,0,.2-.2l-.06-.91h.1a2.46,2.46,0,0,0,.21.33s.3.4.51.43a.25.25,0,0,0,.17-.05s.09-.08.17-.44a1.5,1.5,0,0,0,0,.38.9.9,0,0,0,.15.4l0,0A.55.55,0,0,0,36,28.08Zm-1.55-1.76a.17.17,0,0,0,.13-.07,3.55,3.55,0,0,1,.3-.32,1,1,0,0,1,.21-.14c0,.16,0,.39,0,.56v0s0,0,0,0c0,.17-.06.4-.1.56l-.17-.19a3,3,0,0,1-.22-.38A.18.18,0,0,0,34.41,26.32Zm.93.38v-.07h0Zm2.18-.9a3.25,3.25,0,0,0-.51-.06,2.81,2.81,0,0,0-.63.05,1.68,1.68,0,0,0-.48.2,1.78,1.78,0,0,0-.35.32l-.08,0-.07,0c.06-.67,0-.77,0-.8a.24.24,0,0,0-.15-.09c-.22,0-.6.29-.6.29a2.69,2.69,0,0,0-.28.29l-.24-.07v0l.23-.15s.4-.3.43-.51a.23.23,0,0,0-.05-.17c0-.05-.1-.11-.68-.21l0-.62a.17.17,0,0,0-.16-.17.2.2,0,0,0-.2.13l-.18.59c-.59,0-.66,0-.71.05a.19.19,0,0,0-.08.15c0,.22.29.6.29.6l.19.2v0l-.25,0a2.14,2.14,0,0,0-.21-.34s-.3-.4-.51-.42A.25.25,0,0,0,32,25s-.13.11-.22.78h-.08a.17.17,0,0,0-.17.16.18.18,0,0,0,.13.2l.07,0c-.06.68,0,.77,0,.81a.28.28,0,0,0,.15.08c.22,0,.6-.29.6-.29l.28-.28.1,0-.27.88a.16.16,0,0,0,0,.15.21.21,0,0,0,.11.08A16.25,16.25,0,0,1,31.54,29l-1.46,0c-.19-.27-.36-.53-.45-.68l-.08-.12s0-.07-.06-.13l-.11-.2a.18.18,0,0,0,.07-.05.19.19,0,0,0,0-.16l-.22-1.21.21,0a4,4,0,0,0,.33.43s.44.45.68.45a.24.24,0,0,0,.17-.07,2.4,2.4,0,0,0,.16-1l.14,0a.18.18,0,0,0,0-.36l-.14,0a2.25,2.25,0,0,0-.16-1,.24.24,0,0,0-.17-.07c-.24,0-.68.45-.68.45a4.28,4.28,0,0,0-.33.43l-.39-.07,0-.1.3-.24s.44-.44.44-.69a.2.2,0,0,0-.07-.16s-.1-.08-.25-.1v-3.7a10.08,10.08,0,0,1,8.16,5.39Zm-4.83.32a.21.21,0,0,0-.13.07,2.51,2.51,0,0,1-.3.32,1.27,1.27,0,0,1-.21.14c0-.15,0-.39,0-.56,0,0,0,0,0,0a0,0,0,0,0,0,0c0-.18.07-.41.1-.56a1.31,1.31,0,0,1,.17.18,3,3,0,0,1,.22.38A.18.18,0,0,0,32.69,26.12Z" fill="#71788a"/><path d="M40.93,26l-.65-.2h0l-.18-.06,0,0a.3.3,0,0,0,0-.27.41.41,0,0,0,0-.09h0a.16.16,0,0,0-.12-.12,2.35,2.35,0,0,1-.38-.15,2.53,2.53,0,0,1,.22-.35.2.2,0,0,0,0-.17h0a.43.43,0,0,0,0-.11c-.08-.24-.42-.24-.73-.14a1.13,1.13,0,0,0-.27.13c-.12-.2-.24-.4-.37-.59l.11-.07a1,1,0,0,0,.29-.28.34.34,0,0,0,0-.39L38.77,23h0a.16.16,0,0,0-.14-.08,1.7,1.7,0,0,1-.41-.05,2,2,0,0,1,.12-.39.21.21,0,0,0,0-.17h0a.18.18,0,0,0,0-.1c-.14-.21-.47-.13-.74.05a1.24,1.24,0,0,0-.21.18c-.21-.23-.42-.45-.64-.65a1.8,1.8,0,0,0,.2-.19,1,1,0,0,0,.21-.34.33.33,0,0,0-.06-.39.19.19,0,0,0-.09-.05h0a.18.18,0,0,0-.16,0,1.93,1.93,0,0,1-.4.06,1.87,1.87,0,0,1,0-.4.19.19,0,0,0-.06-.16h0l-.06-.08a.34.34,0,0,0-.4,0,1.14,1.14,0,0,0-.31.25,1.21,1.21,0,0,0-.19.29c-.27-.19-.56-.37-.84-.54a1.58,1.58,0,0,0,.15-.24c.15-.29.19-.63,0-.75l-.1,0h0a.25.25,0,0,0-.17,0,2.16,2.16,0,0,1-.37.17,2.19,2.19,0,0,1-.1-.4.15.15,0,0,0-.1-.13h0a.16.16,0,0,0-.08-.06.31.31,0,0,0-.38.09,1.16,1.16,0,0,0-.24.32,1.57,1.57,0,0,0-.1.28c-.27-.11-.55-.21-.82-.29a2.3,2.3,0,0,0,.12-.34,1.09,1.09,0,0,0,0-.4c0-.23-.18-.29-.25-.3a.2.2,0,0,0-.11,0h0a.17.17,0,0,0-.16,0,2.34,2.34,0,0,1-.31.26,2.54,2.54,0,0,1-.2-.36.16.16,0,0,0-.13-.11h0l-.1,0a.33.33,0,0,0-.34.19,1,1,0,0,0-.15.37,2.64,2.64,0,0,0,0,.29c-.32,0-.65-.1-1-.12v-.11a.13.13,0,0,0,0-.06,1.37,1.37,0,0,0,.42-1h0a1.4,1.4,0,0,0-.55-1.1v-.5h.84a.18.18,0,0,0,.18-.18V14.36a.19.19,0,0,0-.18-.19h-.84v-.83a.2.2,0,0,0-.19-.19H27.85a.19.19,0,0,0-.18.19v.83h-.84a.19.19,0,0,0-.18.19v1.31a.18.18,0,0,0,.18.18h.84v.5a1.37,1.37,0,0,0-.55,1.1h0a1.4,1.4,0,0,0,.41,1v.17c-.33,0-.66.07-1,.12a1.36,1.36,0,0,0,0-.29c-.05-.27-.19-.55-.42-.57H26l-.09,0h0a.19.19,0,0,0-.14.11,3,3,0,0,1-.19.36,3.64,3.64,0,0,1-.32-.26.16.16,0,0,0-.16,0h0a.2.2,0,0,0-.11,0c-.07,0-.2.07-.24.3a1.09,1.09,0,0,0,0,.4,1.16,1.16,0,0,0,.12.34c-.28.08-.55.18-.83.29a1,1,0,0,0-.1-.28,1,1,0,0,0-.23-.32c-.18-.16-.32-.13-.38-.09a.24.24,0,0,0-.09.06h0a.17.17,0,0,0-.1.13,2.5,2.5,0,0,1-.09.4,2.16,2.16,0,0,1-.37-.17.25.25,0,0,0-.17,0h0l-.1,0c-.23.12-.19.46-.05.75l.16.24c-.29.17-.57.35-.85.54a.81.81,0,0,0-.19-.29.9.9,0,0,0-.31-.25.32.32,0,0,0-.39,0,.16.16,0,0,0-.06.08h0a.17.17,0,0,0-.06.16,3,3,0,0,1,0,.4,1.93,1.93,0,0,1-.4-.06.21.21,0,0,0-.17,0h0l-.09.05a.34.34,0,0,0-.06.39,1.26,1.26,0,0,0,.21.34,1.29,1.29,0,0,0,.21.19,7.86,7.86,0,0,0-.64.65,1.24,1.24,0,0,0-.21-.18c-.27-.18-.61-.26-.75-.05a.3.3,0,0,0,0,.1h0a.17.17,0,0,0,0,.17,2.56,2.56,0,0,1,.11.39,1.5,1.5,0,0,1-.4.05.19.19,0,0,0-.15.08h0a.27.27,0,0,0-.08.07.34.34,0,0,0,0,.39,1,1,0,0,0,.3.28l.11.07c-.13.19-.25.39-.38.59A.85.85,0,0,0,18,24.3c-.3-.1-.65-.1-.73.14a.41.41,0,0,0,0,.11h0a.18.18,0,0,0,0,.16,3.33,3.33,0,0,1,.21.35,2,2,0,0,1-.38.15.2.2,0,0,0-.12.12h0a.41.41,0,0,0-.05.09.3.3,0,0,0,.05.27l0,0-.18.06-.65.2a.2.2,0,0,0-.14.18.19.19,0,0,0,.14.18,4,4,0,0,1,.55.18,2.2,2.2,0,0,1,.47.27,2.82,2.82,0,0,1,.54.46,2,2,0,0,1,.3.47,2.37,2.37,0,0,1,.21.59,3.46,3.46,0,0,1,.07.48.77.77,0,0,0,0,.15c0,.08,0,.17,0,.27a.94.94,0,0,0,.09.63v.37a.69.69,0,0,0-.16.43.72.72,0,0,0,.16.44V32c0,.21.26.31.94.42.51.08,1.24.15,2.16.21,1.9.12,4.41.19,7.09.19s5.19-.07,7.08-.19q1.39-.09,2.16-.21c.71-.11,1-.22,1-.44v-.93a.71.71,0,0,0,.15-.44.68.68,0,0,0-.15-.43v-.37a.94.94,0,0,0,.08-.63,1.26,1.26,0,0,1,0-.27c0-.05,0-.1,0-.15a2.41,2.41,0,0,1,.07-.48,2.39,2.39,0,0,1,.2-.59,2,2,0,0,1,.31-.47,2.74,2.74,0,0,1,.53-.46,2.48,2.48,0,0,1,.47-.27,4,4,0,0,1,.56-.18.18.18,0,0,0,.13-.18A.19.19,0,0,0,40.93,26ZM28.05,18.37l0,0a1,1,0,0,1-.53-.81v-.19s0-.06,0-.08v0a1,1,0,0,1,2,0v0s0,.05,0,.08a.17.17,0,0,0,0,.07v.06a.13.13,0,0,1,0,.06,1,1,0,0,1-.52.81l0,0a1,1,0,0,1-.46.11A1,1,0,0,1,28.05,18.37Zm-1-2.89v-.94h.83a.18.18,0,0,0,.19-.18v-.84H29v.84a.18.18,0,0,0,.18.18H30v.94h-.84a.19.19,0,0,0-.18.19v.49a1.27,1.27,0,0,0-.47-.09,1.23,1.23,0,0,0-.47.09v-.49a.19.19,0,0,0-.19-.19ZM18.69,31a.19.19,0,0,0-.05-.09.35.35,0,0,1-.09-.16.31.31,0,0,1,0-.1v0a.38.38,0,0,1,.1-.2.16.16,0,0,0,.05-.11.79.79,0,0,1,.56-.22.58.58,0,1,1,0,1.13A.79.79,0,0,1,18.69,31Zm9.82,1.5a71.82,71.82,0,0,1-9.33-.42h.31a87.45,87.45,0,0,1,9.08-.38c3.9,0,6.88.15,8.69.34a5.47,5.47,0,0,1,.7,0A69.59,69.59,0,0,1,28.51,32.49Zm9.86-1.85a.67.67,0,1,1-.66-.56A.63.63,0,0,1,38.37,30.64Zm1.85-4.45a3.12,3.12,0,0,0-.53.3,3.58,3.58,0,0,0-.6.53,2.31,2.31,0,0,0-.36.54,3.27,3.27,0,0,0-.23.67,3.4,3.4,0,0,0-.08.53s0,.1,0,.15a2,2,0,0,0,0,.35c0,.19,0,.32,0,.4a.2.2,0,0,0,0,.13V30a1.09,1.09,0,0,0-.62-.2.88.88,0,1,0,0,1.74,1.08,1.08,0,0,0,.62-.19v.47a3.91,3.91,0,0,0-.76-.15c-.5-.06-1.21-.11-2.11-.16-1.84-.1-4.29-.15-6.89-.15s-5,.05-6.88.15c-.9.05-1.61.1-2.11.16a2.34,2.34,0,0,0-.89.22v-.52a1,1,0,0,0,.58.17.88.88,0,1,0,0-1.74,1,1,0,0,0-.58.18v-.16a.28.28,0,0,0,0-.13c-.08-.08-.07-.21,0-.4a1.36,1.36,0,0,0,0-.35c0-.05,0-.1,0-.15a5.24,5.24,0,0,0-.08-.53,4,4,0,0,0-.23-.67,2.7,2.7,0,0,0-.37-.54,3.48,3.48,0,0,0-.59-.53,2.86,2.86,0,0,0-.54-.3h0l.09,0,.2-.08c.09,0,.18-.07.27-.09l.08,0a.18.18,0,0,0,.15-.16.19.19,0,0,0-.11-.19l-.14-.07c.4-.14.5-.23.54-.34s0-.21-.22-.59h0a.84.84,0,0,1,.23,0,.49.49,0,0,1,.26.15.2.2,0,0,0,.16.12.18.18,0,0,0,.17-.1c.2-.33.4-.66.62-1a.2.2,0,0,0,0-.17.19.19,0,0,0-.14-.12.64.64,0,0,1-.23-.1,1,1,0,0,1-.18-.16c.42,0,.54-.09.6-.19s.09-.19-.06-.63a.89.89,0,0,1,.22.11.54.54,0,0,1,.21.21.17.17,0,0,0,.13.14.19.19,0,0,0,.19-.05,12.17,12.17,0,0,1,1-1,.2.2,0,0,0,0-.25.2.2,0,0,0-.21-.07.6.6,0,0,1-.23-.18.73.73,0,0,1-.13-.2c.41.08.55,0,.63,0s.13-.21.1-.62a.55.55,0,0,1,.19.15.54.54,0,0,1,.14.26.21.21,0,0,0,0,.19l0,0a.18.18,0,0,0,.25,0,13.62,13.62,0,0,1,1.3-.83.19.19,0,0,0-.08-.35h0a.63.63,0,0,1-.18-.23,1,1,0,0,1-.07-.23c.37.19.51.19.61.14s.18-.12.27-.57a.76.76,0,0,1,.13.2.66.66,0,0,1,.08.28.19.19,0,0,0,0,.18.16.16,0,0,0,.1.11.19.19,0,0,0,.15,0,11.29,11.29,0,0,1,1.34-.48.18.18,0,0,0,.12-.22v-.05a.18.18,0,0,0-.14-.14.73.73,0,0,1-.11-.27.67.67,0,0,1,0-.24c.31.27.45.32.56.3s.22-.12.4-.49a.6.6,0,0,1,.08.22.69.69,0,0,1,0,.3.18.18,0,0,0-.07.19h0a.19.19,0,0,0,.22.14A13.27,13.27,0,0,1,27.72,19a.18.18,0,0,0,.18-.18v-.08a1.4,1.4,0,0,0,1.22,0v.08a.18.18,0,0,0,.17.18,13.11,13.11,0,0,1,1.42.19.19.19,0,0,0,.22-.14h0a.18.18,0,0,0-.07-.19.56.56,0,0,1,0-.3.6.6,0,0,1,.08-.22c.18.37.29.46.4.49s.25,0,.56-.3a1.15,1.15,0,0,1,0,.24.58.58,0,0,1-.11.27.2.2,0,0,0-.14.14v.05a.2.2,0,0,0,.13.22,12.72,12.72,0,0,1,1.34.48.19.19,0,0,0,.15,0,.2.2,0,0,0,.1-.12.17.17,0,0,0,0-.17.57.57,0,0,1,.07-.28.74.74,0,0,1,.14-.2c.09.45.18.53.26.57s.25,0,.62-.14a.7.7,0,0,1-.08.23.53.53,0,0,1-.18.23.17.17,0,0,0-.17.13.17.17,0,0,0,.08.22,13.76,13.76,0,0,1,1.31.83.17.17,0,0,0,.24,0l0,0a.17.17,0,0,0,0-.19.73.73,0,0,1,.15-.26.66.66,0,0,1,.18-.15c0,.41,0,.54.11.62s.22.1.63,0a.82.82,0,0,1-.14.2.53.53,0,0,1-.23.18.21.21,0,0,0-.21.07.2.2,0,0,0,0,.25,10.91,10.91,0,0,1,1,1,.17.17,0,0,0,.18.05.18.18,0,0,0,.14-.14s.06-.12.2-.21a1.1,1.1,0,0,1,.22-.11c-.15.44-.11.56-.06.63s.19.16.6.19a.9.9,0,0,1-.17.16.68.68,0,0,1-.24.1.2.2,0,0,0-.13.12.15.15,0,0,0,0,.17c.21.31.42.64.61,1a.19.19,0,0,0,.17.1.17.17,0,0,0,.16-.12.61.61,0,0,1,.26-.15.85.85,0,0,1,.24,0c-.26.38-.25.5-.22.59s.14.2.53.34l-.13.07a.18.18,0,0,0-.11.19.18.18,0,0,0,.15.16l.08,0,.27.09.19.08.1,0Z" fill="#71788a"/><path d="M28.51,29.4c-.74,0-1.3.35-1.3.82s.56.81,1.3.81,1.3-.35,1.3-.81S29.25,29.4,28.51,29.4Zm0,1.39c-.6,0-1-.35-1-.57s.39-.58,1-.58,1,.35,1,.58S29.09,30.79,28.5,30.79Z" fill="#71788a"/><path d="M26.2,29.68c-.41,0-.71.19-.71.47s.3.47.71.47.7-.2.7-.47S26.61,29.68,26.2,29.68Z" fill="#71788a"/><path d="M30.82,29.68c-.41,0-.71.19-.71.47s.3.47.71.47.71-.2.71-.47S31.23,29.68,30.82,29.68Z" fill="#71788a"/><ellipse cx="21.7" cy="30.45" rx="0.71" ry="0.47" fill="#71788a"/><path d="M35.32,30c-.41,0-.71.2-.71.47s.3.47.71.47.71-.19.71-.47S35.73,30,35.32,30Z" fill="#71788a"/><path d="M24.62,30l-.27-.23a.54.54,0,0,0-.66,0l-.27.23a.4.4,0,0,0-.16.31.42.42,0,0,0,.16.32l.27.22a.49.49,0,0,0,.33.11.51.51,0,0,0,.33-.11l.27-.22a.41.41,0,0,0,.15-.32A.39.39,0,0,0,24.62,30Zm-.16.35-.32.27a.21.21,0,0,1-.24,0l-.32-.27s0,0,0,0a.05.05,0,0,1,0,0L23.9,30a.16.16,0,0,1,.12,0,.17.17,0,0,1,.12,0l.32.26a.08.08,0,0,1,0,0A.05.05,0,0,1,24.46,30.32Z" fill="#71788a"/><path d="M33.6,30l-.27-.23a.54.54,0,0,0-.66,0L32.4,30a.4.4,0,0,0-.16.31.42.42,0,0,0,.16.32l.27.22a.55.55,0,0,0,.66,0l.27-.22a.41.41,0,0,0,.15-.32A.39.39,0,0,0,33.6,30Zm-.19.35-.3.25a.18.18,0,0,1-.22,0l-.31-.25,0,0s0,0,0,0l.31-.25a.22.22,0,0,1,.22,0l.3.25s0,0,0,0A.05.05,0,0,1,33.41,30.32Z" fill="#71788a"/></svg>