<svg id="ff56db9d-85a3-4d6f-be04-d4a7436889ba" data-name="a3d654c0-c6ba-4758-aae6-2f6a3e78a106" xmlns="http://www.w3.org/2000/svg" viewBox="0 0 135 70"><path d="M122.11,27.16a6.94,6.94,0,0,0-.08-.77A4.85,4.85,0,0,0,120.65,24a4.49,4.49,0,0,0-3.14-1.33h-100a3.14,3.14,0,0,0-1,.1,4.89,4.89,0,0,0-3,2.18,4.35,4.35,0,0,0-.71,2.21c0,.15,0,.29,0,.43,0,5.07,0,10.13,0,15.19a1.7,1.7,0,0,0,0,.22,4.81,4.81,0,0,0,1.87,3.24,4.73,4.73,0,0,0,3.11,1h99.26a5.4,5.4,0,0,0,1.06-.07A4.89,4.89,0,0,0,121,45.59a4.29,4.29,0,0,0,1.11-2.37,3.1,3.1,0,0,1,0-.43ZM34.5,34.7c0,.82,0,1.64,0,2.46a7.48,7.48,0,0,1-.17,1.49,3.19,3.19,0,0,1-2.17,2.45,7.84,7.84,0,0,1-1.79.39A18.87,18.87,0,0,1,28,41.6H23.37A15.14,15.14,0,0,1,21,41.42a9.6,9.6,0,0,1-1.2-.31,3.24,3.24,0,0,1-2.16-2.36,9.24,9.24,0,0,1-.28-2.28c0-.89,0-1.79,0-2.68,0-.69,0-1.39.05-2.08a7.49,7.49,0,0,1,.31-1.7,3.14,3.14,0,0,1,2-2.1,7.94,7.94,0,0,1,1.87-.43,16.4,16.4,0,0,1,2.1-.09c1.71,0,3.41,0,5.11,0a11.55,11.55,0,0,1,2.81.33,5.11,5.11,0,0,1,.93.32,3.07,3.07,0,0,1,1.78,2.26,9.17,9.17,0,0,1,.15,1.48c0,.15,0,.15-.14.15H32.91c-.11,0-.14,0-.14-.13a5.21,5.21,0,0,0-.1-1.11A2,2,0,0,0,31.08,29a6.35,6.35,0,0,0-1-.16c-.44,0-.88-.05-1.32-.05H23.8c-.64,0-1.29,0-1.93.05a5.11,5.11,0,0,0-1.39.27,1.72,1.72,0,0,0-1.07,1.08,4.5,4.5,0,0,0-.23,1.09,14.81,14.81,0,0,0-.07,1.63c0,1.06,0,2.12,0,3.19a14.46,14.46,0,0,0,.07,1.47,6.91,6.91,0,0,0,.15.91A1.88,1.88,0,0,0,20.8,40a7.52,7.52,0,0,0,.95.15q.7.06,1.41.06h4.73c.56,0,1.12,0,1.68,0a6.79,6.79,0,0,0,1.61-.22l.21-.06a1.8,1.8,0,0,0,1.23-1.34,5.44,5.44,0,0,0,.15-1.27c0-.39,0-.79,0-1.18,0-.16,0-.16-.16-.16H28.3c-.2,0-.16,0-.21.17a2.72,2.72,0,0,1-.13.49,1.5,1.5,0,0,1-.16.34.38.38,0,0,1-.37.17,2.32,2.32,0,0,1-.74-.2,3.43,3.43,0,0,1-1.47-1.25.76.76,0,0,1,.1-1.15,3.42,3.42,0,0,1,2-1l.25,0a.39.39,0,0,1,.41.22,1.8,1.8,0,0,1,.18.64c0,.2,0,.2.24.2h5.87C34.52,34.49,34.5,34.45,34.5,34.7Zm23.31,6.62H56.47c-.22,0-.19,0-.19-.19V35.6a10.19,10.19,0,0,0-.08-1.35,3.86,3.86,0,0,0-.1-.49,1.84,1.84,0,0,0-1.33-1.32,4.44,4.44,0,0,0-1.14-.18,10.31,10.31,0,0,0-2.42.1,4.27,4.27,0,0,0-1.1.35,2.06,2.06,0,0,0-1.17,1.56,4.37,4.37,0,0,0-.06.72v6.18c0,.15,0,.15-.16.15H47.34c-.19,0-.18,0-.18-.18V37.3c0-.66,0-1.32,0-2a9.37,9.37,0,0,0-.11-1.3,1.92,1.92,0,0,0-1.54-1.62,4.25,4.25,0,0,0-.87-.13,9.76,9.76,0,0,0-2.75.13,4.67,4.67,0,0,0-.8.26,2.09,2.09,0,0,0-1.29,1.77,4.44,4.44,0,0,0,0,.63v6c0,.25,0,.22-.22.22H38.2c-.15,0-.15,0-.15-.15a.28.28,0,0,1,0-.09V31.33a.48.48,0,0,0,0-.12c0-.11,0-.12.14-.12h1.44c.14,0,.14,0,.14.14v1.35a3.39,3.39,0,0,1,1.86-1.38,5.2,5.2,0,0,1,.77-.22,10.77,10.77,0,0,1,2.89-.14,6.21,6.21,0,0,1,1.58.3,2.62,2.62,0,0,1,1.61,1.41.22.22,0,0,0,.05.08h0a4,4,0,0,1,2.15-1.44,7.11,7.11,0,0,1,2-.35A12.42,12.42,0,0,1,55,30.9a5.43,5.43,0,0,1,1.12.29,2.62,2.62,0,0,1,1.69,1.93,6.37,6.37,0,0,1,.19,1.3c0,.41,0,.83,0,1.24v5.47C58,41.32,58,41.32,57.81,41.32Zm15.77,0H72.26c-.16,0-.16,0-.16-.16V39.8c-.07,0-.08,0-.11.07a4.2,4.2,0,0,1-.48.55,3.81,3.81,0,0,1-1.45.76,7.7,7.7,0,0,1-2.29.34,17.1,17.1,0,0,1-2.26-.11A7.73,7.73,0,0,1,64,41.1a3.52,3.52,0,0,1-2.47-2.65,8.79,8.79,0,0,1-.24-2,10.24,10.24,0,0,1,.2-2.41A4.23,4.23,0,0,1,62,32.68a3.52,3.52,0,0,1,2-1.46,7.62,7.62,0,0,1,1.58-.31,19.4,19.4,0,0,1,3.05-.08,9.21,9.21,0,0,1,2.09.34,2.67,2.67,0,0,1,1.36.82.54.54,0,0,0,0-.24V27.81c0-.14,0-.15.15-.15h1.42c.15,0,.15,0,.15.15V41.08C73.82,41.36,73.86,41.32,73.58,41.32Zm44.24,4.81a5.51,5.51,0,0,1-.81,0H78.48c-.24,0-.21,0-.21-.21V23.91c0-.11,0-.14.13-.13h38.79a3.84,3.84,0,0,1,3.6,2.47,3.78,3.78,0,0,1,.25,1.37v14.7A3.84,3.84,0,0,1,117.82,46.13Z" fill="#71788a"/><path d="M108.1,31.56V27.83a.66.66,0,0,0,0-.14c0-.06,0-.09.09-.09h1.34c.07,0,.1,0,.09.09v6.53c0,.24,0,.21-.2.21h-.91a.25.25,0,0,1-.26-.15,31.17,31.17,0,0,0-2-3.14c-.27-.37-.56-.73-.86-1.08a.09.09,0,0,0-.09-.06v4.32c0,.08,0,.11-.1.1h-1.26c-.16,0-.16,0-.16-.16V27.81c0-.24,0-.21.2-.21h.87a.36.36,0,0,1,.32.14c.42.45.8.92,1.18,1.4.57.74,1.11,1.5,1.63,2.27l.11.16Z" fill="#71788a"/><path d="M100.26,27.6h1.44c.07,0,.09,0,.09.09a.48.48,0,0,0,0,.12V31.9a3.72,3.72,0,0,1-.11.88A2.23,2.23,0,0,1,100,34.44a3.88,3.88,0,0,1-2,0,2.26,2.26,0,0,1-1.78-2,4.58,4.58,0,0,1,0-.64V27.71c0-.09,0-.11.11-.11h1.3c.11,0,.13,0,.12.14v.76c0,1.11,0,2.21,0,3.31a1.82,1.82,0,0,0,.13.73,1,1,0,0,0,.81.66,1.6,1.6,0,0,0,.72,0,1.13,1.13,0,0,0,.82-1.1c0-.2,0-.4,0-.59V27.6Z" fill="#71788a"/><path d="M111.36,42.44c.16-.31.32-.57.49-.84.53-.85,1.13-1.66,1.72-2.47.14-.19.14-.12,0-.31l-2-3-.12-.19a.26.26,0,0,1,.17,0h1.52a.28.28,0,0,1,.25.14l1.11,1.69.08.12c.07,0,.09-.08.12-.12.38-.56.76-1.12,1.13-1.69a.27.27,0,0,1,.25-.14h1.44s.09,0,.13,0a.23.23,0,0,1-.07.14l-2,3c-.13.19-.11.14,0,.29a21.84,21.84,0,0,1,2.11,3.2.54.54,0,0,1,.08.19h-.27c-.46,0-.92,0-1.38,0a.24.24,0,0,1-.25-.16c-.17-.35-.36-.69-.56-1a4,4,0,0,0-.77-1,.49.49,0,0,0-.14.15,9.38,9.38,0,0,0-1.23,1.82.23.23,0,0,1-.27.16Z" fill="#71788a"/><path d="M85.58,29.13l-.52-.21a2.77,2.77,0,0,0-1.51-.1.55.55,0,0,0-.47.69.58.58,0,0,0,.25.36,1.94,1.94,0,0,0,.47.25c.41.15.82.29,1.21.47a4.42,4.42,0,0,1,.6.34A1.71,1.71,0,0,1,86.3,32a2.69,2.69,0,0,1,0,1,1.7,1.7,0,0,1-1,1.26,3.21,3.21,0,0,1-1.14.26A5.63,5.63,0,0,1,82,34.33a3.76,3.76,0,0,1-.55-.23c-.07,0-.09-.08-.06-.15l.39-1.11c.06,0,.1,0,.14,0a4,4,0,0,0,2.09.35,1,1,0,0,0,.34-.09.63.63,0,0,0,.22-1,1.48,1.48,0,0,0-.39-.26,7.28,7.28,0,0,0-.77-.31,6.91,6.91,0,0,1-.85-.35,2.26,2.26,0,0,1-.52-.35,1.74,1.74,0,0,1-.55-1.06A1.92,1.92,0,0,1,83,27.57a4.16,4.16,0,0,1,2.86.28c.13.06.13.06.08.2C85.84,28.41,85.71,28.76,85.58,29.13Z" fill="#71788a"/><path d="M84.29,35.61H87c.17,0,.16,0,.16.16v1c0,.14,0,.14-.14.14H85.16c-.07,0-.11,0-.11.1a.57.57,0,0,1,0,.13v5.16q0,.13-.12.12H83.69c-.19,0-.17,0-.17-.16V37.14c0-.24,0-.21-.21-.21H81.6c-.14,0-.14,0-.14-.14v-1c0-.19,0-.18.17-.18Z" fill="#71788a"/><path d="M94.4,29.89a3.07,3.07,0,0,0-2.11-2.27,3.55,3.55,0,0,0-1.65-.14A3.07,3.07,0,0,0,88,29.55a4.14,4.14,0,0,0,0,3,2.92,2.92,0,0,0,2,1.87,3.92,3.92,0,0,0,2.25,0,2.92,2.92,0,0,0,2-1.81A4,4,0,0,0,94.52,31,3.8,3.8,0,0,0,94.4,29.89ZM92.78,32A1.69,1.69,0,0,1,91,33.21a1.62,1.62,0,0,1-1.46-1,2.94,2.94,0,0,1-.22-1.55,2.5,2.5,0,0,1,.23-.85,1.75,1.75,0,0,1,2.68-.62,2,2,0,0,1,.62,1.09A3.38,3.38,0,0,1,92.78,32Z" fill="#71788a"/><path d="M117.63,30.28a2.91,2.91,0,0,0-2.27-2.57,6.76,6.76,0,0,0-2-.18,10.87,10.87,0,0,0-1.51.14c-.08,0-.11,0-.1.11V34.2c0,.15,0,.15.15.18a9.88,9.88,0,0,0,1.63.15,5.79,5.79,0,0,0,2-.24,2.93,2.93,0,0,0,2.06-2.06A4.59,4.59,0,0,0,117.63,30.28ZM116,31.74a1.8,1.8,0,0,1-1.5,1.41,5.61,5.61,0,0,1-1.16.05c-.1,0-.11,0-.11-.13V29c0-.17,0-.18.16-.18a4.82,4.82,0,0,1,1.14,0A1.68,1.68,0,0,1,116,30.27,3.17,3.17,0,0,1,116,31.74Z" fill="#71788a"/><path d="M95.21,39.66v0l.16-.08a1.79,1.79,0,0,0,1.05-1.33,3.19,3.19,0,0,0,0-.69,1.86,1.86,0,0,0-1.13-1.64,4.11,4.11,0,0,0-1.46-.35,11.15,11.15,0,0,0-2.38.12c-.2,0-.2,0-.2.25v6.41c0,.08,0,.11.11.11h1.32c.1,0,.11,0,.11-.12V40.07c0-.09,0-.13.11-.13a5.23,5.23,0,0,0,.56,0,.18.18,0,0,1,.16.09c.13.18.26.35.38.53a17.77,17.77,0,0,1,1,1.74.23.23,0,0,0,.25.14h1.38a.31.31,0,0,0,.16,0A15.43,15.43,0,0,0,95.21,39.66Zm-.4-1.51a.71.71,0,0,1-.37.39,2,2,0,0,1-.49.14,7,7,0,0,1-1,0c-.06,0-.1,0-.1-.08V36.89a3.39,3.39,0,0,1,1.42.07A.84.84,0,0,1,94.81,38.15Z" fill="#71788a"/><path d="M107.56,42.31c-.41-1.16-.82-2.32-1.28-3.46s-.85-2.06-1.32-3.07a.24.24,0,0,0-.26-.17h-1.1a.25.25,0,0,0-.27.17c-.09.23-.2.44-.3.66-.83,1.84-1.54,3.73-2.21,5.64,0,.11-.07.23-.12.36h1.51c.08,0,.1,0,.12-.1.13-.41.27-.81.41-1.21.05-.16,0-.16.22-.16h2.34a.18.18,0,0,1,.21.14c.13.41.27.81.41,1.21,0,.07,0,.13.14.12h1.54A1,1,0,0,0,107.56,42.31Zm-4.41-2.57c.31-.85.64-1.69,1-2.55.16.29.87,2.19,1,2.53A16.47,16.47,0,0,1,103.15,39.74Z" fill="#71788a"/><path d="M69,35.42a.64.64,0,0,0,0,1.28.62.62,0,0,0,.62-.64A.64.64,0,0,0,69,35.42Z" fill="#71788a"/><path d="M66.09,35.42a.64.64,0,0,0-.64.64.63.63,0,0,0,.65.64.62.62,0,0,0,.62-.64A.64.64,0,0,0,66.09,35.42Z" fill="#71788a"/><path d="M67.54,34a.64.64,0,1,0,0,1.27.63.63,0,0,0,.65-.62A.64.64,0,0,0,67.54,34Z" fill="#71788a"/><path d="M67.56,32.25a3.82,3.82,0,1,0,3.82,3.82A3.83,3.83,0,0,0,67.56,32.25Zm.89,6.39c-.11,0-.15,0-.21-.07a.82.82,0,0,0-1.42,0c-.07.11-.12.1-.22.07a2.75,2.75,0,0,1-1.77-2.8,2.74,2.74,0,0,1,5.43-.16c0,.12,0,.26,0,.38A2.74,2.74,0,0,1,68.45,38.64Z" fill="#71788a"/></svg>