<svg id="b5b345ed-18ad-4584-afff-5ad79f8d1547" data-name="Layer 1" xmlns="http://www.w3.org/2000/svg" viewBox="0 0 175 70"><path d="M108.63,23.33c-1.92-2-5.29-3.16-8.78-3,3.19-.76,4.62-3.3,5.31-6.56A29.25,29.25,0,0,1,98,15.61a10.1,10.1,0,0,0,2.89-7.33c-1.33.22-2.34,1.58-3.66,2.12-.08-1.18.38-2.3.09-3.38-2.34.33-3.43,1.91-4.92,3.09a9.78,9.78,0,0,0-.77-5.31c-2.14,1.5-4.4,2.87-5,5.89C86,7.75,83.92,6.19,81.71,4.8A11.69,11.69,0,0,1,81.23,8c-.8-.55-1.39-1.32-2.22-1.84A16.67,16.67,0,0,0,78,12a8.87,8.87,0,0,0-5.41-1.83c.69,1.95,1.81,3.47,2.61,5.3-1.6-.17-3.3-.75-5-.48a4.16,4.16,0,0,1,.39,1.06c-.74-.06-1.26.1-1.93.1.16.93,1.07,1.95,1.54,2.89-.54.26-1.52.09-1.93.49.9,2.5,2.9,3.92,5.6,4.63a9.56,9.56,0,0,0-4.63,1.35,21,21,0,0,0-2.8,1.16c.8.74,1.86,1.23,2.6,2-.52.38-1.27.53-1.64,1.06,1.58,1.13,4.51.9,6.86,1.26-1,1.84-2.64,3-3,5.5.32,0,.84-.13.87.19-.21.74-.82,1.54-.77,2.22,2.42-.38,4-1.6,5.69-2.7-.92,1.57-.59,3.86-.38,6,.34-.05.23.34.58.29,1.38-.83,2.55-2.4,3.57-3.28a34,34,0,0,1-.29,6c1-.14,1.52-1.29,2.12-2.12a30.61,30.61,0,0,0,1.83-2.7,62.24,62.24,0,0,0,1.93,6.85c.49-.38.7-1,1.45-1.16a18.59,18.59,0,0,0,1.64-4.63c.49.73,1,1.19,1.64,2,.3.36,1.34,2.07,1.74,2,.64-.08,1.27-3.13,1.35-4.24a9.49,9.49,0,0,0-1-4.54c2.15,1.36,3,4,6.27,4.25-.15-2.58-1.57-4.42-1.83-6.56,2.12,1,5.56,3.19,8.3,1.44-.12-2.48-2.34-3.38-3.19-4.82,2.21-.17,4.17-.6,5.12-2-.5-1.24-2-1.51-2.61-2.6a13.69,13.69,0,0,0,2.9-1.93C108,23.8,108.52,23.76,108.63,23.33Zm-13.31.39a1.13,1.13,0,0,0,.57.86c-.08.31-.49.28-.57.58.4.5,1.51.29,1.83.87a3.71,3.71,0,0,0-2,.39c-.17,1.2.63,1.43,1.06,2-.17.24-.57-.13-1,0,.49,1,1.89,1.57,2,2.61-1.11.05-1.41-1.48-2.42-1.84-.24,0-.3.16-.48.2,0,.67.42.87.39,1.54a3.15,3.15,0,0,1-1.07-.58c-1.51,1.19,1.62,2.43,1.07,3.57-.84-.45-1-1.55-1.74-2.12-.27.53.18,1.16.19,1.74-.52-.32-.75-.93-1.35-1.16-.29.71.12,1.56.1,2.31-.67-.37-1.06-1.82-1.93-1.64s-.34,2-.48,3a3.3,3.3,0,0,1-.78-2.22c-.36.18-.36.73-.48,1.15-.61-.46-.48-1.41-1.25-1.54s-1.36.89-1.84,1.64c0-1.52-1.29-2.58-2.22-1.16-.23-.41,0-1.75-.67-2-.77.16-1.07.79-1.54,1.25,0-.45.67-1.41.29-2.22a.26.26,0,0,1-.29-.19c-.54.15-1,.84-1.55.67a11.92,11.92,0,0,1,.58-1.25c-1.22-.16-2,1.45-3.18,1.35.57-1.1,2.19-1.15,3-2-.23-.25-.73-.24-1.06-.38,0-.41.37-.46.38-.87-.37-.33-1.44,0-1.73-.39.17-.37.91-.18,1.25-.38-.17-.35-.7-.33-.77-.77a1.24,1.24,0,0,0,1-.49c-.24-1.26-1.56-1.45-2.7-1.83,1-.35,2.62-.08,2.9-1.16-.33-.89-1.68-.76-2.22-1.44.75-.17,1.59.39,2.31.57-.08-.49-.65-.5-.67-1.06a1.38,1.38,0,0,0,2.12-1.44c1.9,0,.14-1.68-.29-2.42.81.14,1,1.15,1.74,1.26,1.1.16,1.86-1.08,2.12-2.22.53.42,1.45,1.14,2.22.48a5.55,5.55,0,0,1-.1-2.22c.57.37.3,1.57.77,2a1,1,0,0,0,.78-.48c.4,1.87,2.2.21,2.89,0a3.16,3.16,0,0,0-.1,1.15c1,1.08,1.74-.69,2.51-1.06.29.94-1.5,2.59-.09,3.19a12.74,12.74,0,0,0,2.12-1.35c-.23.61-1.19,1.32-1.64,2,.52,1.42,1.8-.37,2.7,0-.2.61-1,.62-1.45,1a7,7,0,0,0,2.61-.1c-.72.6-1.72.92-2,1.93.92.33,2.07-.44,3-.1C97.71,23.85,95.78,22.78,95.32,23.72Z" fill="#71788a"/><path d="M21,65V62.87a5.19,5.19,0,0,1-1,1.33,4.19,4.19,0,0,1-1.11.68,4.5,4.5,0,0,1-1.66.25,5.91,5.91,0,0,1-1-.12,5.56,5.56,0,0,1-1-.32,6,6,0,0,1-.94-.49,4.53,4.53,0,0,1-.84-.66A6.73,6.73,0,0,1,12,61.38a6.83,6.83,0,0,1-.51-2.67A7,7,0,0,1,11.72,57a7.25,7.25,0,0,1,.61-1.55,6.46,6.46,0,0,1,.94-1.32,6,6,0,0,1,1.23-1A5.81,5.81,0,0,1,16,52.45a5.56,5.56,0,0,1,1.64-.24,5.11,5.11,0,0,1,1.7.26,5.34,5.34,0,0,1,1.56,1h1.86v2.81H20.15a3.49,3.49,0,0,0-.72-.86A3.83,3.83,0,0,0,18.7,55a2.91,2.91,0,0,0-1.1-.17,2.64,2.64,0,0,0-1.3.32,3.24,3.24,0,0,0-1,.85,4.13,4.13,0,0,0-.69,1.26,4.75,4.75,0,0,0-.25,1.49,4.53,4.53,0,0,0,.23,1.44,3.72,3.72,0,0,0,.68,1.23,3.13,3.13,0,0,0,1.06.83,2.91,2.91,0,0,0,1.3.29A2.44,2.44,0,0,0,19.14,62a2.89,2.89,0,0,0,.94-1.41h-2.4V58.31h5.84V65Z" fill="#71788a"/><path d="M25.49,52.43h6.67a5,5,0,0,1,1.74.29,3.77,3.77,0,0,1,1.29.78,3.33,3.33,0,0,1,.8,1.13A3.42,3.42,0,0,1,36.27,56a4.13,4.13,0,0,1-.14,1.12,2.72,2.72,0,0,1-.4.86,2.86,2.86,0,0,1-.64.66,5.67,5.67,0,0,1-.88.52,2,2,0,0,1,.75.66,3.12,3.12,0,0,1,.49,1.15l.43,1.64h1l0,2.45H33.27l-.49-3a4.12,4.12,0,0,0-.23-.92,1.81,1.81,0,0,0-.41-.63,1.53,1.53,0,0,0-.63-.36,2.88,2.88,0,0,0-.88-.12H29.56v2.74h1.15V65H25.49V62.75H26.8v-8H25.49Zm4.07,2.28v3.06h1.65a3.79,3.79,0,0,0,.86-.09,1.78,1.78,0,0,0,.64-.28,1.27,1.27,0,0,0,.42-.47,1.38,1.38,0,0,0,.14-.67,1.35,1.35,0,0,0-.52-1.14,2.48,2.48,0,0,0-1.54-.41Z" fill="#71788a"/><path d="M37.7,52.43h5v2.28H41.59v5.23a4,4,0,0,0,.17,1.22,2.11,2.11,0,0,0,.45.81,1.62,1.62,0,0,0,.69.46,2.49,2.49,0,0,0,.87.15,2.84,2.84,0,0,0,.9-.13,1.58,1.58,0,0,0,.69-.43,2.08,2.08,0,0,0,.44-.81A4.51,4.51,0,0,0,46,59.94V54.71H44.61V52.43h5.06v2.28h-1v4.91A6.87,6.87,0,0,1,48.28,62a5.23,5.23,0,0,1-1.05,1.75,4.44,4.44,0,0,1-1.58,1.09,5,5,0,0,1-1.93.38,5,5,0,0,1-1.91-.37,4.52,4.52,0,0,1-1.55-1.08,4.92,4.92,0,0,1-1-1.7,6.26,6.26,0,0,1-.39-2.28V54.71H37.7Zm2.59-2.55a1.58,1.58,0,0,1,.11-.58,1.54,1.54,0,0,1,.31-.47,1.36,1.36,0,0,1,.47-.32,1.45,1.45,0,0,1,.59-.12,1.31,1.31,0,0,1,.56.12,1.27,1.27,0,0,1,.47.32,1.47,1.47,0,0,1,0,2.09,1.4,1.4,0,0,1-.47.32,1.31,1.31,0,0,1-.56.12,1.45,1.45,0,0,1-.59-.12,1.51,1.51,0,0,1-.47-.32,1.54,1.54,0,0,1-.31-.47A1.56,1.56,0,0,1,40.29,49.88Zm4,0a1.4,1.4,0,0,1,.12-.58,1.38,1.38,0,0,1,.31-.47,1.36,1.36,0,0,1,.47-.32,1.45,1.45,0,0,1,.59-.12,1.31,1.31,0,0,1,.56.12,1.27,1.27,0,0,1,.47.32,1.47,1.47,0,0,1,0,2.09,1.4,1.4,0,0,1-.47.32,1.31,1.31,0,0,1-.56.12,1.45,1.45,0,0,1-.59-.12,1.51,1.51,0,0,1-.47-.32,1.53,1.53,0,0,1-.43-1Z" fill="#71788a"/><path d="M59.15,52.43h4.79v2.28h-1V65H60.15l-5.24-8.15v5.87H56V65H51.19V62.75h1v-8h-1V52.43H55l5.21,8.25v-6H59.15Z" fill="#71788a"/><path d="M65.3,52.43h10v4.3H72.61V54.94H69.38v2.48h2.5v2.41h-2.5v2.92h3.23V60.52h2.71V65h-10V62.75h1.32V54.94H65.3Z" fill="#71788a"/><path d="M89.31,65V62.87a5.19,5.19,0,0,1-1,1.33,4.19,4.19,0,0,1-1.11.68,4.5,4.5,0,0,1-1.66.25,5.91,5.91,0,0,1-1-.12,5.56,5.56,0,0,1-1-.32,6,6,0,0,1-.94-.49,4.53,4.53,0,0,1-.84-.66,6.73,6.73,0,0,1-1.43-2.16,6.83,6.83,0,0,1-.51-2.67A7,7,0,0,1,80,57a7.25,7.25,0,0,1,.61-1.55,6.46,6.46,0,0,1,.94-1.32,6,6,0,0,1,1.23-1,5.81,5.81,0,0,1,1.46-.65,5.56,5.56,0,0,1,1.64-.24,5.11,5.11,0,0,1,1.7.26,5.22,5.22,0,0,1,1.56,1H91v2.81H88.43a3.49,3.49,0,0,0-.72-.86A3.83,3.83,0,0,0,87,55a2.91,2.91,0,0,0-1.1-.17,2.64,2.64,0,0,0-1.3.32,3.24,3.24,0,0,0-1,.85,4.13,4.13,0,0,0-.69,1.26,4.75,4.75,0,0,0-.25,1.49,4.53,4.53,0,0,0,.23,1.44,3.72,3.72,0,0,0,.68,1.23,3.13,3.13,0,0,0,1.06.83,2.91,2.91,0,0,0,1.3.29A2.44,2.44,0,0,0,87.42,62a2.89,2.89,0,0,0,.94-1.41H86V58.31H91.8V65Z" fill="#71788a"/><path d="M100.26,62.75h1.25L101,60.94H97.08l-.57,1.81h1.33V65H93.06V62.75H94l3.43-10.32h3.34l3.35,10.32H105V65h-4.78Zm-2.53-3.94h2.55L99,54.71Z" fill="#71788a"/><path d="M105.65,52.43h5.06v2.28h-1.16v5.23a4,4,0,0,0,.16,1.22,2.12,2.12,0,0,0,.46.81,1.62,1.62,0,0,0,.69.46,2.41,2.41,0,0,0,.87.15,2.77,2.77,0,0,0,.89-.13,1.47,1.47,0,0,0,.69-.43,2,2,0,0,0,.44-.81,4.14,4.14,0,0,0,.16-1.27V54.71h-1.34V52.43h5.05v2.28h-1v4.91a6.64,6.64,0,0,1-.39,2.36,4.93,4.93,0,0,1-1,1.75,4.4,4.4,0,0,1-1.57,1.09,5,5,0,0,1-1.93.38,5,5,0,0,1-1.91-.37,4.43,4.43,0,0,1-1.55-1.08,5.1,5.1,0,0,1-1-1.7,6.49,6.49,0,0,1-.38-2.28V54.71h-1.14Z" fill="#71788a"/><path d="M121.3,62.75h1.31V54.63h-1.53v1.63h-2.71V52.43h11.46v3.83h-2.72V54.63h-1.74v8.12h1.33V65h-5.4Z" fill="#71788a"/><path d="M131,52.43h5.39v2.28h-1.33v8h1.33V65H131V62.75h1.3v-8H131Z" fill="#71788a"/><path d="M145.72,52.43h4.79v2.28h-1V65h-2.76l-5.25-8.15v5.87h1.06V65h-4.78V62.75h1v-8h-1V52.43h3.8l5.22,8.25v-6h-1.08Z" fill="#71788a"/><path d="M161,65V62.87a5,5,0,0,1-1,1.33,3.89,3.89,0,0,1-1.11.68,4.4,4.4,0,0,1-1.65.25,6.14,6.14,0,0,1-1-.12,5.72,5.72,0,0,1-1-.32,6.59,6.59,0,0,1-1-.49,4.82,4.82,0,0,1-.83-.66A6.76,6.76,0,0,1,152,61.38a6.83,6.83,0,0,1-.51-2.67A7.05,7.05,0,0,1,151.7,57a6.76,6.76,0,0,1,.61-1.55,6.46,6.46,0,0,1,.94-1.32,6,6,0,0,1,1.23-1,5.81,5.81,0,0,1,1.46-.65,5.56,5.56,0,0,1,1.64-.24,5.11,5.11,0,0,1,1.7.26,5.19,5.19,0,0,1,1.55,1h1.87v2.81h-2.57a4,4,0,0,0-.72-.86,4.16,4.16,0,0,0-.73-.44,3,3,0,0,0-1.1-.17,2.64,2.64,0,0,0-1.3.32,3.38,3.38,0,0,0-1,.85,4.11,4.11,0,0,0-.68,1.26,4.69,4.69,0,0,0,0,2.93,3.74,3.74,0,0,0,.69,1.23,3,3,0,0,0,1.06.83,2.88,2.88,0,0,0,1.3.29,2.41,2.41,0,0,0,1.53-.51,2.84,2.84,0,0,0,.95-1.41h-2.4V58.31h5.83V65Z" fill="#71788a"/></svg>