<svg id="bc068832-24db-4184-846a-34ab2ef75303" data-name="Layer 1" xmlns="http://www.w3.org/2000/svg" viewBox="0 0 175 70"><path d="M16.5,10.94V59.06H64.61V10.94ZM44,49.12,36,39.73v9.39H28V20.88h8v9.28l7.42-9.28H53v.48L41.51,34.72,53.93,48.64v.48Z" fill="#71788a"/><path d="M84.15,11.08,77.09,19l7.61,8.36v.18H81L74.4,20.2v7.33h-3V10.94h3v7l6-7h3.72v.14Z" fill="#71788a"/><path d="M99.41,11v9.52c0,4.92-2.86,7.42-6.84,7.42-3.8,0-7-2.41-7-7.42V11h3v9.48c0,3,1.62,4.56,4.1,4.56s3.89-1.74,3.89-4.56V11h3Z" fill="#71788a"/><path d="M105.36,11V24.67h8.16v2.86H102.4V10.94h3Z" fill="#71788a"/><path d="M117.33,13.8h-5V11h13V13.8h-5V27.53h-3l0-13.73Z" fill="#71788a"/><path d="M141.53,11v9.52c0,4.92-2.87,7.42-6.84,7.42-3.81,0-7.06-2.41-7.06-7.42V11h3v9.48c0,3,1.63,4.56,4.11,4.56s3.89-1.74,3.89-4.56V11h2.95Z" fill="#71788a"/><path d="M158.5,27.58H155L150.33,22h-2.86v5.55h-3V11c2.52,0,5,0,7.52,0a5.38,5.38,0,0,1,5.69,5.5c0,2.28-1,4.56-4,5.19l4.79,5.68,0,.18Zm-11-13.69v5.33H152a2.53,2.53,0,0,0,2.7-2.64,2.53,2.53,0,0,0-2.7-2.64l-4.53,0Z" fill="#71788a"/><path d="M78.5,32.76A3,3,0,0,0,76,31.56c-1.45,0-2.18.62-2.18,1.47s1.07,1.21,2.36,1.39c2.18.27,4.23.89,4.23,3.53,0,2.46-2.05,3.53-4.41,3.53-2.13,0-3.8-.67-4.57-2.72l1.67-.9a3,3,0,0,0,2.95,1.75c1.24,0,2.43-.45,2.43-1.66,0-1-1-1.47-2.43-1.61C73.93,36.07,72,35.49,72,33c0-2.28,2.14-3.18,4.06-3.22,1.63,0,3.34.49,4.11,2.19Z" fill="#71788a"/><path d="M86.93,37.86h-3v3.22H82v-11h5C92.06,30.08,92.06,37.86,86.93,37.86Zm-3-1.92h3a2,2,0,0,0,0-3.89h-3Z" fill="#71788a"/><path d="M100,41.08H92.1v-11H100v2h-5.9v2.55h5.68v1.93H94.07v2.5H100Z" fill="#71788a"/><path d="M109.93,30.17l-4.66,5.28,5,5.54v.14h-2.43l-4.41-4.88v4.83h-2v-11h2v4.65l4-4.65H110v.09Z" fill="#71788a"/><path d="M114,32H110.7V30.08h8.64V32H116v9.12h-2V32Z" fill="#71788a"/><path d="M128,39H122.5l-.9,2.06h-2.14l4.71-11h2.18l4.7,11h-2.18Zm-2.74-6.61-2,4.69h3.89Z" fill="#71788a"/><path d="M140.29,30.17l-4.66,5.28,5,5.54v.14h-2.44l-4.4-4.88v4.83h-2v-11h2v4.65l4-4.65h2.48l0,.09Z" fill="#71788a"/><path d="M149.52,41.08h-7.87v-11h7.87v2h-5.9v2.55h5.69v1.93h-5.69v2.5h5.9Z" fill="#71788a"/><path d="M153,30.08v9.08h5.43v1.92h-7.4v-11Z" fill="#71788a"/><path d="M83.59,46.54a6.51,6.51,0,0,0-4.66-2c-4.23,0-6.37,3.22-6.37,6.71s2.18,6.61,6.37,6.61a6.29,6.29,0,0,0,4.41-1.74V51.9h-5v-1h6.07V56.6a7.35,7.35,0,0,1-5.47,2.46c-4.92,0-7.44-3.58-7.44-7.69,0-4.74,3-7.83,7.44-7.83a7.46,7.46,0,0,1,5.3,2.28Z" fill="#71788a"/><path d="M98.9,58.83l-1.58-3.71H88.68L87.1,58.83H85.9l6.46-15.11h1.19L100,58.83Zm-2.05-4.78L93,44.84l-3.89,9.21Z" fill="#71788a"/><path d="M111.9,43.72v9.39a5.55,5.55,0,1,1-11.08,0V43.72h1.11v9.39c0,6.48,8.9,6.48,8.9,0V43.72Z" fill="#71788a"/><path d="M119,44.79h-5.22v-1h11.54v1h-5.21v14H119Z" fill="#71788a"/><path d="M127.5,58.83V43.72h1.11V58.83Z" fill="#71788a"/><path d="M132.29,43.72,142,56.2V43.72h1.11V58.83h-.43l-9.75-12.47V58.83h-1.11V43.72Z" fill="#71788a"/><path d="M157.69,46.54a6.51,6.51,0,0,0-4.66-2c-4.24,0-6.37,3.22-6.37,6.71s2.18,6.61,6.37,6.61a6.27,6.27,0,0,0,4.4-1.74V51.9h-5v-1h6.07V56.6A7.37,7.37,0,0,1,153,59.06c-4.91,0-7.43-3.58-7.43-7.69,0-4.74,3-7.83,7.43-7.83a7.46,7.46,0,0,1,5.31,2.28Z" fill="#71788a"/></svg>