<svg id="f35ee4b0-1958-4ca8-89db-8daa5154f9f7" data-name="Layer 1" xmlns="http://www.w3.org/2000/svg" viewBox="0 0 330.32 99.81"><path d="M31.37,39.78h6.41A1.12,1.12,0,0,1,39,41V76.18c0,15.56-12,18.69-24.18,17.54-.76-.07-1.07-.53-1.07-1.37L14,86.71c0-.77.53-1.15,1.37-1.07,9.85.84,14.8-1.38,14.8-9.69v-.46c0-.38-.22-.53-.53-.23-1.91,2-4.65,3.28-8.77,3.28-6,0-12.52-2.82-14.8-10.22a35,35,0,0,1-1-9.23A29.33,29.33,0,0,1,6.27,49.4a14.44,14.44,0,0,1,14-10.23c4.2,0,7.17,1.3,9.31,3.44.31.3.53.15.53-.23V41A1.12,1.12,0,0,1,31.37,39.78ZM30.15,59c0-4-.15-5.11-.61-6.64A7,7,0,0,0,22.3,46.8c-3.9,0-6.34,2.44-7.4,5.57A17.74,17.74,0,0,0,14,59.09a20.16,20.16,0,0,0,.76,6.63,7.73,7.73,0,0,0,7.63,5.57,7,7,0,0,0,7.25-5.49C30,64.35,30.15,63.13,30.15,59Z"/><path d="M77.69,52.14V77.55a1.12,1.12,0,0,1-1.22,1.22H70.06a1.12,1.12,0,0,1-1.22-1.22V75.64c0-.38-.23-.46-.54-.23-2.67,2.6-6.41,4-11,4-7.1,0-12.9-3.51-12.9-11.52,0-7.86,5.72-12.59,15.87-12.59h8.09a.41.41,0,0,0,.46-.46V53.06c0-3.89-2.29-6.26-7.1-6.26-3.66,0-6,1.38-6.79,3.59-.23.76-.61,1.07-1.37,1l-6.87-.84c-.76-.07-1.22-.46-1.14-1,.91-6,7.17-10.38,15.94-10.38C71.35,39.17,77.69,44.67,77.69,52.14Zm-8.85,13.2V61.83a.4.4,0,0,0-.46-.45H62.05c-5.35,0-8.78,2.06-8.78,5.87,0,3.36,2.82,5.11,6.49,5.11C64.56,72.36,68.84,69.54,68.84,65.34Z"/><path d="M109.2,39.78h6.33A1.12,1.12,0,0,1,116.75,41V77.55a1.12,1.12,0,0,1-1.22,1.22H109.2A1.13,1.13,0,0,1,108,77.55v-2c0-.39-.3-.54-.53-.16-2,2.52-5,3.89-9.31,3.89-7.24,0-13.65-4.27-13.65-12.89V41a1.12,1.12,0,0,1,1.22-1.22h6.41A1.12,1.12,0,0,1,93.33,41V63.89c0,4.73,2.51,7.86,7.09,7.86S108,68.62,108,63.89V41A1.13,1.13,0,0,1,109.2,39.78Z"/><path d="M144.14,47h-7.4a.4.4,0,0,0-.46.45v18c0,4,1.68,5.57,5.26,5.57h2a1.12,1.12,0,0,1,1.22,1.22v5.11a1.18,1.18,0,0,1-1.22,1.3c-1.22,0-2.44.07-3.66.07-7.33,0-12-1.83-12.06-9.91V47.41a.43.43,0,0,0-.46-.45h-4a1.12,1.12,0,0,1-1.22-1.22V41a1.12,1.12,0,0,1,1.22-1.22h4a.4.4,0,0,0,.46-.45V30.78A1.12,1.12,0,0,1,129,29.56h6a1.12,1.12,0,0,1,1.22,1.22v8.55a.43.43,0,0,0,.46.45h7.4A1.12,1.12,0,0,1,145.36,41v4.74A1.12,1.12,0,0,1,144.14,47Z"/><path d="M151,29.33a5.4,5.4,0,0,1,5.73-5.49,5.33,5.33,0,0,1,5.64,5.49,5.35,5.35,0,0,1-5.64,5.57A5.41,5.41,0,0,1,151,29.33Zm1.3,48.22V41a1.12,1.12,0,0,1,1.22-1.22h6.41A1.12,1.12,0,0,1,161.15,41V77.55a1.12,1.12,0,0,1-1.22,1.22h-6.41A1.12,1.12,0,0,1,152.3,77.55Z"/><path d="M202,52.83V77.55a1.12,1.12,0,0,1-1.22,1.22h-6.41a1.12,1.12,0,0,1-1.22-1.22V54.66c0-4.65-2.9-7.86-7.33-7.86s-7.32,3.13-7.32,7.79v23a1.12,1.12,0,0,1-1.22,1.22h-6.41a1.12,1.12,0,0,1-1.22-1.22V41a1.12,1.12,0,0,1,1.22-1.22h6.41A1.12,1.12,0,0,1,178.47,41v2.06c0,.39.23.54.46.23,2.21-2.82,5.34-4.12,9.38-4.12C196.55,39.17,202,44.36,202,52.83Z"/><path d="M234.7,39.78h6.41A1.12,1.12,0,0,1,242.33,41V76.18c0,15.56-12.06,18.69-24.19,17.54-.76-.07-1.06-.53-1.06-1.37l.22-5.64c0-.77.54-1.15,1.38-1.07,9.84.84,14.8-1.38,14.8-9.69v-.46c0-.38-.23-.53-.54-.23-1.9,2-4.65,3.28-8.77,3.28-5.95,0-12.51-2.82-14.8-10.22a35.47,35.47,0,0,1-1-9.23,29.33,29.33,0,0,1,1.22-9.69,14.42,14.42,0,0,1,14-10.23c4.19,0,7.17,1.3,9.3,3.44.31.3.54.15.54-.23V41A1.12,1.12,0,0,1,234.7,39.78ZM233.48,59c0-4-.15-5.11-.61-6.64a7,7,0,0,0-7.25-5.57c-3.89,0-6.33,2.44-7.4,5.57a17.74,17.74,0,0,0-.92,6.72,19.8,19.8,0,0,0,.77,6.63,7.73,7.73,0,0,0,7.63,5.57,7,7,0,0,0,7.24-5.49C233.33,64.35,233.48,63.13,233.48,59Z"/><rect x="231.94" y="6.83" width="93.44" height="43.6" rx="10.63" fill="#ea0000"/><path d="M245.23,38V18.93a2.51,2.51,0,1,1,5,0V36.48h8.52a2.09,2.09,0,1,1,0,4.16h-11A2.35,2.35,0,0,1,245.23,38Z" fill="#fff"/><path d="M263.74,38.35V18.93a2.51,2.51,0,1,1,5,0V38.35a2.51,2.51,0,1,1-5,0Z" fill="#fff"/><path d="M278.45,38.05l-6.69-18a4,4,0,0,1-.25-1.41,2.39,2.39,0,0,1,2.65-2.38,2.43,2.43,0,0,1,2.56,2l5.62,17.19h.12l5.61-17.24a2.58,2.58,0,0,1,5.06.38,4,4,0,0,1-.25,1.35l-6.73,18.1c-.73,2-1.89,2.9-3.84,2.9S279.18,40.09,278.45,38.05Z" fill="#fff"/><path d="M295.88,38V19.24a2.35,2.35,0,0,1,2.51-2.61h11.42a2.09,2.09,0,1,1,0,4.16H300.9v5.77h8.47a1.94,1.94,0,1,1,0,3.87H300.9v6h8.91a2.09,2.09,0,1,1,0,4.16H298.39A2.35,2.35,0,0,1,295.88,38Z" fill="#fff"/></svg>