<?xml version="1.0" encoding="utf-8"?>
<!-- Generator: Adobe Illustrator 22.1.0, SVG Export Plug-In . SVG Version: 6.00 Build 0)  -->
<svg version="1.1" id="Layer_1" xmlns="http://www.w3.org/2000/svg" xmlns:xlink="http://www.w3.org/1999/xlink" x="0px" y="0px"
	 viewBox="0 0 24 24" style="enable-background:new 0 0 24 24;" xml:space="preserve">
<title>love-heart-hands-hold-3</title>
<g>
	<path fill="#ea0000" d="M12,13.612c-0.596,0-1.157-0.23-1.58-0.647l0.24-0.291l-0.267,0.263L5.074,7.543C3.691,6.213,3.35,4.158,4.233,2.437
		c0.583-1.091,1.549-1.885,2.722-2.241c0.437-0.133,0.888-0.2,1.339-0.2c0.746,0,1.492,0.188,2.158,0.544
		c0.375,0.2,0.72,0.452,1.025,0.746L12,1.793l0.521-0.506c0.86-0.831,1.993-1.288,3.19-1.288c1.259,0,2.433,0.498,3.304,1.401
		c0.295,0.306,0.546,0.651,0.747,1.025c0.875,1.705,0.524,3.815-0.851,5.136l-5.31,5.382C13.177,13.374,12.607,13.612,12,13.612z
		 M8.293,1.496c-0.304,0-0.607,0.045-0.903,0.135c-0.79,0.24-1.44,0.773-1.829,1.501C4.988,4.251,5.214,5.597,6.128,6.476
		l5.338,5.414c0.143,0.142,0.336,0.222,0.538,0.222c0.201,0,0.389-0.079,0.53-0.221l5.324-5.396c0.912-0.877,1.146-2.26,0.576-3.372
		c-0.13-0.244-0.299-0.474-0.497-0.68c-0.587-0.608-1.377-0.943-2.225-0.943c-0.806,0-1.569,0.307-2.147,0.865l-1.042,1.013
		C12.381,3.514,12.196,3.589,12,3.589c-0.196,0-0.382-0.075-0.523-0.212l-1.043-1.014C10.23,2.166,9.998,1.997,9.746,1.862
		C9.297,1.622,8.795,1.496,8.293,1.496z"/>
	<path fill="#ea0000" d="M8.25,23.998c-0.414,0-0.75-0.336-0.75-0.75v-3c0-0.744-0.218-1.465-0.631-2.083l-1.142-1.71
		c-0.106-0.175-0.248-0.282-0.419-0.324c-0.052-0.013-0.105-0.019-0.158-0.019c-0.117,0-0.233,0.032-0.334,0.094l-0.031,0.02
		c-0.255,0.171-0.354,0.516-0.224,0.803l1.334,2.22c0.213,0.354,0.098,0.816-0.256,1.029c-0.118,0.07-0.251,0.107-0.386,0.107
		c-0.262,0-0.509-0.139-0.643-0.364l-1.352-2.25c-0.01-0.017-0.02-0.034-0.028-0.052c-0.151-0.304-0.228-0.645-0.222-0.988
		C3.002,16.699,3,16.667,3,16.634v-3.75c0-0.414-0.336-0.75-0.75-0.75s-0.75,0.336-0.75,0.75v5.172c0,0.848,0.292,1.68,0.822,2.343
		l2.001,2.365c0.267,0.316,0.228,0.79-0.088,1.057c-0.135,0.115-0.307,0.177-0.484,0.177c-0.221,0-0.43-0.097-0.573-0.266
		l-2.014-2.381C0.411,20.411,0,19.243,0,18.056v-5.172c0-1.241,1.009-2.25,2.25-2.25s2.25,1.009,2.25,2.25v1.829
		c0.209-0.067,0.428-0.101,0.649-0.101c0.174,0,0.348,0.021,0.519,0.063c0.558,0.138,1.028,0.484,1.325,0.976l1.124,1.681
		C8.695,18.198,9,19.207,9,20.249v3C9,23.662,8.664,23.998,8.25,23.998z"/>
	<path fill="#ea0000" d="M20.25,23.998c-0.177,0-0.349-0.063-0.484-0.177c-0.153-0.13-0.247-0.311-0.263-0.51c-0.017-0.2,0.045-0.394,0.175-0.547
		l2.014-2.381c0.519-0.649,0.809-1.479,0.809-2.327v-5.172c0-0.414-0.336-0.75-0.75-0.75S21,12.471,21,12.884v3.75
		c0,0.02-0.001,0.04-0.003,0.06c0.011,0.355-0.066,0.708-0.224,1.023c-0.01,0.019-0.018,0.034-0.026,0.048l-1.354,2.253
		c-0.136,0.225-0.382,0.364-0.644,0.364c-0.135,0-0.269-0.037-0.385-0.106c-0.172-0.104-0.293-0.267-0.342-0.462
		c-0.049-0.195-0.018-0.396,0.085-0.568l1.334-2.22c0.131-0.288,0.033-0.634-0.231-0.81l-0.033-0.021
		c-0.094-0.057-0.209-0.089-0.325-0.089c-0.053,0-0.107,0.007-0.159,0.02c-0.168,0.042-0.311,0.147-0.4,0.296l-1.161,1.742
		c-0.413,0.619-0.632,1.34-0.631,2.083v3c0,0.414-0.336,0.75-0.75,0.75S15,23.662,15,23.248v-3c0-1.041,0.305-2.05,0.883-2.916
		l1.142-1.712c0.371-0.62,1.073-1.014,1.824-1.014c0.222,0,0.441,0.034,0.651,0.101v-1.823c0-1.241,1.009-2.25,2.25-2.25
		S24,11.643,24,12.884v5.172c0,1.188-0.409,2.352-1.151,3.28l-2.027,2.397C20.68,23.901,20.471,23.998,20.25,23.998z"/>
</g>
</svg>
