<svg id="a3d654c0-c6ba-4758-aae6-2f6a3e78a106" data-name="Layer 1" xmlns="http://www.w3.org/2000/svg" viewBox="0 0 135 70"><path d="M91.53,18.88l-.94-.48a10.39,10.39,0,0,0-1-.52c-.21-.08-.69-.27-3.14-1.41a.21.21,0,0,0-.17-.11l-12.1-.05-.09,0a.17.17,0,0,0-.18,0,.2.2,0,0,0-.1.15l-.07.84c-.59,7-.67,7.88-1.44,16.06a.25.25,0,0,0,0,.15L74.5,36s0,.06.06.1h0l0,0,.12.14.53.62,2.64,3A.18.18,0,0,0,78,40h.06a.24.24,0,0,0,.09-.06c4.26-.72,5.77-1,8-1.4l3.51-.64a.19.19,0,0,0,.17-.17l1.71-18.51a.19.19,0,0,0,0-.08s0,0,0,0A.19.19,0,0,0,91.53,18.88Zm-17.23,16-1.43-1.66.48-5.32c.27-3,.6-6.7.73-8.25.1-1.2.19-2.16.23-2.59,1,.45,4.91,2.31,5.56,2.64,0,.2-.06.7-.15,1.39-.36,2.8-.8,6.68-1.25,10.92-.36,3.49-.63,6-.74,6.85-.19-.2-.47-.52-.84-.95Zm15.79-16c-1,0-7.43.13-8.79.17l-.9,0-2.59-1.22-1.92-.92h.21l4.46,0,5.5.05,1.42.64c.8.35,1.88.86,2.42,1.13l.23.11ZM79.75,28.35c.45-3.88.88-7.63.92-8l.06-.51,5.14-.09,5.1-.09c-.17,1.91-1.49,16.2-1.65,17.75-.8.16-5.15.94-7.91,1.42l-2.9.5C78.59,38.45,79,34.67,79.75,28.35Z" fill="#71788a"/><path d="M77.3,29.73c.06-.29.2-1.68.31-2.92.23-2.59.23-2.64,0-2.7l-1-.65a4.26,4.26,0,0,0-1.25-.66h0c-.36.06-.38.22-.65,2.87l-.22,2.19a.15.15,0,0,0,0,.13l.16.24a9.28,9.28,0,0,0,1.61,1.51,1.28,1.28,0,0,0,.67.33C77,30.07,77.24,30,77.3,29.73Zm-.38-2c-.07.73-.13,1.31-.16,1.65a10.77,10.77,0,0,1-1.68-1.51c0-.2.06-.77.14-1.54l1.71,1.28v.12h0Zm-1.54-3.13c.05-.39.09-.71.12-.9l.8.53.94.55,0,.41c0,.19,0,.56-.1,1,0,.26-.06.45-.08.6-.12-.08-.49-.27-.69-.42l-1-.78A8.37,8.37,0,0,1,75.38,24.58Z" fill="#71788a"/><path d="M84,37.83a4.52,4.52,0,0,0,1.34-.18,6.16,6.16,0,0,0,3.4-3.56,6.9,6.9,0,0,0,.09-5.47,4,4,0,0,0-2.25-2.21,4.43,4.43,0,0,0-1.27-.17,3.45,3.45,0,0,0-.69.06A6,6,0,0,0,80.72,30a7.1,7.1,0,0,0-.59,3c0,2.45,1,4.14,2.91,4.76A3,3,0,0,0,84,37.83Zm.5-10.66a2.07,2.07,0,0,1,.74-.13h.3a2.39,2.39,0,0,1,1.8.79,5,5,0,0,1,1.06,4.69,5.93,5.93,0,0,1-3.07,4.25,2.08,2.08,0,0,1-1.14.24h-.37a1.59,1.59,0,0,1-.64-.1c-1.44-.54-2.24-2-2.26-4a6.7,6.7,0,0,1,1.14-3.79A5.17,5.17,0,0,1,84.5,27.17Z" fill="#71788a"/><path d="M81.46,25.55c.36,0,1,0,2-.1,1.86-.12,5.35-.31,5.74-.31a.85.85,0,0,0,.52-.15s.15-.16.33-2,.1-2,.07-2.07-.11-.2-4-.2h-.31c-4.1,0-4.19.06-4.24.09s-.19.13-.55,2.24-.29,2.24-.26,2.3C80.88,25.53,81.13,25.55,81.46,25.55Z" fill="#71788a"/><path d="M84.57,33.81a1.27,1.27,0,0,0,.5-.11,1.88,1.88,0,0,0,.68-.47A2.19,2.19,0,0,0,86.11,31a1.3,1.3,0,0,0-1.76-.81,2.12,2.12,0,0,0-.68,3.19A1.29,1.29,0,0,0,84.57,33.81Zm.31-3.17a.81.81,0,0,1,.69.54,1.36,1.36,0,0,1,.12.49,1.48,1.48,0,0,1-.81,1.49l-.15.05a.82.82,0,0,1-.8-.48,1.59,1.59,0,0,1,0-1.25,1.33,1.33,0,0,1,.68-.78A.8.8,0,0,1,84.88,30.64Z" fill="#71788a"/><path d="M91.17,9.47H37.39a.65.65,0,0,0-.65.59l-.65,6.35a.69.69,0,0,0,.17.5.64.64,0,0,0,.49.22h9.14l-2.3,22.71a.65.65,0,0,0,.16.5.66.66,0,0,0,.49.22h6.4a.65.65,0,0,0,.65-.59l2.29-22.84h4.91l-.74,7.33a.66.66,0,0,0,1.19.44l5.43-7.77h5.35L61.33,28.77a.67.67,0,0,0,0,.73l6.13,9.75-5.43,0L58.08,33.2a.65.65,0,0,0-.55-.3h-.15a.67.67,0,0,0-.5.58l-.65,6.35a.67.67,0,0,0,.59.72h.07a.66.66,0,0,0,.65-.59l.45-4.5,3.12,4.81a.65.65,0,0,0,.55.3h0l7,0a.65.65,0,0,0,.56-1L62.66,29.17l8.87-12.31a.66.66,0,0,0,0-.68.66.66,0,0,0-.58-.36H64a.66.66,0,0,0-.53.28l-4.19,6,.56-5.55A.64.64,0,0,0,59.7,16a.63.63,0,0,0-.48-.21H53a.64.64,0,0,0-.65.59L50,39.25H45l2.3-22.71a.65.65,0,0,0-.16-.5.66.66,0,0,0-.49-.22H37.47l.51-5H91.17a.66.66,0,0,0,.66-.65.67.67,0,0,0-.66-.66" fill="#71788a"/><path d="M39.08,45.62v.61a.13.13,0,0,1-.14.14H37.36s0,0,0,.05v5.07a.13.13,0,0,1-.14.14h-.74a.13.13,0,0,1-.14-.14V46.42s0-.05,0-.05H34.73a.13.13,0,0,1-.14-.14v-.61a.13.13,0,0,1,.14-.14h4.21A.13.13,0,0,1,39.08,45.62Z" fill="#71788a"/><path d="M39.26,50.37a3.13,3.13,0,0,1-.15-1,3.35,3.35,0,0,1,.14-1,2,2,0,0,1,3.75,0,2.87,2.87,0,0,1,.16,1,3.18,3.18,0,0,1-.15,1,2,2,0,0,1-3.75,0ZM42,50.12a2.41,2.41,0,0,0,.1-.74,2.58,2.58,0,0,0-.09-.74.95.95,0,0,0-1.82,0,3,3,0,0,0-.08.74,3.16,3.16,0,0,0,.08.74.93.93,0,0,0,.93.7A.89.89,0,0,0,42,50.12Z" fill="#71788a"/><path d="M48.07,49.37a3.69,3.69,0,0,1-.16,1.1,1.71,1.71,0,0,1-1.69,1.23,1.23,1.23,0,0,1-1-.46s-.06,0-.06,0v.23a.13.13,0,0,1-.14.14h-.74a.13.13,0,0,1-.14-.14V45.62a.13.13,0,0,1,.14-.14H45a.13.13,0,0,1,.14.14v1.86c0,.05,0,.05.06,0a1.28,1.28,0,0,1,1-.43,1.69,1.69,0,0,1,1.7,1.23A3.59,3.59,0,0,1,48.07,49.37Zm-1.06,0a2,2,0,0,0-.25-1.07.81.81,0,0,0-.71-.37.75.75,0,0,0-.66.38,2.05,2.05,0,0,0-.22,1.05,2.09,2.09,0,0,0,.21,1,.75.75,0,0,0,.68.41.8.8,0,0,0,.74-.42A2,2,0,0,0,47,49.39Z" fill="#71788a"/><path d="M48.89,45.94a.63.63,0,0,1,.66-.64.64.64,0,1,1,0,1.28A.63.63,0,0,1,48.89,45.94ZM49,51.49V47.28a.13.13,0,0,1,.14-.14h.74a.13.13,0,0,1,.14.14v4.21a.13.13,0,0,1-.14.14h-.74A.13.13,0,0,1,49,51.49Z" fill="#71788a"/><path d="M54.79,48.56v2.93a.13.13,0,0,1-.14.14h-.74a.13.13,0,0,1-.14-.14v-.22s0-.05-.06,0a1.77,1.77,0,0,1-1.27.46A1.3,1.3,0,0,1,51,50.37c0-.9.66-1.45,1.83-1.45h.93s.05,0,.05-.05v-.2c0-.45-.26-.72-.82-.72s-.69.16-.78.41a.14.14,0,0,1-.16.12l-.79-.1c-.09,0-.14-.05-.13-.12.11-.69.83-1.19,1.84-1.19S54.79,47.7,54.79,48.56Zm-1,1.52v-.4s0,0-.05,0H53c-.62,0-1,.23-1,.67s.32.59.75.59S53.77,50.57,53.77,50.08Z" fill="#71788a"/><path d="M55.64,50.44v0a.13.13,0,0,1,.14-.14h.7c.09,0,.14,0,.14.06v.06c0,.29.34.55.85.55s.79-.22.79-.51-.52-.43-1.1-.63-1.48-.49-1.48-1.35.71-1.34,1.75-1.34,1.79.55,1.79,1.33c0,.06,0,.11-.14.11H58.4c-.08,0-.14,0-.14-.05v-.06c0-.29-.3-.53-.83-.53s-.78.16-.78.48.5.45,1.09.62,1.54.48,1.54,1.36-.72,1.33-1.8,1.33S55.64,51.15,55.64,50.44Z" fill="#71788a"/><path d="M62,51.49V45.62a.13.13,0,0,1,.14-.14h.75a.19.19,0,0,1,.17.09l1.38,2.22s0,0,.07,0l1.38-2.22a.21.21,0,0,1,.18-.09h.74a.13.13,0,0,1,.14.14v5.87a.13.13,0,0,1-.14.14h-.74a.13.13,0,0,1-.14-.14V47.33s0-.06-.06,0L64.82,49a.19.19,0,0,1-.17.1H64.3a.19.19,0,0,1-.17-.1l-1-1.71s-.06,0-.06,0v4.16a.13.13,0,0,1-.14.14h-.74A.13.13,0,0,1,62,51.49Z" fill="#71788a"/><path d="M68.15,50.42a4,4,0,0,1,0-2.09A1.84,1.84,0,0,1,70,47.07a1.89,1.89,0,0,1,1.87,1.2.68.68,0,0,1,.05.25c0,.1,0,.14-.11.16l-.73.11a.12.12,0,0,1-.16-.1l0-.12A.88.88,0,0,0,70,48a.85.85,0,0,0-.88.64,2.91,2.91,0,0,0-.09.78,3.3,3.3,0,0,0,.08.78.87.87,0,0,0,.89.67.86.86,0,0,0,.89-.62.18.18,0,0,0,0-.05S71,50,71.07,50l.73.12a.12.12,0,0,1,.12.15,1.16,1.16,0,0,1,0,.18A1.84,1.84,0,0,1,70,51.7,1.87,1.87,0,0,1,68.15,50.42Z" fill="#71788a"/><path d="M76.92,46.36H74s-.06,0-.06,0V48a.06.06,0,0,0,.06.05h2a.13.13,0,0,1,.14.14v.6a.13.13,0,0,1-.14.14H74a.06.06,0,0,0-.06.05v2.47a.13.13,0,0,1-.14.14H73a.13.13,0,0,1-.14-.14V45.62a.13.13,0,0,1,.14-.14h3.88a.13.13,0,0,1,.14.14v.6A.13.13,0,0,1,76.92,46.36Z" fill="#71788a"/><path d="M81,48.56v2.93a.13.13,0,0,1-.14.14h-.73a.13.13,0,0,1-.14-.14v-.22s0-.05-.07,0a1.72,1.72,0,0,1-1.26.46c-.82,0-1.49-.4-1.49-1.33s.66-1.45,1.83-1.45h.93s.06,0,.06-.05v-.2c0-.45-.27-.72-.82-.72s-.7.16-.78.41a.14.14,0,0,1-.16.12l-.79-.1c-.09,0-.14-.05-.14-.12.11-.69.83-1.19,1.84-1.19S81,47.7,81,48.56Zm-1,1.52v-.4s0,0-.06,0h-.73c-.61,0-1,.23-1,.67s.33.59.75.59S79.94,50.57,79.94,50.08Z" fill="#71788a"/><path d="M84.83,45.48h.74a.13.13,0,0,1,.14.14v5.87a.13.13,0,0,1-.14.14h-.74a.13.13,0,0,1-.14-.14v-.23s0-.06-.06,0a1.24,1.24,0,0,1-1,.46,1.71,1.71,0,0,1-1.69-1.23,3.69,3.69,0,0,1-.16-1.1,3.59,3.59,0,0,1,.15-1.07,1.69,1.69,0,0,1,1.7-1.23,1.3,1.3,0,0,1,1,.43s.06,0,.06,0V45.62A.13.13,0,0,1,84.83,45.48Zm-.16,3.9a2.05,2.05,0,0,0-.22-1.05A.72.72,0,0,0,83.8,48a.81.81,0,0,0-.71.37,2,2,0,0,0-.25,1.07,2,2,0,0,0,.21,1,.8.8,0,0,0,.74.42.77.77,0,0,0,.68-.41A2.1,2.1,0,0,0,84.67,49.38Z" fill="#71788a"/><path d="M89.68,45.48h.73a.13.13,0,0,1,.15.14v5.87a.13.13,0,0,1-.15.14h-.73a.13.13,0,0,1-.14-.14v-.23s0-.06-.07,0a1.23,1.23,0,0,1-1,.46,1.71,1.71,0,0,1-1.69-1.23,3.7,3.7,0,0,1-.15-1.1,3.3,3.3,0,0,1,.15-1.07,1.67,1.67,0,0,1,1.69-1.23,1.28,1.28,0,0,1,1,.43s.07,0,.07,0V45.62A.13.13,0,0,1,89.68,45.48Zm-.16,3.9a2.05,2.05,0,0,0-.22-1.05.75.75,0,0,0-.66-.38.78.78,0,0,0-.7.37,1.9,1.9,0,0,0-.26,1.07,2,2,0,0,0,.21,1,.81.81,0,0,0,.74.42.77.77,0,0,0,.69-.41A2.1,2.1,0,0,0,89.52,49.38Z" fill="#71788a"/><path d="M94.63,50.36a.12.12,0,0,1,.19,0l.42.34a.13.13,0,0,1,0,.19,1.94,1.94,0,0,1-1.71.86,1.81,1.81,0,0,1-1.84-1.25,3,3,0,0,1-.18-1.09,3.15,3.15,0,0,1,.1-.93,1.94,1.94,0,0,1,3.78.44c0,.22,0,.47.06.72a.13.13,0,0,1-.14.14H92.62a0,0,0,0,0-.05.05,1.37,1.37,0,0,0,.05.39,1,1,0,0,0,1,.67A1.19,1.19,0,0,0,94.63,50.36Zm-2-1.8a1.28,1.28,0,0,0-.07.37s0,.06,0,.06h1.77s0,0,0-.06a1.66,1.66,0,0,0,0-.31.87.87,0,0,0-.9-.67A.8.8,0,0,0,92.65,48.56Z" fill="#71788a"/><path d="M100.15,48.64v2.85a.13.13,0,0,1-.14.14h-.74a.13.13,0,0,1-.14-.14V48.85a.83.83,0,0,0-.85-.9.82.82,0,0,0-.84.89v2.65a.13.13,0,0,1-.14.14h-.74a.13.13,0,0,1-.14-.14V47.28a.13.13,0,0,1,.14-.14h.74a.13.13,0,0,1,.14.14v.24s0,.06,0,0a1.31,1.31,0,0,1,1.08-.47A1.47,1.47,0,0,1,100.15,48.64Z" fill="#71788a"/><path d="M25.79,59.76,24,53.88c0-.1,0-.16.11-.16h.8a.15.15,0,0,1,.16.12l1.3,4.54s.05,0,.07,0l1.29-4.53a.16.16,0,0,1,.16-.13h.78c.1,0,.14.06.12.16l-1.85,5.88a.15.15,0,0,1-.16.12H26A.15.15,0,0,1,25.79,59.76Z" fill="#71788a"/><path d="M32.06,58.6c0-.08.12-.1.19,0l.42.33a.13.13,0,0,1,0,.19A2,2,0,0,1,31,60a1.84,1.84,0,0,1-1.85-1.25A3.37,3.37,0,0,1,29,57.61a3.11,3.11,0,0,1,.1-.93,1.82,1.82,0,0,1,1.85-1.37,1.84,1.84,0,0,1,1.93,1.81q0,.33.06.72a.14.14,0,0,1-.14.14H30.05S30,58,30,58a1.37,1.37,0,0,0,.05.39,1,1,0,0,0,1.05.66A1.16,1.16,0,0,0,32.06,58.6Zm-2-1.79a1.22,1.22,0,0,0-.07.37s0,0,0,0h1.77a0,0,0,0,0,.05,0c0-.13,0-.24-.05-.32a.88.88,0,0,0-.9-.67A.8.8,0,0,0,30.08,56.81Z" fill="#71788a"/><path d="M36.41,55.43a.14.14,0,0,1,.08.17l-.14.73c0,.1-.07.12-.17.09a1.26,1.26,0,0,0-.45,0,.87.87,0,0,0-.86.89v2.45a.13.13,0,0,1-.14.15H34a.13.13,0,0,1-.14-.15V55.52a.13.13,0,0,1,.14-.14h.74a.13.13,0,0,1,.14.14v.35s0,.06.05,0a1.17,1.17,0,0,1,1-.55A1.13,1.13,0,0,1,36.41,55.43Z" fill="#71788a"/><path d="M40.69,56.81v2.92a.13.13,0,0,1-.14.15h-.74a.13.13,0,0,1-.14-.15v-.22s0,0-.06,0a1.77,1.77,0,0,1-1.27.46,1.31,1.31,0,0,1-1.48-1.33c0-.91.66-1.45,1.83-1.45h.93a0,0,0,0,0,.05-.05v-.21c0-.45-.26-.72-.82-.72s-.69.16-.78.42c0,.08-.07.12-.16.11l-.79-.1c-.09,0-.14,0-.13-.11.1-.7.82-1.2,1.84-1.2S40.69,56,40.69,56.81Zm-1,1.52v-.41a0,0,0,0,0-.05-.05h-.73c-.62,0-1,.24-1,.68s.32.59.74.59S39.67,58.81,39.67,58.33Z" fill="#71788a"/><path d="M45.43,56.89v2.84a.14.14,0,0,1-.14.15h-.74a.13.13,0,0,1-.14-.15V57.1a.84.84,0,0,0-.85-.91.83.83,0,0,0-.84.9v2.64a.13.13,0,0,1-.14.15h-.74a.13.13,0,0,1-.14-.15V55.52a.13.13,0,0,1,.14-.14h.74a.13.13,0,0,1,.14.14v.24c0,.05,0,.06.05,0a1.29,1.29,0,0,1,1.08-.48A1.48,1.48,0,0,1,45.43,56.89Z" fill="#71788a"/><path d="M46.32,58.68v0a.13.13,0,0,1,.14-.14h.7c.09,0,.14,0,.14.06v.06c0,.29.34.54.85.54s.79-.22.79-.51-.51-.43-1.09-.62-1.49-.49-1.49-1.35.71-1.35,1.75-1.35,1.79.55,1.79,1.34c0,.06,0,.1-.14.1h-.68c-.08,0-.14,0-.14-.05v0c0-.29-.3-.54-.83-.54s-.77.17-.77.48.49.45,1.08.62S50,57.71,50,58.59s-.72,1.34-1.8,1.34S46.32,59.39,46.32,58.68Z" fill="#71788a"/><path d="M53.06,56.21h-.85s-.06,0-.06,0v2.08c0,.45.2.64.61.64H53a.13.13,0,0,1,.14.14v.59a.13.13,0,0,1-.14.15h-.42c-.85,0-1.38-.21-1.39-1.15V56.26a.05.05,0,0,0,0,0h-.46a.13.13,0,0,1-.14-.14v-.55a.13.13,0,0,1,.14-.14h.46s0,0,0-.05v-1a.13.13,0,0,1,.14-.14H52a.13.13,0,0,1,.14.14v1s0,.05.06.05h.85a.13.13,0,0,1,.14.14v.55A.13.13,0,0,1,53.06,56.21Z" fill="#71788a"/><path d="M57.68,56.81v2.92a.13.13,0,0,1-.14.15H56.8a.14.14,0,0,1-.14-.15v-.22s0,0-.06,0a1.76,1.76,0,0,1-1.26.46,1.31,1.31,0,0,1-1.49-1.33c0-.91.66-1.45,1.83-1.45h.93s0,0,0-.05v-.21c0-.45-.26-.72-.81-.72s-.7.16-.79.42a.13.13,0,0,1-.15.11l-.8-.1c-.08,0-.14,0-.13-.11.11-.7.83-1.2,1.84-1.2S57.68,56,57.68,56.81Zm-1,1.52v-.41s0-.05,0-.05h-.73c-.61,0-1,.24-1,.68s.33.59.75.59A.94.94,0,0,0,56.66,58.33Z" fill="#71788a"/><path d="M58.7,59.73V53.86a.14.14,0,0,1,.14-.14h.74a.13.13,0,0,1,.14.14v5.87a.13.13,0,0,1-.14.15h-.74A.14.14,0,0,1,58.7,59.73Z" fill="#71788a"/><path d="M63.07,56.21h-.85a0,0,0,0,0,0,0v2.08c0,.45.19.64.6.64H63a.13.13,0,0,1,.14.14v.59a.13.13,0,0,1-.14.15h-.42c-.84,0-1.38-.21-1.39-1.15V56.26a.05.05,0,0,0,0,0h-.46a.13.13,0,0,1-.14-.14v-.55a.13.13,0,0,1,.14-.14h.46s0,0,0-.05v-1a.13.13,0,0,1,.14-.14H62a.13.13,0,0,1,.14.14v1a0,0,0,0,0,0,.05h.85a.13.13,0,0,1,.14.14v.55A.13.13,0,0,1,63.07,56.21Z" fill="#71788a"/><path d="M66.91,55.38h.73a.13.13,0,0,1,.14.14v4.21a.13.13,0,0,1-.14.15h-.73a.14.14,0,0,1-.14-.15v-.22s0-.07-.06,0a1.28,1.28,0,0,1-1.07.45,1.45,1.45,0,0,1-1.57-1.49V55.52a.13.13,0,0,1,.14-.14H65a.14.14,0,0,1,.14.14v2.64c0,.55.29.91.81.91a.84.84,0,0,0,.87-.91V55.52A.14.14,0,0,1,66.91,55.38Z" fill="#71788a"/><path d="M72.6,56.89v2.84a.13.13,0,0,1-.14.15h-.74a.14.14,0,0,1-.14-.15V57.1a.84.84,0,1,0-1.68,0v2.64a.14.14,0,0,1-.14.15H69a.13.13,0,0,1-.14-.15V55.52a.13.13,0,0,1,.14-.14h.74a.14.14,0,0,1,.14.14v.24c0,.05,0,.06,0,0A1.26,1.26,0,0,1,71,55.31,1.47,1.47,0,0,1,72.6,56.89Z" fill="#71788a"/><path d="M76.55,55.38h.74a.13.13,0,0,1,.14.14v4.06c0,1.79-1.39,2.15-2.79,2-.08,0-.12-.06-.12-.16l0-.65c0-.09.06-.13.15-.12,1.14.09,1.71-.16,1.71-1.12v0s0-.06-.06,0a1.32,1.32,0,0,1-1,.38,1.71,1.71,0,0,1-1.71-1.18,4,4,0,0,1-.11-1.06,3.24,3.24,0,0,1,.14-1.12,1.67,1.67,0,0,1,1.62-1.18,1.43,1.43,0,0,1,1.07.4s.06,0,.06,0v-.16A.13.13,0,0,1,76.55,55.38Zm-.14,2.22a2.44,2.44,0,0,0-.07-.77.81.81,0,0,0-.84-.64.88.88,0,0,0-.85.64,2.12,2.12,0,0,0-.1.78,2.43,2.43,0,0,0,.08.76.9.9,0,0,0,.88.64.81.81,0,0,0,.84-.63A3,3,0,0,0,76.41,57.6Z" fill="#71788a"/><path d="M78.28,58.68v0a.13.13,0,0,1,.14-.14h.71c.09,0,.14,0,.14.06v.06c0,.29.34.54.85.54s.79-.22.79-.51-.52-.43-1.1-.62-1.48-.49-1.48-1.35.71-1.35,1.75-1.35,1.79.55,1.79,1.34c0,.06-.05.1-.14.1h-.68c-.09,0-.14,0-.14-.05v0c0-.29-.31-.54-.83-.54s-.78.17-.78.48.5.45,1.08.62c.73.21,1.55.48,1.55,1.36s-.72,1.34-1.8,1.34S78.28,59.39,78.28,58.68Z" fill="#71788a"/><path d="M85,56.21h-.86a0,0,0,0,0,0,0v2.08c0,.45.19.64.61.64H85a.13.13,0,0,1,.14.14v.59a.14.14,0,0,1-.14.15h-.43c-.84,0-1.38-.21-1.38-1.15V56.26a.06.06,0,0,0-.06,0h-.45a.13.13,0,0,1-.15-.14v-.55a.14.14,0,0,1,.15-.14h.45s.06,0,.06-.05v-1a.13.13,0,0,1,.14-.14H84a.13.13,0,0,1,.14.14v1a0,0,0,0,0,0,.05H85a.14.14,0,0,1,.14.14v.55A.13.13,0,0,1,85,56.21Z" fill="#71788a"/><path d="M89,58.6c.05-.08.12-.1.19,0l.42.33a.13.13,0,0,1,0,.19A2,2,0,0,1,87.9,60a1.82,1.82,0,0,1-1.84-1.25,3.78,3.78,0,0,1-.08-2,1.82,1.82,0,0,1,1.85-1.37,1.84,1.84,0,0,1,1.93,1.81q0,.33.06.72a.14.14,0,0,1-.14.14H87s0,0,0,.05a1.37,1.37,0,0,0,0,.39,1,1,0,0,0,1,.66A1.16,1.16,0,0,0,89,58.6Zm-2-1.79a1.22,1.22,0,0,0-.07.37s0,0,0,0h1.77a0,0,0,0,0,0,0c0-.13,0-.24,0-.32a.88.88,0,0,0-.9-.67A.8.8,0,0,0,87,56.81Z" fill="#71788a"/><path d="M90.77,58.66a3.07,3.07,0,0,1-.14-1,3.13,3.13,0,0,1,.14-1,1.84,1.84,0,0,1,1.85-1.26,1.88,1.88,0,0,1,1.87,1.21.93.93,0,0,1,.06.24c0,.1,0,.14-.12.16L93.7,57a.12.12,0,0,1-.15-.11l0-.11a.94.94,0,0,0-1.78,0,3,3,0,0,0-.08.79,2.89,2.89,0,0,0,.08.78.93.93,0,0,0,1.77,0,.1.1,0,0,0,0,0,.16.16,0,0,1,.17-.12l.73.11a.13.13,0,0,1,.11.16,1.36,1.36,0,0,1,0,.17A1.83,1.83,0,0,1,92.62,60,1.86,1.86,0,0,1,90.77,58.66Z" fill="#71788a"/><path d="M99.15,56.89v2.84a.14.14,0,0,1-.15.15h-.73a.13.13,0,0,1-.14-.15V57.1a.84.84,0,0,0-.85-.91.83.83,0,0,0-.84.9v2.64a.13.13,0,0,1-.14.15h-.74a.13.13,0,0,1-.14-.15V53.86a.13.13,0,0,1,.14-.14h.74a.13.13,0,0,1,.14.14v1.9c0,.05,0,.06,0,0a1.29,1.29,0,0,1,1.08-.48A1.48,1.48,0,0,1,99.15,56.89Z" fill="#71788a"/><path d="M103.93,56.89v2.84a.13.13,0,0,1-.14.15h-.74a.13.13,0,0,1-.14-.15V57.1a.85.85,0,1,0-1.69,0v2.64a.13.13,0,0,1-.14.15h-.74a.13.13,0,0,1-.14-.15V55.52a.13.13,0,0,1,.14-.14h.74a.13.13,0,0,1,.14.14v.24c0,.05,0,.06,0,0a1.29,1.29,0,0,1,1.09-.48A1.47,1.47,0,0,1,103.93,56.89Z" fill="#71788a"/><path d="M104.9,54.18a.62.62,0,0,1,.66-.63.64.64,0,1,1,0,1.27A.63.63,0,0,1,104.9,54.18Zm.15,5.55V55.52a.14.14,0,0,1,.15-.14h.73a.13.13,0,0,1,.14.14v4.21a.13.13,0,0,1-.14.15h-.73A.14.14,0,0,1,105.05,59.73Z" fill="#71788a"/><path d="M107.23,59.73V53.86a.13.13,0,0,1,.14-.14h.74a.14.14,0,0,1,.14.14V57c0,.05,0,.07.06,0l1.39-1.55a.25.25,0,0,1,.18-.08h.84c.12,0,.17.09.09.18l-1.08,1.28a.06.06,0,0,0,0,.07l1.3,2.8c0,.1,0,.17-.1.17h-.78a.15.15,0,0,1-.16-.11l-1-2.2s0,0-.07,0l-.69.8a.08.08,0,0,0,0,.06v1.31a.14.14,0,0,1-.14.15h-.74A.13.13,0,0,1,107.23,59.73Z" fill="#71788a"/></svg>