<svg id="fa601060-dd7e-4aaf-a234-07aaeae7dde5" data-name="Layer 1" xmlns="http://www.w3.org/2000/svg" viewBox="0 0 175 70"><path d="M69.14,2.21s0,0,0,0a0,0,0,0,0,0,0s0,0,0,0a0,0,0,0,0,0,0" fill="#71788a"/><path d="M71.77,2.22a0,0,0,0,0,0,0,0,0,0,0,0,0,0,0,0,0,0,0,0,0,0,0,0,0,0,0,0" fill="#71788a"/><path d="M74.39,2.22s0,0,0,0a0,0,0,0,0,0,0s0,0,0,0a0,0,0,0,0,0,0" fill="#71788a"/><path d="M77,2.22a0,0,0,0,0,0,0s0,0,0,0a0,0,0,0,0,0,0s0,0,0,0" fill="#71788a"/><path d="M79.64,2.22s0,0,0,0a0,0,0,0,0,0,0s0,0,0,0a0,0,0,0,0,0,0" fill="#71788a"/><path d="M82.27,2.22s0,0,0,0,0,0,0,0a0,0,0,0,0,0,0,0,0,0,0,0,0,0" fill="#71788a"/><path d="M84.89,2.21a0,0,0,0,0,0,0s0,0,0,0,0,0,0,0a0,0,0,0,0,0,0" fill="#71788a"/><path d="M87.51,2.2h0l0,0v0h0" fill="#71788a"/><path d="M90.14,2.19h0" fill="#71788a"/><path d="M57.33,4.82a0,0,0,0,0,0,0h0" fill="#71788a"/><path d="M60,4.83a0,0,0,0,0,0,0l0,0,0,0a0,0,0,0,0,0,0" fill="#71788a"/><path d="M62.58,4.85a0,0,0,1,0,0-.08,0,0,0,0,0,0,.08" fill="#71788a"/><path d="M65.21,4.88a.07.07,0,0,0,0-.14.07.07,0,0,0,0,.14" fill="#71788a"/><path d="M67.83,4.9a.09.09,0,1,0-.09-.09.09.09,0,0,0,.09.09" fill="#71788a"/><path d="M70.46,4.91a.1.1,0,0,0,0-.2.1.1,0,1,0,0,.2" fill="#71788a"/><path d="M73.08,4.93A.12.12,0,1,0,73,4.81a.13.13,0,0,0,.12.12" fill="#71788a"/><path d="M75.7,4.93a.12.12,0,1,0,0-.24.12.12,0,1,0,0,.24" fill="#71788a"/><path d="M78.33,4.93a.12.12,0,1,0-.12-.12.12.12,0,0,0,.12.12" fill="#71788a"/><path d="M81,4.93a.12.12,0,1,0,0-.24.12.12,0,0,0,0,.24" fill="#71788a"/><path d="M83.58,4.91a.1.1,0,0,0,0-.2.1.1,0,1,0,0,.2" fill="#71788a"/><path d="M86.2,4.89a.08.08,0,1,0,0-.16.08.08,0,0,0,0,.16" fill="#71788a"/><path d="M88.83,4.87a.06.06,0,0,0,0-.12.06.06,0,0,0,0,.12" fill="#71788a"/><path d="M91.45,4.85a0,0,0,0,0,0-.08,0,0,0,0,0,0,.08,0,0,0,0,0,0,0" fill="#71788a"/><path d="M94.08,4.83a0,0,0,0,0,0,0,0,0,0,0,0,0,0s0,0,0,0,0,0,0,0" fill="#71788a"/><path d="M56,7.46s0,0,0,0l0,0a0,0,0,0,0,0,0s0,0,0,0" fill="#71788a"/><path d="M58.65,7.49a.06.06,0,0,0,0-.11.05.05,0,0,0,0,0,.06.06,0,0,0,0,.06" fill="#71788a"/><path d="M61.27,7.51a.08.08,0,0,0,.08-.08.08.08,0,0,0-.16,0,.08.08,0,0,0,.08.08" fill="#71788a"/><path d="M63.9,7.55A.11.11,0,0,0,64,7.43a.11.11,0,0,0-.11-.11.11.11,0,0,0-.12.11.12.12,0,0,0,.12.12" fill="#71788a"/><path d="M66.52,7.59a.16.16,0,0,0,.16-.16.16.16,0,1,0-.32,0,.16.16,0,0,0,.16.16" fill="#71788a"/><path d="M69.14,7.62a.18.18,0,0,0,.19-.19.18.18,0,0,0-.19-.18.19.19,0,1,0,0,.37" fill="#71788a"/><path d="M71.77,7.65a.22.22,0,1,0-.22-.22.22.22,0,0,0,.22.22" fill="#71788a"/><path d="M74.39,7.67a.24.24,0,1,0,0-.47.24.24,0,0,0,0,.47" fill="#71788a"/><path d="M77,7.68a.25.25,0,1,0-.25-.25.25.25,0,0,0,.25.25" fill="#71788a"/><path d="M79.64,7.68a.25.25,0,1,0-.25-.25.25.25,0,0,0,.25.25" fill="#71788a"/><path d="M45.52,17.94s0,0,0,0h0" fill="#71788a"/><path d="M44.21,20.57h0l0,0s0,0,0,0a0,0,0,0,0,0,0" fill="#71788a"/><path d="M45.52,23.2s0,0,0,0,0,0,0,0a0,0,0,0,0,0,0,0,0,0,0,0,0,0" fill="#71788a"/><path d="M44.21,25.83s0,0,0,0a0,0,0,0,0,0,0,0,0,0,0,0,0,0s0,0,0,0" fill="#71788a"/><path d="M45.52,28.45s0,0,0,0,0,0,0,0a0,0,0,0,0,0,0,0,0,0,0,0,0,0" fill="#71788a"/><path d="M44.21,31.07l0,0h0a0,0,0,0,0,0,0s0,0,0,0" fill="#71788a"/><path d="M45.52,33.69h0" fill="#71788a"/><path d="M49.46,41.57a0,0,0,0,0,0,0l0,0,0,0a0,0,0,0,0,0,0" fill="#71788a"/><path d="M52.09,41.62a.07.07,0,0,0,0-.14.07.07,0,1,0,0,.14" fill="#71788a"/><path d="M54.71,41.69a.14.14,0,1,0-.14-.14.14.14,0,0,0,.14.14" fill="#71788a"/><path d="M57.33,41.77a.22.22,0,0,0,0-.44.22.22,0,0,0,0,.44" fill="#71788a"/><path d="M60,41.86a.31.31,0,1,0-.31-.31.31.31,0,0,0,.31.31" fill="#71788a"/><path d="M62.58,42a.42.42,0,0,0,.42-.42.41.41,0,0,0-.42-.41.41.41,0,0,0-.41.41.41.41,0,0,0,.41.42" fill="#71788a"/><path d="M65.21,42.08a.52.52,0,0,0,.52-.53.52.52,0,0,0-.52-.52.52.52,0,0,0-.53.52.53.53,0,0,0,.53.53" fill="#71788a"/><path d="M67.83,42.18a.63.63,0,1,0,0-1.26.63.63,0,0,0,0,1.26" fill="#71788a"/><path d="M70.46,42.29a.74.74,0,1,0,0-1.48.74.74,0,1,0,0,1.48" fill="#71788a"/><path d="M73.08,42.39a.84.84,0,1,0-.84-.84.85.85,0,0,0,.84.84" fill="#71788a"/><path d="M91.45,42.34a.79.79,0,1,0-.79-.79.79.79,0,0,0,.79.79" fill="#71788a"/><path d="M94.08,42.24a.69.69,0,1,0-.7-.69.69.69,0,0,0,.7.69" fill="#71788a"/><path d="M104.57,41.82a.27.27,0,1,0-.27-.27.27.27,0,0,0,.27.27" fill="#71788a"/><path d="M107.2,41.73a.18.18,0,0,0,.17-.18.17.17,0,0,0-.17-.17.17.17,0,0,0-.18.17.18.18,0,0,0,.18.18" fill="#71788a"/><path d="M109.82,41.65a.1.1,0,1,0-.1-.1.09.09,0,0,0,.1.1" fill="#71788a"/><path d="M112.45,41.59a0,0,0,0,0,0,0,0,0,0,0,0,0,0,0,0,0,0,0,0,0s0,0,0,0" fill="#71788a"/><path d="M115.07,41.56a0,0,0,0,0,0,0h0a0,0,0,0,0,0,0" fill="#71788a"/><path d="M53.4,44.2l0,0a0,0,0,0,0,0,0,0,0,0,0,0,0,0s0,0,0,0" fill="#71788a"/><path d="M56,44.25a.07.07,0,0,0,.07-.07.07.07,0,1,0-.14,0,.07.07,0,0,0,.07.07" fill="#71788a"/><path d="M58.65,44.31a.13.13,0,0,0,.13-.13.13.13,0,0,0-.13-.14.14.14,0,0,0-.14.14.13.13,0,0,0,.14.13" fill="#71788a"/><path d="M61.27,44.39a.21.21,0,0,0,.21-.21.21.21,0,1,0-.42,0,.21.21,0,0,0,.21.21" fill="#71788a"/><path d="M63.9,44.47a.3.3,0,0,0,0-.59.3.3,0,1,0,0,.59" fill="#71788a"/><path d="M66.52,44.56a.39.39,0,1,0-.39-.38.39.39,0,0,0,.39.38" fill="#71788a"/><path d="M69.14,44.65a.48.48,0,1,0-.47-.47.47.47,0,0,0,.47.47" fill="#71788a"/><path d="M71.77,44.73a.56.56,0,1,0-.56-.55.55.55,0,0,0,.56.55" fill="#71788a"/><path d="M74.39,44.8a.63.63,0,1,0-.62-.62.63.63,0,0,0,.62.62" fill="#71788a"/><path d="M77,44.87a.7.7,0,1,0-.69-.69.69.69,0,0,0,.69.69" fill="#71788a"/><path d="M79.64,44.91a.74.74,0,1,0-.73-.73.74.74,0,0,0,.73.73" fill="#71788a"/><path d="M82.27,44.93a.76.76,0,1,0-.76-.75.76.76,0,0,0,.76.75" fill="#71788a"/><path d="M84.89,44.93a.76.76,0,1,0-.76-.75.76.76,0,0,0,.76.75" fill="#71788a"/><path d="M87.51,44.9a.73.73,0,1,0-.72-.72.72.72,0,0,0,.72.72" fill="#71788a"/><path d="M90.14,44.85a.68.68,0,1,0-.68-.67.68.68,0,0,0,.68.67" fill="#71788a"/><path d="M92.76,44.79a.62.62,0,0,0,0-1.23.62.62,0,0,0,0,1.23" fill="#71788a"/><path d="M95.39,44.71a.54.54,0,1,0-.54-.53.54.54,0,0,0,.54.53" fill="#71788a"/><path d="M98,44.63a.46.46,0,1,0-.45-.45.45.45,0,0,0,.45.45" fill="#71788a"/><path d="M103.26,44.45a.28.28,0,1,0-.28-.27.28.28,0,0,0,.28.27" fill="#71788a"/><path d="M105.88,44.37a.2.2,0,1,0-.19-.19.2.2,0,0,0,.19.19" fill="#71788a"/><path d="M108.51,44.3a.12.12,0,0,0,.12-.12.12.12,0,1,0-.24,0,.12.12,0,0,0,.12.12" fill="#71788a"/><path d="M111.13,44.24a.07.07,0,0,0,.07-.06.07.07,0,0,0-.07-.07.07.07,0,0,0-.06.07.06.06,0,0,0,.06.06" fill="#71788a"/><path d="M113.76,44.2l0,0s0,0,0,0,0,0,0,0a0,0,0,0,0,0,0" fill="#71788a"/><path d="M54.71,46.83a0,0,0,0,0,0-.06,0,0,0,0,0,0,.06,0,0,0,0,0,0,0" fill="#71788a"/><path d="M57.33,46.87a.07.07,0,1,0,0-.14.07.07,0,0,0,0,.14" fill="#71788a"/><path d="M60,46.92a.12.12,0,1,0-.12-.12.12.12,0,0,0,.12.12" fill="#71788a"/><path d="M62.58,47a.18.18,0,1,0-.18-.18.18.18,0,0,0,.18.18" fill="#71788a"/><path d="M65.21,47.05a.25.25,0,0,0,0-.5.25.25,0,1,0,0,.5" fill="#71788a"/><path d="M67.83,47.12a.32.32,0,1,0-.32-.32.32.32,0,0,0,.32.32" fill="#71788a"/><path d="M70.46,47.19a.39.39,0,1,0-.39-.39.39.39,0,0,0,.39.39" fill="#71788a"/><path d="M73.08,47.24a.44.44,0,1,0,0-.88.44.44,0,1,0,0,.88" fill="#71788a"/><path d="M75.7,47.29a.49.49,0,0,0,.5-.49.5.5,0,1,0-1,0,.49.49,0,0,0,.49.49" fill="#71788a"/><path d="M78.33,47.32a.52.52,0,1,0-.52-.52.52.52,0,0,0,.52.52" fill="#71788a"/><path d="M81,47.35a.55.55,0,1,0-.54-.55.55.55,0,0,0,.54.55" fill="#71788a"/><path d="M83.58,47.35a.55.55,0,0,0,0-1.1.55.55,0,1,0,0,1.1" fill="#71788a"/><path d="M86.2,47.33a.53.53,0,1,0,0-1.06.53.53,0,1,0,0,1.06" fill="#71788a"/><path d="M88.83,47.29a.49.49,0,0,0,.49-.49.5.5,0,1,0-1,0,.49.49,0,0,0,.5.49" fill="#71788a"/><path d="M91.45,47.25A.45.45,0,1,0,91,46.8a.45.45,0,0,0,.45.45" fill="#71788a"/><path d="M94.08,47.19a.39.39,0,1,0-.39-.39.39.39,0,0,0,.39.39" fill="#71788a"/><path d="M96.7,47.13a.33.33,0,1,0-.33-.33.33.33,0,0,0,.33.33" fill="#71788a"/><path d="M99.32,47.05a.25.25,0,1,0,0-.5.25.25,0,0,0,0,.5" fill="#71788a"/><path d="M102,47a.19.19,0,0,0,0-.38.19.19,0,1,0,0,.38" fill="#71788a"/><path d="M104.57,46.92a.12.12,0,1,0,0-.24.12.12,0,1,0,0,.24" fill="#71788a"/><path d="M107.2,46.87a.07.07,0,1,0,0-.14.07.07,0,1,0,0,.14" fill="#71788a"/><path d="M109.82,46.83a0,0,0,1,0,0-.06,0,0,0,0,0,0,.06" fill="#71788a"/><path d="M58.65,49.45s0,0,0,0a0,0,0,0,0,0,0s0,0,0,0a0,0,0,0,0,0,0" fill="#71788a"/><path d="M61.27,49.48a.06.06,0,0,0,0-.06,0,0,0,1,0-.1,0,.06.06,0,0,0,.05.06" fill="#71788a"/><path d="M63.9,49.52a.09.09,0,0,0,.09-.1.09.09,0,0,0-.09-.09.09.09,0,0,0-.1.09.09.09,0,0,0,.1.1" fill="#71788a"/><path d="M66.52,49.56a.14.14,0,0,0,.14-.14.14.14,0,0,0-.28,0,.14.14,0,0,0,.14.14" fill="#71788a"/><path d="M69.14,49.61a.18.18,0,0,0,.19-.19.18.18,0,0,0-.19-.18.19.19,0,1,0,0,.37" fill="#71788a"/><path d="M71.77,49.66a.24.24,0,0,0,.24-.24.24.24,0,0,0-.48,0,.24.24,0,0,0,.24.24" fill="#71788a"/><path d="M74.39,49.71a.29.29,0,1,0,0-.57.29.29,0,0,0,0,.57" fill="#71788a"/><path d="M77,49.74a.32.32,0,0,0,.32-.32A.33.33,0,0,0,77,49.1a.32.32,0,0,0-.32.32.32.32,0,0,0,.32.32" fill="#71788a"/><path d="M79.64,49.77a.35.35,0,0,0,.35-.35.35.35,0,0,0-.7,0,.35.35,0,0,0,.35.35" fill="#71788a"/><path d="M82.27,49.79a.37.37,0,1,0-.37-.37.36.36,0,0,0,.37.37" fill="#71788a"/><path d="M84.89,49.79a.37.37,0,1,0-.36-.37.36.36,0,0,0,.36.37" fill="#71788a"/><path d="M87.51,49.78a.36.36,0,1,0,0-.71.36.36,0,0,0,0,.71" fill="#71788a"/><path d="M90.14,49.76a.34.34,0,1,0-.34-.34.34.34,0,0,0,.34.34" fill="#71788a"/><path d="M92.76,49.72a.3.3,0,1,0,0-.59.3.3,0,1,0,0,.59" fill="#71788a"/><path d="M95.39,49.68a.26.26,0,0,0,0-.51.26.26,0,1,0,0,.51" fill="#71788a"/><path d="M98,49.63a.21.21,0,1,0,0-.41.2.2,0,0,0-.2.2.2.2,0,0,0,.2.21" fill="#71788a"/><path d="M100.64,49.58a.16.16,0,0,0,.16-.16.17.17,0,0,0-.16-.16.16.16,0,0,0-.16.16.16.16,0,0,0,.16.16" fill="#71788a"/><path d="M103.26,49.53a.11.11,0,0,0,.11-.11.11.11,0,0,0-.22,0,.11.11,0,0,0,.11.11" fill="#71788a"/><path d="M105.88,49.49a.07.07,0,0,0,.07-.07.07.07,0,0,0-.07-.06.06.06,0,0,0-.06.06.07.07,0,0,0,.06.07" fill="#71788a"/><path d="M108.51,49.45a0,0,0,0,0,0,0s0,0,0,0,0,0,0,0a0,0,0,0,0,0,0" fill="#71788a"/><path d="M111.13,49.43h0" fill="#71788a"/><path d="M60,52.06h0a0,0,0,0,0,0,0" fill="#71788a"/><path d="M62.58,52.08a0,0,0,0,0,0,0,0,0,0,0,0,0,0,0,0,0,0,0,0,0,0,0,0,0,0,0,0" fill="#71788a"/><path d="M65.21,52.11a.06.06,0,1,0,0-.12.06.06,0,0,0,0,.12" fill="#71788a"/><path d="M67.83,52.14a.09.09,0,1,0-.09-.09.09.09,0,0,0,.09.09" fill="#71788a"/><path d="M70.46,52.17a.12.12,0,0,0,.12-.12.13.13,0,0,0-.12-.13.13.13,0,0,0-.13.13.12.12,0,0,0,.13.12" fill="#71788a"/><path d="M73.08,52.2a.15.15,0,0,0,.15-.15.15.15,0,0,0-.3,0,.15.15,0,0,0,.15.15" fill="#71788a"/><path d="M75.7,52.23a.18.18,0,1,0,0-.36.18.18,0,1,0,0,.36" fill="#71788a"/><path d="M78.33,52.25a.2.2,0,0,0,.2-.2.2.2,0,1,0-.4,0,.2.2,0,0,0,.2.2" fill="#71788a"/><path d="M81,52.26a.21.21,0,1,0,0-.42.21.21,0,0,0,0,.42" fill="#71788a"/><path d="M83.58,52.27a.22.22,0,1,0-.22-.22.22.22,0,0,0,.22.22" fill="#71788a"/><path d="M86.2,52.26a.21.21,0,1,0,0-.42.21.21,0,0,0,0,.42" fill="#71788a"/><path d="M88.83,52.25a.2.2,0,1,0-.2-.2.2.2,0,0,0,.2.2" fill="#71788a"/><path d="M91.45,52.22a.17.17,0,0,0,.18-.17.18.18,0,0,0-.18-.18.17.17,0,0,0-.17.18.16.16,0,0,0,.17.17" fill="#71788a"/><path d="M94.08,52.19a.14.14,0,0,0,.13-.14.13.13,0,0,0-.13-.14.14.14,0,0,0-.14.14.14.14,0,0,0,.14.14" fill="#71788a"/><path d="M96.7,52.16a.11.11,0,1,0-.11-.11.11.11,0,0,0,.11.11" fill="#71788a"/><path d="M99.32,52.12a.07.07,0,1,0,0-.14.07.07,0,0,0,0,.14" fill="#71788a"/><path d="M102,52.09a0,0,0,0,0,0,0,0,0,0,0,0,0,0,0,0,0,0,0,0,0,0,0,0,0,0,0,0" fill="#71788a"/><path d="M104.57,52.07a0,0,0,0,0,0,0l0,0,0,0a0,0,0,0,0,0,0" fill="#71788a"/><path d="M66.52,54.68h0" fill="#71788a"/><path d="M69.14,54.69s0,0,0,0,0,0,0,0a0,0,0,0,0,0,0s0,0,0,0" fill="#71788a"/><path d="M71.77,54.71s0,0,0,0a0,0,0,0,0,0,0s0,0,0,0a0,0,0,0,0,0,0" fill="#71788a"/><path d="M74.39,54.73a.06.06,0,0,0,.06-.06.06.06,0,0,0-.12,0,.06.06,0,0,0,.06.06" fill="#71788a"/><path d="M77,54.75a.08.08,0,0,0,.07-.08A.07.07,0,0,0,77,54.6a.08.08,0,0,0-.08.07.09.09,0,0,0,.08.08" fill="#71788a"/><path d="M79.64,54.76a.09.09,0,0,0,.09-.09.09.09,0,0,0-.18,0,.09.09,0,0,0,.09.09" fill="#71788a"/><path d="M82.27,54.77a.09.09,0,0,0,.09-.1.09.09,0,0,0-.09-.09.09.09,0,0,0-.1.09.09.09,0,0,0,.1.1" fill="#71788a"/><path d="M84.89,54.77a.09.09,0,0,0,.1-.1.1.1,0,1,0-.2,0,.09.09,0,0,0,.1.1" fill="#71788a"/><path d="M87.51,54.77a.09.09,0,0,0,.1-.1.09.09,0,0,0-.1-.09.09.09,0,0,0-.09.09.09.09,0,0,0,.09.1" fill="#71788a"/><path d="M90.14,54.76a.09.09,0,0,0,.09-.09.09.09,0,0,0-.18,0,.09.09,0,0,0,.09.09" fill="#71788a"/><path d="M92.76,54.75a.09.09,0,0,0,.08-.08.08.08,0,0,0-.08-.07.07.07,0,0,0-.07.07.08.08,0,0,0,.07.08" fill="#71788a"/><path d="M95.39,54.73a.06.06,0,0,0,.06-.06.06.06,0,0,0-.12,0,.06.06,0,0,0,.06.06" fill="#71788a"/><path d="M98,54.71a0,0,0,0,0,0,0s0,0,0,0a0,0,0,0,0,0,0s0,0,0,0" fill="#71788a"/><path d="M100.64,54.69s0,0,0,0a0,0,0,0,0,0,0s0,0,0,0,0,0,0,0" fill="#71788a"/><path d="M103.26,54.68h0" fill="#71788a"/><path d="M98.62,53.26l-1,.05a.05.05,0,0,0-.06.06l-.14,2s0,.06,0,0l1,0a1.09,1.09,0,0,0,1-1.08C99.55,53.61,99.18,53.23,98.62,53.26Z" fill="#71788a"/><path d="M113.26,53.28l-1,3.34c0,.05,0,.07,0,.06l1.53-.07a.08.08,0,0,0,.07-.08l-.55-3.25C113.32,53.22,113.28,53.24,113.26,53.28Z" fill="#71788a"/><path d="M27,50.72,26,67.85l122.31-6.5.79-16.93Zm66.42-1a.67.67,0,0,1,.75.78.9.9,0,0,1-.87.87.68.68,0,0,1-.75-.78A.91.91,0,0,1,93.42,49.71Zm-2.07.11a.67.67,0,0,1,.73.78.89.89,0,0,1-.85.87.68.68,0,0,1-.76-.78A.9.9,0,0,1,91.35,49.82ZM35.86,63.05a.15.15,0,0,1-.15.14l-1.35.07a.11.11,0,0,1-.13-.13l.35-5c0-.06,0-.06-.07,0l-1.06,1.77a.24.24,0,0,1-.18.1l-.39,0a.17.17,0,0,1-.17-.09l-.8-1.67s-.07,0-.07,0l-.36,5a.15.15,0,0,1-.14.15L30,63.49a.12.12,0,0,1-.13-.13l.55-7.84a.15.15,0,0,1,.15-.14l1.33-.07a.16.16,0,0,1,.17.08l1.15,2.35s0,0,.07,0l1.5-2.49a.22.22,0,0,1,.18-.1l1.33-.07a.11.11,0,0,1,.13.13Zm6.57-7a.16.16,0,0,1-.15.15l-3.1.16a.06.06,0,0,0-.06.06L39,58.2s0,0,.06,0l1.93-.1a.12.12,0,0,1,.13.13L41,59.41a.15.15,0,0,1-.15.14l-1.93.1a.06.06,0,0,0-.06.06l-.14,1.87a.05.05,0,0,0,.06.06l3.1-.17a.12.12,0,0,1,.13.14L42,62.73a.17.17,0,0,1-.15.15l-4.65.24c-.08,0-.14,0-.13-.13l.55-7.84a.17.17,0,0,1,.15-.15l4.65-.24a.12.12,0,0,1,.13.14Zm6.08,6.37a.16.16,0,0,1-.15.15L47,62.61a.16.16,0,0,1-.16-.1L44.94,58s-.07,0-.07,0l-.3,4.6a.15.15,0,0,1-.15.14l-1.35.07a.11.11,0,0,1-.12-.13l.55-7.84a.14.14,0,0,1,.15-.14L45,54.63a.15.15,0,0,1,.16.09l1.89,4.51c0,.05.07,0,.07,0l.31-4.57a.17.17,0,0,1,.15-.15l1.34-.06a.11.11,0,0,1,.13.13Zm6.59-5.8a.15.15,0,0,1-.15.15l-1.33.06c-.08,0-.13,0-.13-.13l0-.21a.84.84,0,0,0-1-.91.9.9,0,0,0-.95.85c0,.55.34.77,1.35,1.24s2.11,1,2,2.37a2.68,2.68,0,0,1-2.78,2.43c-1.58.08-2.56-.78-2.46-2.14l0-.31a.15.15,0,0,1,.15-.15l1.33-.07a.12.12,0,0,1,.13.13l0,.23c0,.54.36.93,1,.9a1,1,0,0,0,1-.87c0-.55-.41-.76-1.33-1.2s-2.12-1-2-2.46a2.59,2.59,0,0,1,2.68-2.36c1.57-.08,2.58.81,2.48,2.22Zm6.2-.38a.16.16,0,0,1-.15.16l-1.36.13c-.09,0-.13,0-.13-.12v-.15a.85.85,0,0,0-.94-1,1.13,1.13,0,0,0-1.09,1.11l-.24,3.4a.84.84,0,0,0,.94,1,1.11,1.11,0,0,0,1.09-1.1l0-.15c0-.09,0-.13.14-.13h1.35c.08,0,.14,0,.14.07v.09a2.8,2.8,0,0,1-2.83,2.63,2.13,2.13,0,0,1-2.47-2.41L56,56.48a2.81,2.81,0,0,1,2.83-2.66,2.1,2.1,0,0,1,2.48,2.33Zm5.89,5.22a.15.15,0,0,1-.15.14l-1.36.07c-.08,0-.13,0-.13-.13l.23-3.17a.05.05,0,0,0-.06-.06l-1.85.1a.06.06,0,0,0-.06.06l-.22,3.17a.16.16,0,0,1-.15.15l-1.36.07A.12.12,0,0,1,62,61.7l.56-7.84a.14.14,0,0,1,.14-.14L64,53.65c.08,0,.13.05.13.13l-.22,3.13A0,0,0,0,0,64,57l1.85-.09a.06.06,0,0,0,.06-.06l.22-3.13a.16.16,0,0,1,.15-.15l1.36-.07a.12.12,0,0,1,.13.13Zm6.57-7a.17.17,0,0,1-.15.15l-3.1.16a.05.05,0,0,0-.06.06l-.13,1.81a0,0,0,0,0,.05.05l1.94-.1a.11.11,0,0,1,.12.14l-.07,1.12a.15.15,0,0,1-.15.14l-1.94.1a.07.07,0,0,0-.06.07L70.08,60s0,.06,0,.06l3.11-.16c.08,0,.13,0,.13.13l-.08,1.12a.17.17,0,0,1-.15.15l-4.66.24a.11.11,0,0,1-.12-.13l.55-7.84a.14.14,0,0,1,.15-.14l4.65-.24c.08,0,.13.05.13.13ZM71.45,59h0Zm2.62,0h0l0,0v0Zm2.62,0a0,0,0,0,1,0,0s0,0,0,0,0,0,0,0A0,0,0,0,1,76.69,59Zm3.15,1.74a.15.15,0,0,1-.15.15L78.31,61a.14.14,0,0,1-.15-.09l-1.9-4.55s-.06,0-.07,0l-.3,4.6a.15.15,0,0,1-.15.14l-1.34.07c-.08,0-.13,0-.13-.13l.55-7.83a.16.16,0,0,1,.15-.15L76.34,53a.15.15,0,0,1,.15.1l1.9,4.51s.06,0,.07,0L78.77,53a.15.15,0,0,1,.15-.14l1.34-.07a.11.11,0,0,1,.13.13ZM81.94,59a0,0,0,0,1,0,0s0,0,0,0,0,0,0,0A0,0,0,0,1,81.94,59Zm5.25,0a0,0,0,0,1,0,0s0,0,0,0,0,0,0,0A0,0,0,0,1,87.19,59Zm1.57-5.4a.15.15,0,0,1-.15.14l-3.09.16a.06.06,0,0,0-.06.06l-.13,1.81a.05.05,0,0,0,.06.06l1.92-.1c.08,0,.13.05.13.13L87.36,57a.15.15,0,0,1-.15.15l-1.92.1a.06.06,0,0,0-.06.06L85,60.51a.15.15,0,0,1-.15.14l-1.35.07a.11.11,0,0,1-.13-.13l.55-7.83a.16.16,0,0,1,.15-.15l4.64-.24c.08,0,.14.05.13.13Zm5.69,4a2.85,2.85,0,0,1-2.83,2.72A2.15,2.15,0,0,1,89.15,58l.39-5.48a.15.15,0,0,1,.14-.15L91,52.25a.12.12,0,0,1,.13.13L90.78,58a.86.86,0,0,0,.94,1,1.15,1.15,0,0,0,1.09-1.15l.39-5.56a.17.17,0,0,1,.15-.15l1.36-.07a.12.12,0,0,1,.13.13Zm6.34,2c0,.1,0,.16-.12.17l-1.42.07a.13.13,0,0,1-.15-.11l-.94-3.14a.06.06,0,0,0-.06,0l-.73,0a.06.06,0,0,0-.06.06l-.22,3.16a.16.16,0,0,1-.15.15l-1.36.07a.11.11,0,0,1-.12-.13L96,52.12a.16.16,0,0,1,.15-.15L99,51.83a2,2,0,0,1,2.15,2.32,2.53,2.53,0,0,1-1.39,2.18.06.06,0,0,0,0,.08Zm8.81-5.81a.15.15,0,0,1-.15.14l-1.35.07a.11.11,0,0,1-.13-.13V53.7a.84.84,0,0,0-.94-1,1.16,1.16,0,0,0-1.11,1.14l-.23,3.32a.89.89,0,0,0,1,1,1.06,1.06,0,0,0,1.06-1l0-.72a0,0,0,0,0,0-.05l-.91.05a.12.12,0,0,1-.12-.14l.07-1.05a.17.17,0,0,1,.15-.15l2.44-.12a.11.11,0,0,1,.13.13L109.38,57a2.8,2.8,0,0,1-2.83,2.67,2.13,2.13,0,0,1-2.47-2.39l.23-3.26a2.81,2.81,0,0,1,2.83-2.65,2.1,2.1,0,0,1,2.48,2.27Zm6.24,5.19-1.42.08c-.08,0-.13,0-.14-.11l-.19-1.12s0,0,0,0l-2.17.11s-.05,0-.06,0l-.35,1.15a.18.18,0,0,1-.17.13l-1.4.07c-.09,0-.13,0-.1-.14l2.63-8a.17.17,0,0,1,.17-.12l1.68-.09a.14.14,0,0,1,.16.11L116,58.9C116,59,115.94,59.05,115.84,59.05Zm6.37-2.81A2.85,2.85,0,0,1,119.38,59a2.15,2.15,0,0,1-2.47-2.45L117.3,51a.14.14,0,0,1,.14-.14l1.36-.07c.08,0,.13,0,.13.13l-.39,5.56a.87.87,0,0,0,.94,1.05,1.15,1.15,0,0,0,1.09-1.15l.4-5.57a.14.14,0,0,1,.14-.14l1.36-.07c.08,0,.13,0,.13.13Zm6.65-4.67a.15.15,0,0,1-.15.14L127,51.8a.06.06,0,0,0-.06.06l-.46,6.51a.14.14,0,0,1-.15.14l-1.35.07c-.08,0-.13,0-.13-.13l.46-6.5s0-.06-.05-.06L123.5,52a.11.11,0,0,1-.12-.13l.07-1.14a.15.15,0,0,1,.15-.14l5.21-.27a.11.11,0,0,1,.13.13Zm2.08,6.56a.15.15,0,0,1-.15.15l-1.36.07a.11.11,0,0,1-.12-.13l.55-7.84a.14.14,0,0,1,.15-.14l1.35-.07c.08,0,.13,0,.13.13Zm6.78-.35a.15.15,0,0,1-.15.15l-1.38.07a.14.14,0,0,1-.15-.09l-1.9-4.55s-.06,0-.07,0l-.3,4.6a.14.14,0,0,1-.15.14l-1.34.07c-.08,0-.13-.05-.13-.13l.55-7.83a.16.16,0,0,1,.15-.15l1.37-.07a.15.15,0,0,1,.15.1l1.9,4.5c0,.05.07,0,.07,0l.31-4.57a.15.15,0,0,1,.15-.14l1.34-.07a.11.11,0,0,1,.13.13Zm6.76-5.73a.16.16,0,0,1-.15.15l-1.35.07c-.09,0-.14-.05-.13-.13v-.25a.83.83,0,0,0-.94-1,1.16,1.16,0,0,0-1.11,1.14l-.23,3.31a.9.9,0,0,0,1,1,1.06,1.06,0,0,0,1.06-1.05l.05-.72a0,0,0,0,0-.05,0l-.91,0a.11.11,0,0,1-.12-.13l.07-1a.17.17,0,0,1,.15-.15l2.44-.12a.11.11,0,0,1,.13.13l-.13,1.84a2.8,2.8,0,0,1-2.83,2.66A2.12,2.12,0,0,1,139,55.43l.23-3.25A2.82,2.82,0,0,1,142,49.52a2.11,2.11,0,0,1,2.48,2.28Z" fill="#71788a"/><path d="M79.29,59a0,0,0,0,0,0,0s0,0,0,0a0,0,0,0,0,0,0S79.29,59,79.29,59Z" fill="#71788a"/><path d="M84.54,59a0,0,0,0,0,0,0,0,0,0,0,0,0,0s0,0,0,0S84.54,59,84.54,59Z" fill="#71788a"/><path d="M89.8,59a0,0,0,0,0,0,0h0l0,0S89.8,59,89.8,59Z" fill="#71788a"/><path d="M92.43,59h0Z" fill="#71788a"/><path d="M115.77,4.38l-73,6.52,10.05,32,41.68-1.11,10.25,8.56.8-9,11-.56ZM102.9,38.85l-.62,7-8-6.71-41,1.11-8-28.51L113,5.65l.74,32.65Z" fill="#71788a"/><path d="M110.11,12.21a1.59,1.59,0,0,1,.2,1c-.11,1.21-.21,2.44-.3,3.68s-.17,2.45-.24,3.66-.12,2.35-.15,3.45,0,2.13,0,3.08a.85.85,0,0,1-.2.67,1.26,1.26,0,0,1-.75.16,10,10,0,0,1-1.22,0,6,6,0,0,1-1.12-.16,1.51,1.51,0,0,1-.82-.42,1.54,1.54,0,0,1-.3-.95c-.1-.89-.19-1.95-.27-3.17s-.13-2.47-.18-3.77-.07-2.59-.09-3.86,0-2.42,0-3.43a1.23,1.23,0,0,1,.31-1A1.62,1.62,0,0,1,106,11a12.08,12.08,0,0,1,1.59.15,7.79,7.79,0,0,1,1.55.39,1.94,1.94,0,0,1,1,.65m-4.82,18.32a1.89,1.89,0,0,1,.44-.84,2.29,2.29,0,0,1,.88-.6,3.26,3.26,0,0,1,1.31-.2,2.55,2.55,0,0,1,1.09.21,2,2,0,0,1,.73.52,1.74,1.74,0,0,1,.37.66,1.9,1.9,0,0,1,.07.65,2.06,2.06,0,0,1-.13.54,2.75,2.75,0,0,1-.34.63,3.07,3.07,0,0,1-.57.57,2.32,2.32,0,0,1-.84.38,2.74,2.74,0,0,1-1.92-.1,2,2,0,0,1-1.1-1.48,2.29,2.29,0,0,1,0-.94" fill="#71788a"/><path d="M88.19,16.8a4.75,4.75,0,0,0-.35-1.18,8.8,8.8,0,0,0-.6-1.1,3.89,3.89,0,0,0-.67-.61,1.82,1.82,0,0,0-.66-.3,5.07,5.07,0,0,0-1.16-.23,6.6,6.6,0,0,0-1.44.07,6.41,6.41,0,0,0-2.37.75,5.2,5.2,0,0,0-1.35,1.15,5.14,5.14,0,0,0-.88,2.22,14.53,14.53,0,0,0-.2,3.3V21c-.46,0-.25.08-.68.14-.61.09-.66.11-1.11.19a1.06,1.06,0,0,0-.87,1.32c.07.41.07.67.11,1A2.11,2.11,0,0,0,76.4,25a4.28,4.28,0,0,0,1.82,0c.21-.06.44-.09.67-.14l0,.28c.24,1.59.81,6,1.22,7.9a2.11,2.11,0,0,0,.09.44.81.81,0,0,0,.19.29.88.88,0,0,0,.33.2,3.73,3.73,0,0,0,1.55.2,7.16,7.16,0,0,0,1,0,1.67,1.67,0,0,0,.9-.31.86.86,0,0,0,.16-.83c-.19-.8-.65-4.38-.88-5.38s-.43-2-.64-3.07l-.06-.33c.49,0,1.87,0,2.35-.08a1,1,0,0,0,.65-.17c.09-.11.07-.32-.06-.64s-.26-.54-.39-.82a9.36,9.36,0,0,0-.48-.94,2.52,2.52,0,0,0-.68-.64,1.53,1.53,0,0,0-.81-.21l-.89,0A14.39,14.39,0,0,1,82.35,19a4,4,0,0,1,.16-1.44,1.64,1.64,0,0,1,.87-1,2.24,2.24,0,0,1,1.18,0,1.58,1.58,0,0,1,.57.8c.42.93.7.8,2.09.83.51,0,.83-.1.94-.37a2,2,0,0,0,0-1.09" fill="#71788a"/><path d="M102.52,20.08a1.37,1.37,0,0,1-.74.34,4.33,4.33,0,0,1-2.58-.17,3,3,0,0,1-1.42-1.56,4,4,0,0,1-.2-.42,2.78,2.78,0,0,1-.13-.46c-.06-.16-.11-.31-.18-.46l-.18-.43c-.15-.26-.29-.48-.4-.66a.51.51,0,0,0-.42-.26c-.32,0-.64.25-.94.71a7.11,7.11,0,0,0-.78,1.84A19.56,19.56,0,0,0,94,21.12,20,20,0,0,0,93.82,24,12.6,12.6,0,0,0,94,26.4a11.1,11.1,0,0,0,.55,2.12,5.69,5.69,0,0,0,.84,1.54,1.35,1.35,0,0,0,1,.59,1.12,1.12,0,0,0,.81-.33,3.14,3.14,0,0,0,.65-.92,7.85,7.85,0,0,0,.47-1.35,12.9,12.9,0,0,0,.32-1.62,3.26,3.26,0,0,1-2.21.2,3.73,3.73,0,0,1-1.73-1.43.61.61,0,0,1-.14-.46.71.71,0,0,1,.26-.38,2.75,2.75,0,0,1,.55-.35l.76-.38c.52-.3,1.06-.58,1.63-.84s1.06-.49,1.47-.7a3.3,3.3,0,0,1,1.23-.39,1.86,1.86,0,0,1,1,.29c.24.14.47.28.7.44l.62.44a1.73,1.73,0,0,1,.68.79,2.8,2.8,0,0,1,.13,1,14.81,14.81,0,0,1-.81,4,8.93,8.93,0,0,1-1.64,2.85,5.48,5.48,0,0,1-1.5,1.13,6.64,6.64,0,0,1-1.87.62,12.66,12.66,0,0,1-3.64.14,5.37,5.37,0,0,1-1.4-.47,4.26,4.26,0,0,1-1.23-.87A7.41,7.41,0,0,1,90,30a12.81,12.81,0,0,1-1-2.83,18,18,0,0,1-.3-6.68,17.06,17.06,0,0,1,.82-3.33A11.5,11.5,0,0,1,91,14.21a3.46,3.46,0,0,1,.71-.77,4.64,4.64,0,0,1,.86-.55,7.2,7.2,0,0,1,.93-.37,6.78,6.78,0,0,1,.89-.22,8.38,8.38,0,0,1,1.25-.15,11.14,11.14,0,0,1,1.29,0,8,8,0,0,1,1.23.14,7.07,7.07,0,0,1,1.1.32,3.68,3.68,0,0,1,1.49,1,6,6,0,0,1,.94,1.47c.12.31.24.66.35,1s.22.79.31,1.18.16.79.23,1.16.1.69.12.95a1.26,1.26,0,0,1-.18.71" fill="#71788a"/><path d="M58.48,27.22c.17,1.08.52,2.08.69,3.08s.35,1.94.52,2.81a18.17,18.17,0,0,1,.4,2.27c0,.29,0,.54-.35.65-.15,0-.63.11-1,.17-.86.12-2.76.51-3.06,0A5.27,5.27,0,0,1,55.17,35c-.21-.62-.5-2.22-.69-3.13S54.15,30,54,29s-.5-2.13-.75-3.25-.48-2.23-.7-3.33-.41-2.13-.58-3.1-.32-1.84-.43-2.59c0-.55.06-.9.28-1a2,2,0,0,1,1.2-.19,21.75,21.75,0,0,1,2.35.24c.65.11,1.32.25,2,.41a4.84,4.84,0,0,1,1.07.39,3,3,0,0,1,.71.49,3,3,0,0,1,.5.63l.45.78c0,.14.12.31.21.5s.25.54.5,1,.59,1.2,1,2.11l1.89,3.76c.07-.59.16-1.23.27-1.93s.24-1.43.37-2.16.27-1.47.42-2.21.3-1.44.46-2.1.24-1.37.36-1.85a2.83,2.83,0,0,1,.48-1.13,1.25,1.25,0,0,1,.83-.49,4.35,4.35,0,0,1,1.44.07c.72.12,1.48.26,2.29.44s1.62.39,2.43.64a2.28,2.28,0,0,1,1.13.69A2,2,0,0,1,74.52,17c0,.76,0,1.63,0,2.61s.05,2,.1,3.08.23,2,.28,3.06.25,2.43.3,3.44.24,2.1.3,2.95.21,1.35.27,1.91a1.17,1.17,0,0,1-.18.65c-.1.13-.37.17-.82.11s-.8-.11-1.22-.18a6.57,6.57,0,0,1-1.15-.32,2.05,2.05,0,0,1-.94-.55,1.69,1.69,0,0,1-.38-.93c-.09-.48-.2-1.1-.31-1.85s-.14-1.81-.25-2.73-.28-2.16-.38-3.16-.28-3-.33-3.93c-.2.86-.82,3.27-1,4.27s-.43,2-.66,2.95-.38,1.48-.61,2.19A6.15,6.15,0,0,1,67,32.12a1.55,1.55,0,0,1-1.26.85,3.24,3.24,0,0,1-1.41,0,4.62,4.62,0,0,1-.52-.16,1.86,1.86,0,0,1-.43-.25,2.31,2.31,0,0,1-.4-.42c-.13-.17-.28-.38-.45-.64-.71-1.1-1.18-1.67-2-3.11s-2-4-2.76-5.57c.15,1.09.55,3.28.72,4.36" fill="#71788a"/></svg>