<svg id="a8f01462-2327-430a-8999-b0cc407df35d" data-name="Layer 1" xmlns="http://www.w3.org/2000/svg" viewBox="0 0 135 70"><path d="M42.87,18.47a3,3,0,0,0-3-3l-25-.1h0a3,3,0,0,0-2.32,4.92L23.92,34.08,12.49,48a3,3,0,0,0,2.32,4.92h25a3,3,0,0,0,3-3v-5h-6v2H21.18l9-10.89a3,3,0,0,0,0-3.83L21.31,21.45l15.53.18v1.84l6,0V21.06h0v-2.4h0Z" fill="#71788a"/><path d="M49.37,52.46,47.24,45H48l1.43,5.41c.12.44.21.84.29,1.22.08-.41.18-.81.3-1.22L51.53,45h.74l-2.15,7.45Z" fill="#71788a"/><path d="M55.14,50.72l.7.12a2.44,2.44,0,0,1-.61,1.28,1.51,1.51,0,0,1-1.14.46,1.62,1.62,0,0,1-1.39-.73,3.52,3.52,0,0,1-.51-2,3.67,3.67,0,0,1,.52-2.12,1.56,1.56,0,0,1,1.34-.75,1.53,1.53,0,0,1,1.31.74,3.6,3.6,0,0,1,.51,2.07s0,.14,0,.24h-3a2.54,2.54,0,0,0,.37,1.37,1,1,0,0,0,.83.47.9.9,0,0,0,.64-.26A1.92,1.92,0,0,0,55.14,50.72Zm-2.21-1.48h2.22a2.3,2.3,0,0,0-.25-1,1,1,0,0,0-.84-.53.94.94,0,0,0-.78.42A2,2,0,0,0,52.93,49.24Z" fill="#71788a"/><path d="M56.68,52.46v-5.4h.61v.82a2.41,2.41,0,0,1,.43-.76.63.63,0,0,1,.43-.18,1.14,1.14,0,0,1,.7.29l-.23.85a.82.82,0,0,0-.5-.2.53.53,0,0,0-.4.19,1,1,0,0,0-.25.5,5,5,0,0,0-.11,1.06v2.83Z" fill="#71788a"/><path d="M61.85,51.79a2.38,2.38,0,0,1-.72.61,1.6,1.6,0,0,1-.75.18,1.24,1.24,0,0,1-1-.43A1.73,1.73,0,0,1,59,51a2.11,2.11,0,0,1,.13-.73,1.44,1.44,0,0,1,.35-.52,1.33,1.33,0,0,1,.49-.3,3,3,0,0,1,.6-.14,4.44,4.44,0,0,0,1.2-.32c0-.12,0-.2,0-.24a1.27,1.27,0,0,0-.19-.78,1,1,0,0,0-.77-.31,1,1,0,0,0-.71.22,1.54,1.54,0,0,0-.33.8l-.66-.12a2.91,2.91,0,0,1,.29-.93,1.43,1.43,0,0,1,.6-.54,2,2,0,0,1,.9-.19,1.81,1.81,0,0,1,.83.16,1.13,1.13,0,0,1,.47.41,1.74,1.74,0,0,1,.21.62,5.52,5.52,0,0,1,0,.85V50.2c0,.85,0,1.39,0,1.61a2.83,2.83,0,0,0,.17.65H62A2.14,2.14,0,0,1,61.85,51.79Zm-.06-2a3.84,3.84,0,0,1-1.1.35,1.88,1.88,0,0,0-.59.18.7.7,0,0,0-.26.3.88.88,0,0,0-.1.43.9.9,0,0,0,.21.61.72.72,0,0,0,.59.24,1.09,1.09,0,0,0,.7-.23,1.27,1.27,0,0,0,.44-.63,2.7,2.7,0,0,0,.11-.91Z" fill="#71788a"/><path d="M63.52,52.46v-5.4h.61v.77a1.38,1.38,0,0,1,1.27-.89,1.35,1.35,0,0,1,.66.17,1.24,1.24,0,0,1,.45.46,2.17,2.17,0,0,1,.21.68,6.15,6.15,0,0,1,0,.89v3.32h-.67V49.18a3.36,3.36,0,0,0-.08-.84,1,1,0,0,0-.28-.44.73.73,0,0,0-.47-.17,1,1,0,0,0-.75.37,2.29,2.29,0,0,0-.31,1.41v3Z" fill="#71788a"/><path d="M67.53,50.85l.66-.14a1.47,1.47,0,0,0,.32.83.92.92,0,0,0,.72.29.83.83,0,0,0,.91-.86.6.6,0,0,0-.2-.49,2.57,2.57,0,0,0-.69-.31,5,5,0,0,1-1-.44,1.14,1.14,0,0,1-.43-.51,1.73,1.73,0,0,1-.15-.73,1.76,1.76,0,0,1,.12-.66,1.33,1.33,0,0,1,.33-.51,1.22,1.22,0,0,1,.43-.27,1.63,1.63,0,0,1,.59-.11,1.8,1.8,0,0,1,.82.18,1.15,1.15,0,0,1,.52.5,2.41,2.41,0,0,1,.24.83l-.66.13a1.11,1.11,0,0,0-.26-.65.79.79,0,0,0-.61-.24.9.9,0,0,0-.67.21.7.7,0,0,0-.2.49.59.59,0,0,0,.09.32.58.58,0,0,0,.25.24c.07,0,.27.11.6.24a6.62,6.62,0,0,1,1,.42,1.16,1.16,0,0,1,.45.48,1.8,1.8,0,0,1,.16.78,2,2,0,0,1-.2.87,1.48,1.48,0,0,1-.57.62,1.6,1.6,0,0,1-.84.22,1.5,1.5,0,0,1-1.18-.44A2.26,2.26,0,0,1,67.53,50.85Z" fill="#71788a"/><path d="M73.11,51.64l.1.81a2.05,2.05,0,0,1-.51.08.9.9,0,0,1-.57-.16.8.8,0,0,1-.28-.41,4,4,0,0,1-.09-1.08V47.77h-.49v-.71h.49V45.72l.67-.54v1.88h.68v.71h-.68v3.16a2.21,2.21,0,0,0,0,.5.29.29,0,0,0,.12.18.37.37,0,0,0,.23.07Z" fill="#71788a"/><path d="M76.37,51.79a2.38,2.38,0,0,1-.72.61,1.59,1.59,0,0,1-.74.18,1.21,1.21,0,0,1-1-.43A1.68,1.68,0,0,1,73.55,51a1.9,1.9,0,0,1,.13-.73,1.32,1.32,0,0,1,.35-.52,1.22,1.22,0,0,1,.48-.3,3.36,3.36,0,0,1,.6-.14A4.53,4.53,0,0,0,76.32,49v-.24a1.2,1.2,0,0,0-.19-.78.93.93,0,0,0-.77-.31,1,1,0,0,0-.7.22,1.53,1.53,0,0,0-.34.8l-.66-.12a2.68,2.68,0,0,1,.3-.93,1.41,1.41,0,0,1,.59-.54,2.06,2.06,0,0,1,.91-.19,1.81,1.81,0,0,1,.83.16,1.2,1.2,0,0,1,.47.41,1.74,1.74,0,0,1,.21.62A8,8,0,0,1,77,49V50.2c0,.85,0,1.39,0,1.61a2.41,2.41,0,0,0,.18.65h-.71A2.47,2.47,0,0,1,76.37,51.79Zm-.05-2a4,4,0,0,1-1.1.35,1.79,1.79,0,0,0-.59.18.66.66,0,0,0-.27.3,1,1,0,0,0-.09.43.9.9,0,0,0,.2.61.75.75,0,0,0,.6.24,1.06,1.06,0,0,0,.69-.23,1.28,1.28,0,0,0,.45-.63,3,3,0,0,0,.11-.91Z" fill="#71788a"/><path d="M78,52.46V45h.68v7.45Z" fill="#71788a"/><path d="M81.23,51.64l.1.81a2.05,2.05,0,0,1-.51.08.86.86,0,0,1-.57-.16A.81.81,0,0,1,80,52a4.69,4.69,0,0,1-.08-1.08V47.77h-.5v-.71h.5V45.72l.67-.54v1.88h.68v.71h-.68v3.16a1.73,1.73,0,0,0,0,.5.33.33,0,0,0,.11.18.39.39,0,0,0,.23.07A2.08,2.08,0,0,0,81.23,51.64Z" fill="#71788a"/><path d="M84.5,52.46v-.79a1.4,1.4,0,0,1-1.26.91,1.3,1.3,0,0,1-1.12-.64,2.38,2.38,0,0,1-.2-.68,5.86,5.86,0,0,1,0-.85V47.06h.67v3a6.77,6.77,0,0,0,0,1,1,1,0,0,0,.27.57.69.69,0,0,0,.51.2.87.87,0,0,0,.57-.21,1.09,1.09,0,0,0,.38-.57A4,4,0,0,0,84.43,50V47.06h.68v5.4Z" fill="#71788a"/><path d="M86.16,52.46v-5.4h.61v.77A1.38,1.38,0,0,1,88,46.94a1.35,1.35,0,0,1,.66.17,1.24,1.24,0,0,1,.45.46,2.17,2.17,0,0,1,.21.68,6.15,6.15,0,0,1,0,.89v3.32h-.67V49.18a3.36,3.36,0,0,0-.08-.84.88.88,0,0,0-.28-.44.73.73,0,0,0-.47-.17,1,1,0,0,0-.75.37,2.29,2.29,0,0,0-.31,1.41v3Z" fill="#71788a"/><path d="M90.31,52.91,91,53a1,1,0,0,0,.23.6.93.93,0,0,0,.69.25,1,1,0,0,0,.72-.25,1.36,1.36,0,0,0,.35-.71,8.06,8.06,0,0,0,0-1.18,1.28,1.28,0,0,1-1.1.71,1.4,1.4,0,0,1-1.27-.8,3.91,3.91,0,0,1-.45-1.93,4.66,4.66,0,0,1,.21-1.43,2.13,2.13,0,0,1,.59-1,1.3,1.3,0,0,1,2.09.41v-.65h.62v4.67a5.7,5.7,0,0,1-.19,1.78,1.67,1.67,0,0,1-.6.84,1.66,1.66,0,0,1-1,.3,1.55,1.55,0,0,1-1.15-.43A1.74,1.74,0,0,1,90.31,52.91Zm.56-3.25a3,3,0,0,0,.31,1.55.88.88,0,0,0,1.57,0,2.89,2.89,0,0,0,.31-1.53,2.84,2.84,0,0,0-.32-1.49.93.93,0,0,0-.79-.5.89.89,0,0,0-.76.49A2.76,2.76,0,0,0,90.87,49.66Z" fill="#71788a"/><path d="M94.44,50.85l.67-.14a1.46,1.46,0,0,0,.31.83.92.92,0,0,0,.72.29.84.84,0,0,0,.92-.86.63.63,0,0,0-.2-.49,2.57,2.57,0,0,0-.69-.31,4.74,4.74,0,0,1-1-.44,1.16,1.16,0,0,1-.44-.51,1.73,1.73,0,0,1-.15-.73,1.59,1.59,0,0,1,.13-.66,1.33,1.33,0,0,1,.33-.51,1.13,1.13,0,0,1,.43-.27,1.58,1.58,0,0,1,.58-.11,1.77,1.77,0,0,1,.82.18,1.17,1.17,0,0,1,.53.5,2.42,2.42,0,0,1,.23.83l-.66.13a1.11,1.11,0,0,0-.26-.65.78.78,0,0,0-.61-.24.87.87,0,0,0-.66.21.66.66,0,0,0-.2.49.59.59,0,0,0,.08.32.56.56,0,0,0,.26.24c.07,0,.26.11.6.24a6.38,6.38,0,0,1,1,.42,1.16,1.16,0,0,1,.45.48,1.67,1.67,0,0,1,.16.78,1.85,1.85,0,0,1-.2.87,1.53,1.53,0,0,1-.56.62,1.6,1.6,0,0,1-.84.22A1.52,1.52,0,0,1,95,52.14,2.33,2.33,0,0,1,94.44,50.85Z" fill="#71788a"/><path d="M100,51.64l.1.81a2.05,2.05,0,0,1-.51.08.86.86,0,0,1-.57-.16.81.81,0,0,1-.29-.41,4.69,4.69,0,0,1-.08-1.08V47.77h-.5v-.71h.5V45.72l.67-.54v1.88H100v.71h-.68v3.16a1.73,1.73,0,0,0,0,.5.33.33,0,0,0,.11.18.39.39,0,0,0,.23.07A2.08,2.08,0,0,0,100,51.64Z" fill="#71788a"/><path d="M103.42,50.72l.69.12a2.44,2.44,0,0,1-.61,1.28,1.48,1.48,0,0,1-1.14.46,1.59,1.59,0,0,1-1.38-.73,3.44,3.44,0,0,1-.52-2,3.75,3.75,0,0,1,.52-2.12,1.57,1.57,0,0,1,1.34-.75,1.53,1.53,0,0,1,1.31.74,3.6,3.6,0,0,1,.51,2.07,2.37,2.37,0,0,1,0,.24h-3a2.63,2.63,0,0,0,.37,1.37,1,1,0,0,0,.84.47.88.88,0,0,0,.63-.26A1.92,1.92,0,0,0,103.42,50.72Zm-2.22-1.48h2.22a2.3,2.3,0,0,0-.25-1,1,1,0,0,0-.84-.53.94.94,0,0,0-.78.42A2,2,0,0,0,101.2,49.24Z" fill="#71788a"/><path d="M107.56,50.48l.67.12a2.77,2.77,0,0,1-.56,1.46,1.4,1.4,0,0,1-1.1.52,1.54,1.54,0,0,1-1.32-.72,3.7,3.7,0,0,1-.49-2.08,5.05,5.05,0,0,1,.21-1.53,1.91,1.91,0,0,1,.65-1,1.55,1.55,0,0,1,.95-.33,1.38,1.38,0,0,1,1.06.44,2.22,2.22,0,0,1,.53,1.27l-.65.13a1.69,1.69,0,0,0-.34-.81.7.7,0,0,0-.57-.28,1,1,0,0,0-.83.5,3,3,0,0,0-.32,1.57,3.05,3.05,0,0,0,.31,1.58.92.92,0,0,0,.8.49.83.83,0,0,0,.67-.33A1.94,1.94,0,0,0,107.56,50.48Z" fill="#71788a"/><path d="M108.81,52.46V45h.67v2.67a1.4,1.4,0,0,1,1.19-.74,1.24,1.24,0,0,1,.77.24,1.21,1.21,0,0,1,.47.65,4.12,4.12,0,0,1,.14,1.21v3.42h-.67V49a1.83,1.83,0,0,0-.22-1,.73.73,0,0,0-.63-.31.89.89,0,0,0-.56.21,1.15,1.15,0,0,0-.38.57,3.68,3.68,0,0,0-.11,1v3Z" fill="#71788a"/><path d="M113.08,52.46v-5.4h.61v.77a1.37,1.37,0,0,1,1.26-.89,1.39,1.39,0,0,1,.67.17,1.24,1.24,0,0,1,.45.46,2.17,2.17,0,0,1,.21.68,8.11,8.11,0,0,1,0,.89v3.32h-.68V49.18a2.94,2.94,0,0,0-.08-.84.82.82,0,0,0-.28-.44.71.71,0,0,0-.47-.17,1,1,0,0,0-.74.37,2.28,2.28,0,0,0-.32,1.41v3Z" fill="#71788a"/><path d="M117.36,46.06V45H118v1.05Zm0,6.4v-5.4H118v5.4Z" fill="#71788a"/><path d="M119.06,52.46V45h.68v4.25l1.6-2.2h.87l-1.52,2,1.68,3.4h-.84l-1.31-2.76-.48.62v2.14Z" fill="#71788a"/><path d="M45.15,34.79l3.8-.94a3.67,3.67,0,0,0,1.17,2.65,3.49,3.49,0,0,0,2.74.5,5.22,5.22,0,0,0,2.88-1.24,3.09,3.09,0,0,0,1.08-2,1.51,1.51,0,0,0-.31-1.13A2.43,2.43,0,0,0,55.18,32c-.44-.09-1.45-.23-3-.4a8.33,8.33,0,0,1-4.22-1.29,4.13,4.13,0,0,1-1.48-3.7,6.28,6.28,0,0,1,1-2.94A7.2,7.2,0,0,1,50,21.27,11,11,0,0,1,53.84,20q3.6-.54,5.31.82a4.6,4.6,0,0,1,1.6,4.05l-3.88.75a2.63,2.63,0,0,0-.91-2,3.25,3.25,0,0,0-2.4-.3,5.29,5.29,0,0,0-2.7,1.1,1.89,1.89,0,0,0-.7,1.32,1.22,1.22,0,0,0,.49,1.11,8.3,8.3,0,0,0,3.46.78,15.23,15.23,0,0,1,4.07.8,3.91,3.91,0,0,1,2,1.68,5.11,5.11,0,0,1,.53,3,7.1,7.1,0,0,1-1.14,3.31A7.67,7.67,0,0,1,56.8,39a12.24,12.24,0,0,1-4.23,1.34c-2.42.36-4.24.07-5.45-.89A6,6,0,0,1,45.15,34.79Z" fill="#71788a"/><path d="M64.69,22.19l.25-3.49,3.68-.55-.26,3.49ZM63.51,38.38l1-14.26,3.67-.55-1,14.27Z" fill="#71788a"/><path d="M70.54,38.26l4.16-.1a1.15,1.15,0,0,0,.41,1,2.39,2.39,0,0,0,1.62.16,5,5,0,0,0,2.19-.76,2.56,2.56,0,0,0,.8-1.07,6.53,6.53,0,0,0,.3-1.76l.15-2.08a6.46,6.46,0,0,1-4.33,2.93,4,4,0,0,1-4.26-1.77,7.22,7.22,0,0,1-.93-4.59,9.69,9.69,0,0,1,2.08-5.73,6.88,6.88,0,0,1,4.32-2.51,4,4,0,0,1,4.08,1.69l.14-2,3.44-.52-.93,12.8a14.24,14.24,0,0,1-.68,3.83,6.28,6.28,0,0,1-1.28,2.14,6.73,6.73,0,0,1-2,1.4,11.43,11.43,0,0,1-3.12.87q-3.52.52-4.92-.5a3.13,3.13,0,0,1-1.25-2.93C70.5,38.6,70.52,38.44,70.54,38.26Zm3.89-8.85a4.47,4.47,0,0,0,.62,3.19,2.06,2.06,0,0,0,2,.74,3.71,3.71,0,0,0,2.36-1.42,5.74,5.74,0,0,0,1.16-3.34A4.34,4.34,0,0,0,80,25.42a2.27,2.27,0,0,0-2.17-.74,3.55,3.55,0,0,0-2.26,1.38A6.1,6.1,0,0,0,74.43,29.41Z" fill="#71788a"/><path d="M88.07,20.61l3.39-.5-.14,1.94a7.05,7.05,0,0,1,4.49-2.91,4,4,0,0,1,2.28.22,3,3,0,0,1,1.48,1.46,9.09,9.09,0,0,1,2.1-2,5.7,5.7,0,0,1,2.3-.9,4.43,4.43,0,0,1,2.55.25A2.83,2.83,0,0,1,108,19.81a7.65,7.65,0,0,1,.17,2.9l-.67,9.11-3.67.55.59-8.15a5.77,5.77,0,0,0-.18-2.68,1.36,1.36,0,0,0-1.51-.57,3,3,0,0,0-1.49.7,3.71,3.71,0,0,0-1.08,1.56,11.29,11.29,0,0,0-.52,3l-.49,6.85-3.68.55L96,25.8a10.81,10.81,0,0,0,0-2.65,1.23,1.23,0,0,0-.54-.81,1.64,1.64,0,0,0-1.1-.13,3.16,3.16,0,0,0-1.56.7,3.46,3.46,0,0,0-1.08,1.5,11.29,11.29,0,0,0-.51,3l-.5,6.93L87,34.87Z" fill="#71788a"/><path d="M114.59,21l-3.29-.12a7.18,7.18,0,0,1,2.16-3.35,8.35,8.35,0,0,1,4.15-1.61,8.21,8.21,0,0,1,3.62,0,2.72,2.72,0,0,1,1.59,1.27,7.33,7.33,0,0,1,.24,3.3l-.36,4.41a16,16,0,0,0,0,2.75,6.85,6.85,0,0,0,.53,1.82l-3.64.54a10.41,10.41,0,0,1-.27-1.06c-.05-.22-.08-.36-.1-.43a9,9,0,0,1-2.12,1.71,6.78,6.78,0,0,1-2.32.82,3.92,3.92,0,0,1-3.29-.69,3.24,3.24,0,0,1-1-2.84,4.93,4.93,0,0,1,.72-2.24,5.12,5.12,0,0,1,1.68-1.69,15.41,15.41,0,0,1,3-1.31,25.14,25.14,0,0,0,3.64-1.46l0-.38a1.61,1.61,0,0,0-.41-1.47,2.72,2.72,0,0,0-1.94-.17,3.26,3.26,0,0,0-1.56.62A3.82,3.82,0,0,0,114.59,21Zm4.7,2.33c-.49.23-1.24.53-2.28.91a8.15,8.15,0,0,0-2.05.95,2,2,0,0,0-.82,1.44,1.5,1.5,0,0,0,.48,1.28,1.62,1.62,0,0,0,1.42.36,3.94,3.94,0,0,0,1.95-.95,3.16,3.16,0,0,0,1-1.38,7.9,7.9,0,0,0,.28-1.86Z" fill="#71788a"/></svg>