<svg id="fc1cef4f-b937-4710-8fe9-08491172b26e" data-name="Layer 1" xmlns="http://www.w3.org/2000/svg" viewBox="0 0 135 70"><path d="M43.8,4.71V66.38H91.2V4.71Zm35.08,5.62a.28.28,0,0,1,.45.2c0,.07.13.13.21.16.65.26,1.29.51,1.94.75.27.11.35.22.27.51a2.3,2.3,0,0,1-.2.49.8.8,0,0,0,0,.83,3.88,3.88,0,0,1,.35.63,1.17,1.17,0,0,1,0,1.16.81.81,0,0,0,.2.14.73.73,0,0,1,.5.7q.09,1,.12,1.92a1.62,1.62,0,0,1-.11.53c0,.06-.11.11-.17.17s-.16-.15-.17-.23a1.18,1.18,0,0,1,0-.37c0-.13,0-.26.09-.42a3.41,3.41,0,0,1-.55.3c-.07,0-.19,0-.29-.06s0-.24.11-.27c.7-.31.61-.93.57-1.5a.55.55,0,0,0-.84-.39c-.14.12-.28.14-.36,0s0-.24.06-.36l0,0c.65-.45.68-.61.31-1.32-.14-.26-.23-.54-.36-.85l-.23.06a.54.54,0,0,1-.65-.2c-.06-.09,0-.22,0-.33a1.4,1.4,0,0,1,.29,0c.15,0,.26.3.42.13a3.72,3.72,0,0,0,.47-.68s-.08-.15-.14-.18c-.66-.29-1.32-.57-2-.84-.1,0-.23,0-.35,0a.56.56,0,0,1-.22-.1C78.71,10.69,78.74,10.44,78.88,10.33ZM78.82,12a1,1,0,0,1-.38.72c-.14.12-.24,0-.23-.11a4.58,4.58,0,0,1,.09-.83.33.33,0,0,1,.24-.22c.07,0,.17.13.23.22A.59.59,0,0,1,78.82,12Zm-.42-1.94c.07,0,.2.18.18.21a.86.86,0,0,1-.27.3s-.13,0-.2,0h0a1.11,1.11,0,0,1-.37-.08.28.28,0,0,1-.16-.22.27.27,0,0,1,.18-.19A2.29,2.29,0,0,1,78.4,10.08Zm-.49,2.08c-.45.19-.64.15-.85-.16s-.12-.41.09-.52a4.14,4.14,0,0,1,.77-.27c.06,0,.18.09.21.17a1.07,1.07,0,0,1,.06.32A.38.38,0,0,1,77.91,12.16Zm.19,7.11a.25.25,0,0,1-.17.16.46.46,0,0,1-.46-.31,6.17,6.17,0,0,1-.17-.65l.09,0C77.53,18.46,78.13,19.13,78.1,19.27Zm-1.27-7.82a.89.89,0,0,0-.32.39,2.91,2.91,0,0,0-.12.39c0,.07-.1.12-.15.18s-.17-.14-.16-.2a1.11,1.11,0,0,1,.1-.51,9.49,9.49,0,0,1,.63-1,.64.64,0,0,1,.37-.17s.1.1.13.13A.77.77,0,0,1,76.83,11.45Zm-6.47-.6a5.51,5.51,0,0,0,.36-.68.42.42,0,0,0,0-.16c0-.29,0-.58,0-.87s.41-.43.64-.41a4.88,4.88,0,0,1,.94.18c.27.08.48.13.71-.08a.61.61,0,0,1,.69-.1,7.16,7.16,0,0,0,1.7.36c.73.15,1.43.41,2.14.63,0,0,.08.12.12.19s-.18.14-.22.11-.27,0-.4.06a3.47,3.47,0,0,0-1.44,1.16.54.54,0,0,0-.14.27c-.08.36-.14.72-.19,1.08a1.33,1.33,0,0,0,.16.8,4.63,4.63,0,0,0,.74,1c.21.27.18.47-.12.66s-.19.19-.09.35a1,1,0,0,1,.06.31l-.33-.06a.76.76,0,0,1-.19-.12c.09.32.08.35-.11.56l-.69-.74c.07-.14.21-.15.38-.1l.25.1A4.54,4.54,0,0,1,75,15a.32.32,0,0,0-.46-.06.45.45,0,0,0-.12.34,1.41,1.41,0,0,0,.61.94l.33.25a.77.77,0,0,1,.32.52,2.32,2.32,0,0,0,.34.71c.14.25.31.49.44.75s0,.35-.21.43-.47.13-.53.28.11.37.17.57.11.37.17.58a.67.67,0,0,1-.59-.44c-.12-.25-.21-.52-.34-.77a.47.47,0,0,0-.28-.2c-.46-.08-.92-.12-1.37-.2a1.81,1.81,0,0,1-.35-.16c.11-.08.23-.23.34-.23a5.6,5.6,0,0,1,.81.1c.11,0,.22.07.32.07a.27.27,0,0,0,.17-.1c0-.25,0-.52-.21-.73a16.91,16.91,0,0,1-3.18-4.15c-.38-.71-.68-1.47-1-2.21A.36.36,0,0,1,70.36,10.85Zm6.45,11c.27-.46.77-.38,1.13-.59l.07,0c0,.08-.06.19-.13.22C77.55,21.69,77.28,22.05,76.81,21.85Zm.72,11.56c0,.14-.06.32-.26.27s-.25-.13-.25-.2.1-.29.38-.27C77.43,33.25,77.53,33.33,77.53,33.41Zm-.43-8.74c0,.43.07.84.1,1.24,0,.17.07.35-.11.48s0,.11,0,.16-.13.28-.18.28a.63.63,0,0,1-.43-.18.56.56,0,0,1,0-.49,1.17,1.17,0,0,0,.11-.63,2.84,2.84,0,0,1,0-.51A.43.43,0,0,1,77.1,24.67Zm-.86,1.49a.3.3,0,0,1-.3.29c-.19,0-.25-.1-.25-.25s0-.59,0-.93l-.3.14c-.23.13-.35.08-.35-.18,0-.51.06-1,.11-1.54,0-.06.1-.13.16-.19s.16.1.19.18a.81.81,0,0,1,0,.27c0,.21,0,.42,0,.62l.08,0,.56-.68h.11a3.07,3.07,0,0,1,.07.42C76.34,25,76.28,25.56,76.24,26.16Zm-3.6-3.93a2.71,2.71,0,0,0-1.26.94l.42.19a7.23,7.23,0,0,1-3.34,1.69c-.25,0-.39-.09-.29-.33a1,1,0,0,1,.4-.52,5.85,5.85,0,0,1,.91-.34,8,8,0,0,0,.86-.32.72.72,0,0,0,.39-.63,5.57,5.57,0,0,1,.36-1.09l.33-.86,0-.07-.61.3a4.5,4.5,0,0,1-.41.25c-.19.09-.31,0-.31-.21a.68.68,0,0,1,.12-.37c.36-.45.73-.88,1.1-1.32.08-.08.12-.29.31-.16s.31.22.21.45l-.11.26,0,0c.52.17.55.23.36.76-.12.33-.26.65-.39,1,0,.07-.05.15-.08.23l.05,0,.94-.58a.62.62,0,0,1,.34-.09.32.32,0,0,1,.15.26c0,.18.08.24.27.22a1.8,1.8,0,0,1,0,.52c-.17.58-.36,1.15-.55,1.73,0,.06-.1.11-.16.17s-.15-.12-.15-.18a6.15,6.15,0,0,1,0-.86c0-.22.11-.43.15-.65A3.23,3.23,0,0,0,72.64,22.23Zm1.78.42c0-.07.13-.11.19-.17a1,1,0,0,1,.16.22.71.71,0,0,1,0,.6,7.72,7.72,0,0,0-.29.85,2.89,2.89,0,0,1-.38.69c-.3.36-.41.34-.7,0Zm-6.14-4.2a.48.48,0,0,1,.35-.1c.68.06,1.36.15,2,.23.17,0,.34,0,.51,0a.33.33,0,0,1,.22.14c.17.32.14.36-.22.42l-2,.25v-.06H68.6a.54.54,0,0,1-.51-.4C68,18.71,68.14,18.56,68.28,18.45ZM78,37.17a.62.62,0,0,1-.47.43,3.35,3.35,0,0,0-1,.36,1.41,1.41,0,0,1-.82.27.53.53,0,0,1-.54-.31c-.6-1-1.21-2-1.83-3a1.44,1.44,0,0,0-.27-.34.36.36,0,0,0-.24-.09,1,1,0,0,0-.71.47,4.12,4.12,0,0,0-.43.6A9,9,0,0,1,69.65,38c-1.92,1.6-3.85,3.21-5.71,4.88-1,.94-2,2-3,3-.78.81-1.56,1.62-2.3,2.46a69.09,69.09,0,0,0-4.39,5.81c-1.68,2.39-3.38,4.78-5.07,7.18-.36.51-.69,1-1,1.57a2.51,2.51,0,0,0-.47,1.51c-.57,0-.59,0-.47-.53a6.17,6.17,0,0,1,1-2.1c1.32-1.85,2.62-3.72,3.9-5.59a91.41,91.41,0,0,1,5.63-7.77c1-1.23,2.18-2.39,3.3-3.56,2.62-2.74,5.54-5.15,8.32-7.71a11,11,0,0,0,1-.93,23.73,23.73,0,0,0,2-2.55c-.63-.61-1.27-1.17-1.86-1.79a16.59,16.59,0,0,1-2.69-4.08,2.43,2.43,0,0,0-.26-.44,1.6,1.6,0,0,1-.35-1c0-.4.3-.58.64-.38a.91.91,0,0,1,.36.42,16.76,16.76,0,0,0,3.15,5.32c1,1.23,1.93,2.48,2.88,3.72.21.27.36.59.55.87s.48.7.74,1,.36.22.62.1c.48-.23,1-.44,1.48-.64C77.93,36.76,78.06,36.92,78,37.17Zm.48-11.59a3,3,0,0,0,0,1.12.34.34,0,0,1-.29.45c-.29.05-.4,0-.32-.4,0-.64-.08-1.29-.1-1.94a.64.64,0,0,1,.12-.34s.15,0,.23-.07a1,1,0,0,1,0,.23.38.38,0,0,0,.18.46A.41.41,0,0,1,78.48,25.58Zm.13-2.46-.11-.05c0-.23,0-.45.06-.67A1.05,1.05,0,0,0,77.71,21l-1.41-.47c-.07,0-.12-.1-.18-.15s.13-.12.2-.12a1.66,1.66,0,0,1,.49.07c.31.1.62.24.94.34a2.1,2.1,0,0,1,1.27.83c.31-.21.61-.4.89-.62s.23-.35,0-.54c0,0-.09-.11-.07-.14a.55.55,0,0,1,.18-.19.17.17,0,0,1,.17,0,1,1,0,0,0,1.11-.13,1.33,1.33,0,0,0,.67-1,.43.43,0,0,1,0-.12c.28,0,.38.11.34.37a1.34,1.34,0,0,1-.59.87c-.23.14-.46.26-.7.39a2.42,2.42,0,0,0-.93.75,2.53,2.53,0,0,1-.42.38l0,.09.72-.17a.93.93,0,0,1,1,.25l.92.9a2,2,0,0,0,1,.52.52.52,0,0,1,.2.09c.3.18.59.38.9.56a.47.47,0,0,1,.2.63.33.33,0,0,1-.49.13,4.7,4.7,0,0,1-1-.55c-.81-.66-1.58-1.36-2.38-2a.8.8,0,0,0-.28-.13,1.12,1.12,0,0,0-.06.35c0,.25.14.48.21.74-.32,0-.5-.17-.49-.41s-.1-.31-.31-.33-.33-.05-.5-.05a.36.36,0,0,0-.23.15c-.09.14-.11.31-.19.45A2.43,2.43,0,0,1,78.61,23.12Zm5.55,2.61a.28.28,0,0,1-.4.15,1.63,1.63,0,0,1-.82-.73c-.09-.13,0-.26.29-.26a1.25,1.25,0,0,1,.89.45A.58.58,0,0,1,84.16,25.73ZM79,25.11s0-.1,0-.12.19-.27.28-.4a1.26,1.26,0,0,1,.22.31c.08.25.12.51.2.85a3.89,3.89,0,0,0,.36-.37c.11-.16.18-.34.29-.49s.25-.21.32-.18a.78.78,0,0,1,.27.32,1.73,1.73,0,0,1,.1.37l.36-.4a1.92,1.92,0,0,1,.28-.29.31.31,0,0,1,.5.09,6,6,0,0,1,.32.73,1.84,1.84,0,0,0,.72,1,2.27,2.27,0,0,1,.73.83,25.29,25.29,0,0,1,1.66,3.44,7.66,7.66,0,0,1,.3,1.14c0,.22,0,.45.16.64,0,0,0,.15-.06.2s-.12,0-.17,0l-1.1-.48c-.13-.06-.27-.11-.18-.27s.19-.25.37-.16l.41.2.08-.08c-.24-.62-.45-1.25-.73-1.85-.43-.91-.91-1.79-1.37-2.68-.1-.19-.21-.38-.32-.57,0,0,0-.09-.08-.1a2.39,2.39,0,0,1-1-1.3l0,0c-.35.27-.12.79-.49,1.1-.26-.21-.55-.4-.81-.63s-.25,0-.32.07-.14.33-.24.48a.5.5,0,0,1-.29.21c-.07,0-.15-.15-.25-.26-.27,0-.35-.07-.39-.4S79,25.43,79,25.11Zm5.47,10.66-.06,0,.06,0c-.06-.28-.11-.55-.17-.83s0-.27.19-.23a.67.67,0,0,1,.43.53A.89.89,0,0,1,84.43,35.77Zm.28.65c0,.42-.1.84-.17,1.25a.73.73,0,0,1-.14.26l-.11,0a6.29,6.29,0,0,1,.18-2C84.64,36,84.74,36.16,84.71,36.42ZM82.4,34.21a8.81,8.81,0,0,1,.28.87c0,.18.08.32.28.37a.35.35,0,0,1,.27.39c0,.68,0,1.37,0,2,0,.43,0,.86,0,1.28,0,.26-.11.5-.14.76,0,.46-.06.92-.1,1.38a1,1,0,0,1-.1.42c0,.09-.18.13-.27.2,0-.09-.11-.18-.1-.26.07-.84.17-1.68.23-2.52,0-.47,0-.94,0-1.41s0-.73,0-1.1a.74.74,0,0,1,.16-.35.34.34,0,0,0-.07-.54l-.38-.26a.42.42,0,0,1-.19-.49.5.5,0,0,0,0-.29c-.1-.18-.24-.34-.32-.52a.49.49,0,0,1,.09-.61c.2-.19.13-.45.11-.69a1.56,1.56,0,0,1,0-.43.54.54,0,0,1,.39-.48,9.93,9.93,0,0,0,1-.47,2.06,2.06,0,0,0-.59-1.3c-.32.15-.44.13-.72-.13a3,3,0,0,0-1.79-.6h-.26c-.13,0-.25,0-.25-.19s.09-.27.26-.25a5,5,0,0,1,1,.15c.44.15.85.36,1.3.55.11-.57-.39-.9-.5-1.38a.27.27,0,0,1,.4,0,.28.28,0,0,1,.09.1,14.21,14.21,0,0,1,1.45,2.72,4.54,4.54,0,0,1,.12.5c.06.22-.05.33-.24.37s-.48.06-.71.1-.45.22-.48.57-.07.88-.11,1.32A1.36,1.36,0,0,0,82.4,34.21Zm1.23,1.87h.06L84,37.68l-.06.06c-.1-.09-.25-.16-.27-.27a6.88,6.88,0,0,1-.17-1.12C83.49,36.27,83.58,36.17,83.63,36.08Zm-4.36-5.63a1.65,1.65,0,0,1,.33-.05c.48,0,.89.05,1.29.12a1.69,1.69,0,0,1,.63.31c.06,0,0,.18.06.27a.58.58,0,0,1-.26,0,2.17,2.17,0,0,1-.33-.19.43.43,0,0,0-.48-.08h-.89a1.45,1.45,0,0,1-.36,0,.27.27,0,0,1-.14-.19A.28.28,0,0,1,79.27,30.45Zm.37,6a.48.48,0,0,1-.12,0c0-.29.89-1,1.28-1,0,0,0,.1,0,.12-.38.4-.4,1-.67,1.43,0,.06-.14.12-.19.1a.3.3,0,0,1-.17-.18.37.37,0,0,1,0-.25C79.9,36.48,79.9,36.47,79.64,36.48Zm.06-2.89s-.1,0-.13,0l-.3-.25c.12-.07.25-.19.37-.19.41,0,.81,0,1.22.08a3.86,3.86,0,0,1,.49.1l0,.13a1.46,1.46,0,0,1-.38.14C80.57,33.61,80.13,33.59,79.7,33.59Zm-.56-1.67a.17.17,0,0,1,0-.18.39.39,0,0,1,.23-.15c.38-.06.76-.12,1.14-.16a1.42,1.42,0,0,1,.4.08l0,.11a1.7,1.7,0,0,1-.45.22c-.4.07-.8.11-1.19.16C79.25,32,79.16,32,79.14,31.92Zm1.19,2.54c-.22.5-.69.75-1.08,1.16C79.26,35.07,80,34.34,80.33,34.46Zm.21,7.31c0-.26,0-.52-.06-.8-.24,0-.31.2-.42.35s-.13.33-.33.21a.33.33,0,0,1-.09-.49,12,12,0,0,0,.63-1.1,6.23,6.23,0,0,0,.23-.8c0-.07,0-.14.07-.21s.06-.31.09-.5l-.35.07.19-.6,0,0a4.78,4.78,0,0,0-.42.26c-.16.11-.31.24-.48.34s-.18,0-.27,0,0-.28,0-.33A5.89,5.89,0,0,1,81.17,37a1.24,1.24,0,0,1-.33.89c.43.33.11.71.07,1.08,0,.12,0,.25-.09.43.52-.09.62.25.71.61l.07,0,0-.34c0-.13,0-.25.2-.24s.19.12.18.25c0,.29-.08.58-.13.86s-.09.42-.15.68a3.08,3.08,0,0,1,.43,0c.07,0,.18.09.19.15s-.06.2-.12.21a7.32,7.32,0,0,1-.94.12s-.13-.13-.12-.19a4.31,4.31,0,0,1,.15-.62c.05-.2.11-.39.18-.62-.06,0-.09,0-.1,0A.85.85,0,0,0,81,41.62c.1.2,0,.29-.2.35S80.56,41.9,80.54,41.77Zm8.52-5.94c-.16.27-.41.13-.62.07a1.64,1.64,0,0,0-.88,0c-.06,0-.17-.05-.24-.1s-.17-.15-.27-.19-.24-.06-.25.14c-.06.61-.13,1.21-.19,1.81,0,.13,0,.26,0,.39a.35.35,0,0,0,.24.39.68.68,0,0,1,.27.39c.11.73.21,1.46.29,2.19a2.73,2.73,0,0,1-.26,1.75,2.51,2.51,0,0,1-.53.64,4.31,4.31,0,0,0-1.1,1.54c-.28.64-.58,1.28-.81,1.94a10.27,10.27,0,0,0-.18,1.11c-.36,1.61-.75,3.22-1.12,4.83s-.69,2.93-1,4.4a2.05,2.05,0,0,0,.1.72,7.36,7.36,0,0,1-.17,3.13c-.3,1.07-.44,2.19-.65,3.3,0,0,0,.11,0,.2h-.72c.15-.6.31-1.18.46-1.76a13.62,13.62,0,0,0,.53-3.7,7.11,7.11,0,0,0-.13-1.22,3.37,3.37,0,0,1,.13-1.55c.4-1.64.83-3.27,1.26-4.9a27.58,27.58,0,0,0,.78-4,6.54,6.54,0,0,1,1-2.63,8.91,8.91,0,0,1,1.2-1.73,2.39,2.39,0,0,0,.62-1.73c0-.78-.1-1.57-.16-2.35a.33.33,0,0,0-.07-.16l-.33-.42c-.26.06-.26.06-.27-.28,0-.12,0-.25-.05-.41a.45.45,0,0,0-.07.1l-.27.32a1.73,1.73,0,0,1-.26-.28c-.15-.21-.28-.43-.42-.65,0,0,0-.07,0-.1s0-.28.1-.3.22.11.25.26l.09.33h.08a1,1,0,0,0,.15-.32c0-.31,0-.62,0-.94a4.5,4.5,0,0,1,.07-.63.74.74,0,0,0-.09-.66c0-.05,0-.15,0-.22s.2,0,.25,0a.68.68,0,0,1,.12,1,.47.47,0,0,0-.06.19,4.22,4.22,0,0,0,.52,1.67c0-.36.11-.73.13-1.09a10.1,10.1,0,0,0,0-1.23,1.32,1.32,0,0,0-.23-.53c-.09-.13-.13-.25,0-.33s.21,0,.28.06a.77.77,0,0,1,.22.34,1.34,1.34,0,0,0,1.14.9,3.9,3.9,0,0,0,.91.09l-.26-.19A3.81,3.81,0,0,1,87.12,34c-.13-.26-.42-.43-.62-.65a1.11,1.11,0,0,1-.12-.27c.1,0,.22-.11.3-.08a1.91,1.91,0,0,1,.58.39,2,2,0,0,1,.41.62,3.12,3.12,0,0,0,1.1,1.26C89.12,35.5,89.19,35.63,89.06,35.83Z" fill="#71788a"/></svg>