<?xml version="1.0" encoding="utf-8"?>
<!-- Generator: Adobe Illustrator 22.1.0, SVG Export Plug-In . SVG Version: 6.00 Build 0)  -->
<svg version="1.1" id="Regular" xmlns="http://www.w3.org/2000/svg" xmlns:xlink="http://www.w3.org/1999/xlink" x="0px" y="0px"
	 viewBox="0 0 24 24" style="enable-background:new 0 0 24 24;" xml:space="preserve">
<title>video-game-logo-stream</title>
<g>
	<path fill="#ea0000" d="M21,19.25c-0.163,0-0.319-0.052-0.45-0.15c-0.16-0.12-0.264-0.296-0.292-0.494c-0.028-0.198,0.022-0.396,0.143-0.556
		c2.78-3.709,2.78-8.891,0-12.6c-0.248-0.331-0.181-0.802,0.15-1.05C20.681,4.302,20.837,4.25,21,4.25c0.235,0,0.459,0.112,0.6,0.3
		c3.178,4.239,3.178,10.161,0,14.4C21.459,19.138,21.235,19.25,21,19.25z"/>
	<path fill="#ea0000" d="M18.916,17.001c-0.146,0-0.287-0.042-0.409-0.121c-0.346-0.225-0.445-0.69-0.22-1.037c1.615-2.485,1.615-5.697,0-8.183
		c-0.225-0.347-0.126-0.812,0.22-1.037c0.122-0.079,0.263-0.121,0.408-0.121c0.255,0,0.49,0.128,0.629,0.342
		c1.938,2.982,1.938,6.835,0,9.817C19.406,16.873,19.171,17.001,18.916,17.001z"/>
	<path fill="#ea0000" d="M3,19.25c-0.235,0-0.46-0.112-0.601-0.301c-3.177-4.239-3.177-10.16,0-14.399c0.141-0.188,0.365-0.3,0.6-0.3
		c0.163,0,0.319,0.052,0.45,0.15c0.16,0.12,0.264,0.296,0.292,0.494C3.771,5.092,3.721,5.29,3.6,5.45c-2.78,3.709-2.78,8.891,0,12.6
		c0.248,0.331,0.181,0.802-0.15,1.05C3.319,19.198,3.164,19.25,3,19.25z"/>
	<path fill="#ea0000" d="M5.085,17.001c-0.255,0-0.49-0.128-0.629-0.341c-1.938-2.982-1.938-6.835,0-9.817C4.594,6.629,4.83,6.501,5.084,6.501
		c0.145,0,0.286,0.042,0.408,0.121C5.84,6.848,5.938,7.313,5.713,7.66c-1.616,2.485-1.616,5.697,0,8.183
		c0.225,0.347,0.126,0.812-0.22,1.037C5.371,16.959,5.23,17.001,5.085,17.001z"/>
	<path fill="#ea0000" d="M10.497,16.427c-0.401-0.001-0.777-0.158-1.06-0.441C9.154,15.701,8.999,15.325,9,14.924V8.575
		c0-0.272,0.074-0.539,0.214-0.772c0.269-0.449,0.763-0.728,1.288-0.728c0.271,0,0.537,0.074,0.77,0.214l5.252,3.177
		c0.208,0.125,0.385,0.302,0.512,0.512c0.206,0.343,0.267,0.747,0.169,1.135c-0.097,0.389-0.34,0.716-0.683,0.923l-5.248,3.174
		c-0.234,0.141-0.502,0.216-0.776,0.216H10.497z M10.5,8.576l0.001,6.351l5.248-3.174L10.5,8.576C10.5,8.576,10.5,8.576,10.5,8.576z
		"/>
</g>
</svg>
